%
M48
M72
T01C0.01378
T02C0.03200
T03C0.04000
T04C0.11800
%
T01
X65000Y46300
X70000Y56300
X70000Y61300
X75000Y61300
X65000Y151300
X50000Y171300
X45000Y151300
T02
X80000Y146300
X80000Y156300
X80000Y166300
X80000Y176300
X80000Y186300
X80000Y196300
X80000Y206300
X110000Y206300
X110000Y196300
X110000Y186300
X110000Y176300
X110000Y166300
X110000Y156300
X110000Y146300
X110000Y136300
X110000Y126300
X110000Y116300
X110000Y106300
X110000Y96300
X110000Y86300
X110000Y76300
X135000Y86300
X145000Y86300
X145000Y41300
X135000Y41300
X80000Y76300
X80000Y86300
X80000Y96300
X80000Y106300
X80000Y116300
X80000Y126300
X80000Y136300
X135000Y131300
X145000Y131300
T03
X25000Y81300
X25000Y91300
X25000Y101300
X25000Y111300
X25000Y121300
X25000Y131300
X80000Y41300
X80000Y31300
X90000Y31300
X90000Y41300
X100000Y41300
X100000Y31300
X155000Y151300
X155000Y161300
X155000Y171300
X155000Y181300
X155000Y191300
X155000Y201300
X155000Y211300
X155000Y221300
T04
X58937Y206300
X47126Y187796
X35315Y206300
M30
