G75*
%MOIN*%
%OFA0B0*%
%FSLAX25Y25*%
%IPPOS*%
%LPD*%
%AMOC8*
5,1,8,0,0,1.08239X$1,22.5*
%
%ADD10R,0.03346X0.03543*%
%ADD11C,0.07400*%
%ADD12C,0.17000*%
%ADD13R,0.05000X0.08110*%
%ADD14C,0.06400*%
%ADD15C,0.00600*%
%ADD16C,0.02978*%
D10*
X0052717Y0136300D03*
X0057283Y0136300D03*
X0042283Y0146300D03*
X0037717Y0146300D03*
D11*
X0025000Y0131300D03*
X0025000Y0121300D03*
X0025000Y0111300D03*
X0025000Y0101300D03*
X0025000Y0091300D03*
X0025000Y0081300D03*
X0080000Y0041300D03*
X0080000Y0031300D03*
X0090000Y0031300D03*
X0090000Y0041300D03*
X0100000Y0041300D03*
X0100000Y0031300D03*
X0135000Y0041300D03*
X0145000Y0041300D03*
X0145000Y0086300D03*
X0135000Y0086300D03*
X0135000Y0131300D03*
X0145000Y0131300D03*
X0155000Y0151300D03*
X0155000Y0161300D03*
X0155000Y0171300D03*
X0155000Y0181300D03*
X0155000Y0191300D03*
X0155000Y0201300D03*
X0155000Y0211300D03*
X0155000Y0221300D03*
D12*
X0058937Y0206300D03*
X0047126Y0187796D03*
X0035315Y0206300D03*
D13*
X0041909Y0166300D03*
X0028091Y0166300D03*
X0143091Y0111300D03*
X0156909Y0111300D03*
X0156909Y0066300D03*
X0143091Y0066300D03*
X0143091Y0016300D03*
X0156909Y0016300D03*
D14*
X0110000Y0076300D03*
X0110000Y0086300D03*
X0110000Y0096300D03*
X0110000Y0106300D03*
X0110000Y0116300D03*
X0110000Y0126300D03*
X0110000Y0136300D03*
X0110000Y0146300D03*
X0110000Y0156300D03*
X0110000Y0166300D03*
X0110000Y0176300D03*
X0110000Y0186300D03*
X0110000Y0196300D03*
X0110000Y0206300D03*
X0080000Y0206300D03*
X0080000Y0196300D03*
X0080000Y0186300D03*
X0080000Y0176300D03*
X0080000Y0166300D03*
X0080000Y0156300D03*
X0080000Y0146300D03*
X0080000Y0136300D03*
X0080000Y0126300D03*
X0080000Y0116300D03*
X0080000Y0106300D03*
X0080000Y0096300D03*
X0080000Y0086300D03*
X0080000Y0076300D03*
D15*
X0015000Y0001300D02*
X0160000Y0001300D01*
X0015000Y0001300D01*
X0015000Y0226300D01*
X0160000Y0226300D01*
X0160000Y0212817D01*
X0159408Y0214246D01*
X0157946Y0215708D01*
X0156198Y0216432D01*
X0156919Y0216666D01*
X0157621Y0217024D01*
X0158257Y0217486D01*
X0158814Y0218043D01*
X0159276Y0218679D01*
X0159634Y0219381D01*
X0159877Y0220129D01*
X0160000Y0220906D01*
X0160000Y0221000D01*
X0155300Y0221000D01*
X0155300Y0221600D01*
X0154700Y0221600D01*
X0154700Y0226300D01*
X0154606Y0226300D01*
X0153829Y0226177D01*
X0153081Y0225934D01*
X0152379Y0225576D01*
X0151743Y0225114D01*
X0151186Y0224557D01*
X0150724Y0223921D01*
X0150366Y0223219D01*
X0150123Y0222471D01*
X0150000Y0221694D01*
X0150000Y0221600D01*
X0154700Y0221600D01*
X0154700Y0221000D01*
X0150000Y0221000D01*
X0150000Y0220906D01*
X0150123Y0220129D01*
X0150366Y0219381D01*
X0150724Y0218679D01*
X0151186Y0218043D01*
X0151743Y0217486D01*
X0152379Y0217024D01*
X0153081Y0216666D01*
X0153802Y0216432D01*
X0152054Y0215708D01*
X0150592Y0214246D01*
X0149800Y0212334D01*
X0149800Y0210266D01*
X0150275Y0209120D01*
X0149254Y0208100D01*
X0114342Y0208100D01*
X0113984Y0208962D01*
X0112662Y0210284D01*
X0110935Y0211000D01*
X0109065Y0211000D01*
X0107338Y0210284D01*
X0106016Y0208962D01*
X0105300Y0207235D01*
X0105300Y0205365D01*
X0106016Y0203638D01*
X0107338Y0202316D01*
X0109065Y0201600D01*
X0110935Y0201600D01*
X0112662Y0202316D01*
X0113984Y0203638D01*
X0114342Y0204500D01*
X0150746Y0204500D01*
X0151800Y0205554D01*
X0152820Y0206575D01*
X0153483Y0206300D01*
X0152054Y0205708D01*
X0150592Y0204246D01*
X0149800Y0202334D01*
X0149800Y0200266D01*
X0150275Y0199120D01*
X0149254Y0198100D01*
X0114342Y0198100D01*
X0113984Y0198962D01*
X0112662Y0200284D01*
X0110935Y0201000D01*
X0109065Y0201000D01*
X0107338Y0200284D01*
X0106016Y0198962D01*
X0105300Y0197235D01*
X0105300Y0195365D01*
X0106016Y0193638D01*
X0107338Y0192316D01*
X0109065Y0191600D01*
X0110935Y0191600D01*
X0112662Y0192316D01*
X0113984Y0193638D01*
X0114342Y0194500D01*
X0150746Y0194500D01*
X0152820Y0196575D01*
X0153483Y0196300D01*
X0152054Y0195708D01*
X0150592Y0194246D01*
X0149800Y0192334D01*
X0149800Y0190266D01*
X0150275Y0189120D01*
X0149254Y0188100D01*
X0114342Y0188100D01*
X0113984Y0188962D01*
X0112662Y0190284D01*
X0110935Y0191000D01*
X0109065Y0191000D01*
X0107338Y0190284D01*
X0106016Y0188962D01*
X0105300Y0187235D01*
X0105300Y0185365D01*
X0106016Y0183638D01*
X0107338Y0182316D01*
X0109065Y0181600D01*
X0110935Y0181600D01*
X0112662Y0182316D01*
X0113984Y0183638D01*
X0114342Y0184500D01*
X0150746Y0184500D01*
X0151800Y0185554D01*
X0151800Y0185554D01*
X0152820Y0186575D01*
X0153483Y0186300D01*
X0152054Y0185708D01*
X0150592Y0184246D01*
X0149800Y0182334D01*
X0149800Y0180266D01*
X0150275Y0179120D01*
X0149254Y0178100D01*
X0114342Y0178100D01*
X0113984Y0178962D01*
X0112662Y0180284D01*
X0110935Y0181000D01*
X0109065Y0181000D01*
X0107338Y0180284D01*
X0106016Y0178962D01*
X0105300Y0177235D01*
X0105300Y0175365D01*
X0106016Y0173638D01*
X0107338Y0172316D01*
X0109065Y0171600D01*
X0110935Y0171600D01*
X0112662Y0172316D01*
X0113984Y0173638D01*
X0114342Y0174500D01*
X0150746Y0174500D01*
X0151800Y0175554D01*
X0152820Y0176575D01*
X0153483Y0176300D01*
X0152054Y0175708D01*
X0150592Y0174246D01*
X0149800Y0172334D01*
X0149800Y0170266D01*
X0150275Y0169120D01*
X0149254Y0168100D01*
X0114342Y0168100D01*
X0113984Y0168962D01*
X0112662Y0170284D01*
X0110935Y0171000D01*
X0109065Y0171000D01*
X0107338Y0170284D01*
X0106016Y0168962D01*
X0105300Y0167235D01*
X0105300Y0165365D01*
X0106016Y0163638D01*
X0107338Y0162316D01*
X0109065Y0161600D01*
X0110935Y0161600D01*
X0112662Y0162316D01*
X0113984Y0163638D01*
X0114342Y0164500D01*
X0150746Y0164500D01*
X0151800Y0165554D01*
X0152820Y0166575D01*
X0153483Y0166300D01*
X0152054Y0165708D01*
X0150592Y0164246D01*
X0149800Y0162334D01*
X0149800Y0160266D01*
X0150275Y0159120D01*
X0149254Y0158100D01*
X0114342Y0158100D01*
X0113984Y0158962D01*
X0112662Y0160284D01*
X0110935Y0161000D01*
X0109065Y0161000D01*
X0107338Y0160284D01*
X0106016Y0158962D01*
X0105300Y0157235D01*
X0105300Y0155365D01*
X0106016Y0153638D01*
X0107338Y0152316D01*
X0109065Y0151600D01*
X0110935Y0151600D01*
X0112662Y0152316D01*
X0113984Y0153638D01*
X0114342Y0154500D01*
X0150746Y0154500D01*
X0151800Y0155554D01*
X0152820Y0156575D01*
X0153483Y0156300D01*
X0152054Y0155708D01*
X0150592Y0154246D01*
X0149800Y0152334D01*
X0149800Y0150266D01*
X0150275Y0149120D01*
X0138854Y0137700D01*
X0137800Y0136646D01*
X0137800Y0135769D01*
X0136034Y0136500D01*
X0133966Y0136500D01*
X0132054Y0135708D01*
X0130592Y0134246D01*
X0129800Y0132334D01*
X0129800Y0130266D01*
X0130592Y0128354D01*
X0130846Y0128100D01*
X0114342Y0128100D01*
X0113984Y0128962D01*
X0112662Y0130284D01*
X0110935Y0131000D01*
X0109065Y0131000D01*
X0107338Y0130284D01*
X0106016Y0128962D01*
X0105300Y0127235D01*
X0105300Y0125365D01*
X0106016Y0123638D01*
X0107338Y0122316D01*
X0109065Y0121600D01*
X0110935Y0121600D01*
X0112662Y0122316D01*
X0113984Y0123638D01*
X0114342Y0124500D01*
X0137251Y0124500D01*
X0138305Y0125554D01*
X0140849Y0128098D01*
X0142054Y0126892D01*
X0143966Y0126100D01*
X0146034Y0126100D01*
X0147946Y0126892D01*
X0149408Y0128354D01*
X0150200Y0130266D01*
X0150200Y0132334D01*
X0149408Y0134246D01*
X0147946Y0135708D01*
X0146034Y0136500D01*
X0143966Y0136500D01*
X0142054Y0135708D01*
X0141400Y0135054D01*
X0141400Y0135154D01*
X0152820Y0146575D01*
X0153966Y0146100D01*
X0156034Y0146100D01*
X0157946Y0146892D01*
X0159408Y0148354D01*
X0160000Y0149783D01*
X0160000Y0116515D01*
X0159911Y0116567D01*
X0159581Y0116655D01*
X0157209Y0116655D01*
X0157209Y0111600D01*
X0156609Y0111600D01*
X0156609Y0111000D01*
X0153109Y0111000D01*
X0153109Y0107074D01*
X0153198Y0106743D01*
X0153369Y0106447D01*
X0153611Y0106205D01*
X0153908Y0106033D01*
X0154238Y0105945D01*
X0156609Y0105945D01*
X0156609Y0111000D01*
X0157209Y0111000D01*
X0157209Y0105945D01*
X0159581Y0105945D01*
X0159911Y0106033D01*
X0160000Y0106085D01*
X0160000Y0071515D01*
X0159911Y0071567D01*
X0159581Y0071655D01*
X0157209Y0071655D01*
X0157209Y0066600D01*
X0156609Y0066600D01*
X0156609Y0066000D01*
X0153109Y0066000D01*
X0153109Y0062074D01*
X0153198Y0061743D01*
X0153369Y0061447D01*
X0153611Y0061205D01*
X0153908Y0061033D01*
X0154238Y0060945D01*
X0156609Y0060945D01*
X0156609Y0066000D01*
X0157209Y0066000D01*
X0157209Y0060945D01*
X0159581Y0060945D01*
X0159911Y0061033D01*
X0160000Y0061085D01*
X0160000Y0021515D01*
X0159911Y0021567D01*
X0159581Y0021655D01*
X0157209Y0021655D01*
X0157209Y0016600D01*
X0156609Y0016600D01*
X0156609Y0016000D01*
X0153109Y0016000D01*
X0153109Y0012074D01*
X0153198Y0011743D01*
X0153369Y0011447D01*
X0153611Y0011205D01*
X0153908Y0011033D01*
X0154238Y0010945D01*
X0156609Y0010945D01*
X0156609Y0016000D01*
X0157209Y0016000D01*
X0157209Y0010945D01*
X0159581Y0010945D01*
X0159911Y0011033D01*
X0160000Y0011085D01*
X0160000Y0001300D01*
X0160000Y0001899D02*
X0015000Y0001899D01*
X0015000Y0002497D02*
X0160000Y0002497D01*
X0160000Y0003096D02*
X0015000Y0003096D01*
X0015000Y0003694D02*
X0160000Y0003694D01*
X0160000Y0004293D02*
X0015000Y0004293D01*
X0015000Y0004891D02*
X0160000Y0004891D01*
X0160000Y0005490D02*
X0015000Y0005490D01*
X0015000Y0006088D02*
X0160000Y0006088D01*
X0160000Y0006687D02*
X0015000Y0006687D01*
X0015000Y0007285D02*
X0160000Y0007285D01*
X0160000Y0007884D02*
X0015000Y0007884D01*
X0015000Y0008482D02*
X0160000Y0008482D01*
X0160000Y0009081D02*
X0015000Y0009081D01*
X0015000Y0009679D02*
X0160000Y0009679D01*
X0160000Y0010278D02*
X0015000Y0010278D01*
X0015000Y0010876D02*
X0139838Y0010876D01*
X0139969Y0010745D02*
X0146212Y0010745D01*
X0147091Y0011624D01*
X0147091Y0020976D01*
X0146212Y0021855D01*
X0144891Y0021855D01*
X0144891Y0036100D01*
X0146034Y0036100D01*
X0147946Y0036892D01*
X0149408Y0038354D01*
X0150200Y0040266D01*
X0150200Y0042334D01*
X0149408Y0044246D01*
X0147946Y0045708D01*
X0146034Y0046500D01*
X0143966Y0046500D01*
X0142054Y0045708D01*
X0140592Y0044246D01*
X0140000Y0042817D01*
X0139408Y0044246D01*
X0137946Y0045708D01*
X0136034Y0046500D01*
X0133966Y0046500D01*
X0132054Y0045708D01*
X0130592Y0044246D01*
X0129800Y0042334D01*
X0129800Y0040266D01*
X0130592Y0038354D01*
X0132054Y0036892D01*
X0133966Y0036100D01*
X0136034Y0036100D01*
X0137946Y0036892D01*
X0139408Y0038354D01*
X0140000Y0039783D01*
X0140592Y0038354D01*
X0141291Y0037656D01*
X0141291Y0021855D01*
X0139969Y0021855D01*
X0139091Y0020976D01*
X0139091Y0011624D01*
X0139969Y0010745D01*
X0139239Y0011475D02*
X0015000Y0011475D01*
X0015000Y0012073D02*
X0139091Y0012073D01*
X0139091Y0012672D02*
X0015000Y0012672D01*
X0015000Y0013270D02*
X0139091Y0013270D01*
X0139091Y0013869D02*
X0015000Y0013869D01*
X0015000Y0014467D02*
X0139091Y0014467D01*
X0139091Y0015066D02*
X0015000Y0015066D01*
X0015000Y0015664D02*
X0139091Y0015664D01*
X0139091Y0016263D02*
X0015000Y0016263D01*
X0015000Y0016861D02*
X0139091Y0016861D01*
X0139091Y0017460D02*
X0015000Y0017460D01*
X0015000Y0018058D02*
X0139091Y0018058D01*
X0139091Y0018657D02*
X0015000Y0018657D01*
X0015000Y0019255D02*
X0139091Y0019255D01*
X0139091Y0019854D02*
X0015000Y0019854D01*
X0015000Y0020452D02*
X0139091Y0020452D01*
X0139165Y0021051D02*
X0015000Y0021051D01*
X0015000Y0021649D02*
X0139763Y0021649D01*
X0141291Y0022248D02*
X0015000Y0022248D01*
X0015000Y0022846D02*
X0141291Y0022846D01*
X0141291Y0023445D02*
X0015000Y0023445D01*
X0015000Y0024043D02*
X0141291Y0024043D01*
X0141291Y0024642D02*
X0015000Y0024642D01*
X0015000Y0025240D02*
X0141291Y0025240D01*
X0141291Y0025839D02*
X0015000Y0025839D01*
X0015000Y0026437D02*
X0078151Y0026437D01*
X0078966Y0026100D02*
X0081034Y0026100D01*
X0082946Y0026892D01*
X0084408Y0028354D01*
X0085000Y0029783D01*
X0085592Y0028354D01*
X0087054Y0026892D01*
X0088966Y0026100D01*
X0091034Y0026100D01*
X0092946Y0026892D01*
X0094408Y0028354D01*
X0095000Y0029783D01*
X0095592Y0028354D01*
X0097054Y0026892D01*
X0098966Y0026100D01*
X0101034Y0026100D01*
X0102946Y0026892D01*
X0104408Y0028354D01*
X0105200Y0030266D01*
X0105200Y0032334D01*
X0104408Y0034246D01*
X0102946Y0035708D01*
X0101198Y0036432D01*
X0101919Y0036666D01*
X0102621Y0037024D01*
X0103257Y0037486D01*
X0103814Y0038043D01*
X0104276Y0038679D01*
X0104634Y0039381D01*
X0104877Y0040129D01*
X0105000Y0040906D01*
X0105000Y0041000D01*
X0100300Y0041000D01*
X0100300Y0041600D01*
X0105000Y0041600D01*
X0105000Y0041694D01*
X0104877Y0042471D01*
X0104634Y0043219D01*
X0104276Y0043921D01*
X0103814Y0044557D01*
X0103257Y0045114D01*
X0102621Y0045576D01*
X0101919Y0045934D01*
X0101171Y0046177D01*
X0100394Y0046300D01*
X0100300Y0046300D01*
X0100300Y0041600D01*
X0099700Y0041600D01*
X0099700Y0046300D01*
X0099606Y0046300D01*
X0098829Y0046177D01*
X0098081Y0045934D01*
X0097379Y0045576D01*
X0096743Y0045114D01*
X0096186Y0044557D01*
X0095724Y0043921D01*
X0095366Y0043219D01*
X0095132Y0042498D01*
X0094408Y0044246D01*
X0092946Y0045708D01*
X0091800Y0046183D01*
X0091800Y0075554D01*
X0108203Y0091957D01*
X0109065Y0091600D01*
X0110935Y0091600D01*
X0112662Y0092316D01*
X0113984Y0093638D01*
X0114700Y0095365D01*
X0114700Y0097235D01*
X0113984Y0098962D01*
X0112662Y0100284D01*
X0110935Y0101000D01*
X0109065Y0101000D01*
X0107338Y0100284D01*
X0106016Y0098962D01*
X0105300Y0097235D01*
X0105300Y0095365D01*
X0105657Y0094503D01*
X0089254Y0078100D01*
X0088200Y0077046D01*
X0088200Y0046183D01*
X0087200Y0045769D01*
X0087200Y0046646D01*
X0086146Y0047700D01*
X0075535Y0058311D01*
X0075595Y0058311D01*
X0076693Y0058766D01*
X0077534Y0059607D01*
X0077989Y0060705D01*
X0077989Y0061743D01*
X0085746Y0069500D01*
X0086800Y0070554D01*
X0086800Y0100554D01*
X0090746Y0104500D01*
X0105658Y0104500D01*
X0106016Y0103638D01*
X0107338Y0102316D01*
X0109065Y0101600D01*
X0110935Y0101600D01*
X0112662Y0102316D01*
X0113984Y0103638D01*
X0114700Y0105365D01*
X0114700Y0107235D01*
X0113984Y0108962D01*
X0112662Y0110284D01*
X0110935Y0111000D01*
X0109065Y0111000D01*
X0107338Y0110284D01*
X0106016Y0108962D01*
X0105658Y0108100D01*
X0089254Y0108100D01*
X0088200Y0107046D01*
X0083200Y0102046D01*
X0083200Y0099747D01*
X0082662Y0100284D01*
X0080935Y0101000D01*
X0079065Y0101000D01*
X0077338Y0100284D01*
X0076016Y0098962D01*
X0075300Y0097235D01*
X0075300Y0095365D01*
X0076016Y0093638D01*
X0077338Y0092316D01*
X0079065Y0091600D01*
X0080935Y0091600D01*
X0082662Y0092316D01*
X0083200Y0092853D01*
X0083200Y0089747D01*
X0082662Y0090284D01*
X0080935Y0091000D01*
X0079065Y0091000D01*
X0077338Y0090284D01*
X0076016Y0088962D01*
X0075300Y0087235D01*
X0075300Y0085365D01*
X0076016Y0083638D01*
X0077338Y0082316D01*
X0079065Y0081600D01*
X0080935Y0081600D01*
X0082662Y0082316D01*
X0083200Y0082853D01*
X0083200Y0079747D01*
X0082662Y0080284D01*
X0080935Y0081000D01*
X0079065Y0081000D01*
X0077338Y0080284D01*
X0076016Y0078962D01*
X0075300Y0077235D01*
X0075300Y0075365D01*
X0076016Y0073638D01*
X0077338Y0072316D01*
X0079065Y0071600D01*
X0080935Y0071600D01*
X0082662Y0072316D01*
X0083200Y0072853D01*
X0083200Y0072046D01*
X0075443Y0064289D01*
X0074405Y0064289D01*
X0073307Y0063834D01*
X0072500Y0063027D01*
X0071693Y0063834D01*
X0070595Y0064289D01*
X0069405Y0064289D01*
X0068307Y0063834D01*
X0067466Y0062993D01*
X0067011Y0061895D01*
X0067011Y0060705D01*
X0067466Y0059607D01*
X0068273Y0058800D01*
X0067466Y0057993D01*
X0067011Y0056895D01*
X0067011Y0055705D01*
X0067466Y0054607D01*
X0068200Y0053873D01*
X0068200Y0052046D01*
X0065443Y0049289D01*
X0064405Y0049289D01*
X0063307Y0048834D01*
X0062466Y0047993D01*
X0062011Y0046895D01*
X0062011Y0045705D01*
X0062466Y0044607D01*
X0063307Y0043766D01*
X0064405Y0043311D01*
X0065595Y0043311D01*
X0066693Y0043766D01*
X0067534Y0044607D01*
X0067989Y0045705D01*
X0067989Y0046743D01*
X0070746Y0049500D01*
X0071800Y0050554D01*
X0071800Y0053873D01*
X0072534Y0054607D01*
X0072989Y0055705D01*
X0072989Y0055765D01*
X0083600Y0045154D01*
X0083600Y0045054D01*
X0082946Y0045708D01*
X0081034Y0046500D01*
X0078966Y0046500D01*
X0077054Y0045708D01*
X0075592Y0044246D01*
X0074800Y0042334D01*
X0074800Y0040266D01*
X0075592Y0038354D01*
X0077054Y0036892D01*
X0078483Y0036300D01*
X0077054Y0035708D01*
X0075592Y0034246D01*
X0074800Y0032334D01*
X0074800Y0030266D01*
X0075592Y0028354D01*
X0077054Y0026892D01*
X0078966Y0026100D01*
X0076910Y0027036D02*
X0015000Y0027036D01*
X0015000Y0027634D02*
X0076312Y0027634D01*
X0075713Y0028233D02*
X0015000Y0028233D01*
X0015000Y0028832D02*
X0075394Y0028832D01*
X0075146Y0029430D02*
X0015000Y0029430D01*
X0015000Y0030029D02*
X0074898Y0030029D01*
X0074800Y0030627D02*
X0015000Y0030627D01*
X0015000Y0031226D02*
X0074800Y0031226D01*
X0074800Y0031824D02*
X0015000Y0031824D01*
X0015000Y0032423D02*
X0074837Y0032423D01*
X0075084Y0033021D02*
X0015000Y0033021D01*
X0015000Y0033620D02*
X0075332Y0033620D01*
X0075580Y0034218D02*
X0015000Y0034218D01*
X0015000Y0034817D02*
X0076163Y0034817D01*
X0076761Y0035415D02*
X0015000Y0035415D01*
X0015000Y0036014D02*
X0077792Y0036014D01*
X0077729Y0036612D02*
X0015000Y0036612D01*
X0015000Y0037211D02*
X0076735Y0037211D01*
X0076137Y0037809D02*
X0015000Y0037809D01*
X0015000Y0038408D02*
X0075570Y0038408D01*
X0075322Y0039006D02*
X0015000Y0039006D01*
X0015000Y0039605D02*
X0075074Y0039605D01*
X0074826Y0040203D02*
X0015000Y0040203D01*
X0015000Y0040802D02*
X0074800Y0040802D01*
X0074800Y0041400D02*
X0015000Y0041400D01*
X0015000Y0041999D02*
X0074800Y0041999D01*
X0074909Y0042597D02*
X0015000Y0042597D01*
X0015000Y0043196D02*
X0075157Y0043196D01*
X0075405Y0043794D02*
X0066721Y0043794D01*
X0067320Y0044393D02*
X0075739Y0044393D01*
X0076337Y0044991D02*
X0067693Y0044991D01*
X0067941Y0045590D02*
X0076936Y0045590D01*
X0078213Y0046188D02*
X0067989Y0046188D01*
X0068032Y0046787D02*
X0081968Y0046787D01*
X0081787Y0046188D02*
X0082566Y0046188D01*
X0083064Y0045590D02*
X0083165Y0045590D01*
X0085400Y0045900D02*
X0085400Y0039395D01*
X0088095Y0036700D01*
X0094600Y0036700D01*
X0100000Y0031300D01*
X0096312Y0027634D02*
X0093688Y0027634D01*
X0093090Y0027036D02*
X0096910Y0027036D01*
X0098151Y0026437D02*
X0091849Y0026437D01*
X0094287Y0028233D02*
X0095713Y0028233D01*
X0095394Y0028832D02*
X0094606Y0028832D01*
X0094854Y0029430D02*
X0095146Y0029430D01*
X0088151Y0026437D02*
X0081849Y0026437D01*
X0083090Y0027036D02*
X0086910Y0027036D01*
X0086312Y0027634D02*
X0083688Y0027634D01*
X0084287Y0028233D02*
X0085713Y0028233D01*
X0085394Y0028832D02*
X0084606Y0028832D01*
X0084854Y0029430D02*
X0085146Y0029430D01*
X0090000Y0041300D02*
X0090000Y0076300D01*
X0110000Y0096300D01*
X0112892Y0100054D02*
X0160000Y0100054D01*
X0160000Y0099456D02*
X0113491Y0099456D01*
X0114028Y0098857D02*
X0160000Y0098857D01*
X0160000Y0098259D02*
X0114276Y0098259D01*
X0114524Y0097660D02*
X0160000Y0097660D01*
X0160000Y0097062D02*
X0114700Y0097062D01*
X0114700Y0096463D02*
X0160000Y0096463D01*
X0160000Y0095865D02*
X0114700Y0095865D01*
X0114659Y0095266D02*
X0160000Y0095266D01*
X0160000Y0094668D02*
X0114411Y0094668D01*
X0114163Y0094069D02*
X0160000Y0094069D01*
X0160000Y0093471D02*
X0113818Y0093471D01*
X0113219Y0092872D02*
X0160000Y0092872D01*
X0160000Y0092274D02*
X0112561Y0092274D01*
X0111116Y0091675D02*
X0160000Y0091675D01*
X0160000Y0091077D02*
X0147056Y0091077D01*
X0147946Y0090708D02*
X0146034Y0091500D01*
X0143966Y0091500D01*
X0142054Y0090708D01*
X0140592Y0089246D01*
X0140000Y0087817D01*
X0139408Y0089246D01*
X0137946Y0090708D01*
X0136034Y0091500D01*
X0133966Y0091500D01*
X0132054Y0090708D01*
X0130592Y0089246D01*
X0129800Y0087334D01*
X0129800Y0085266D01*
X0130275Y0084120D01*
X0124254Y0078100D01*
X0114342Y0078100D01*
X0113984Y0078962D01*
X0112662Y0080284D01*
X0110935Y0081000D01*
X0109065Y0081000D01*
X0107338Y0080284D01*
X0106016Y0078962D01*
X0105300Y0077235D01*
X0105300Y0075365D01*
X0106016Y0073638D01*
X0107338Y0072316D01*
X0109065Y0071600D01*
X0110935Y0071600D01*
X0112662Y0072316D01*
X0113984Y0073638D01*
X0114342Y0074500D01*
X0125746Y0074500D01*
X0126800Y0075554D01*
X0132820Y0081575D01*
X0133966Y0081100D01*
X0136034Y0081100D01*
X0137946Y0081892D01*
X0139408Y0083354D01*
X0140000Y0084783D01*
X0140592Y0083354D01*
X0142054Y0081892D01*
X0143200Y0081417D01*
X0143200Y0071855D01*
X0139969Y0071855D01*
X0139091Y0070976D01*
X0139091Y0061624D01*
X0139969Y0060745D01*
X0146212Y0060745D01*
X0147091Y0061624D01*
X0147091Y0070976D01*
X0146800Y0071267D01*
X0146800Y0081417D01*
X0147946Y0081892D01*
X0149408Y0083354D01*
X0150200Y0085266D01*
X0150200Y0087334D01*
X0149408Y0089246D01*
X0147946Y0090708D01*
X0148176Y0090478D02*
X0160000Y0090478D01*
X0160000Y0089880D02*
X0148774Y0089880D01*
X0149373Y0089281D02*
X0160000Y0089281D01*
X0160000Y0088683D02*
X0149642Y0088683D01*
X0149889Y0088084D02*
X0160000Y0088084D01*
X0160000Y0087486D02*
X0150137Y0087486D01*
X0150200Y0086887D02*
X0160000Y0086887D01*
X0160000Y0086289D02*
X0150200Y0086289D01*
X0150200Y0085690D02*
X0160000Y0085690D01*
X0160000Y0085092D02*
X0150128Y0085092D01*
X0149880Y0084493D02*
X0160000Y0084493D01*
X0160000Y0083895D02*
X0149632Y0083895D01*
X0149350Y0083296D02*
X0160000Y0083296D01*
X0160000Y0082698D02*
X0148751Y0082698D01*
X0148153Y0082099D02*
X0160000Y0082099D01*
X0160000Y0081501D02*
X0147001Y0081501D01*
X0146800Y0080902D02*
X0160000Y0080902D01*
X0160000Y0080303D02*
X0146800Y0080303D01*
X0146800Y0079705D02*
X0160000Y0079705D01*
X0160000Y0079106D02*
X0146800Y0079106D01*
X0146800Y0078508D02*
X0160000Y0078508D01*
X0160000Y0077909D02*
X0146800Y0077909D01*
X0146800Y0077311D02*
X0160000Y0077311D01*
X0160000Y0076712D02*
X0146800Y0076712D01*
X0146800Y0076114D02*
X0160000Y0076114D01*
X0160000Y0075515D02*
X0146800Y0075515D01*
X0146800Y0074917D02*
X0160000Y0074917D01*
X0160000Y0074318D02*
X0146800Y0074318D01*
X0146800Y0073720D02*
X0160000Y0073720D01*
X0160000Y0073121D02*
X0146800Y0073121D01*
X0146800Y0072523D02*
X0160000Y0072523D01*
X0160000Y0071924D02*
X0146800Y0071924D01*
X0146800Y0071326D02*
X0153542Y0071326D01*
X0153611Y0071395D02*
X0153369Y0071153D01*
X0153198Y0070857D01*
X0153109Y0070526D01*
X0153109Y0066600D01*
X0156609Y0066600D01*
X0156609Y0071655D01*
X0154238Y0071655D01*
X0153908Y0071567D01*
X0153611Y0071395D01*
X0153163Y0070727D02*
X0147091Y0070727D01*
X0147091Y0070129D02*
X0153109Y0070129D01*
X0153109Y0069530D02*
X0147091Y0069530D01*
X0147091Y0068932D02*
X0153109Y0068932D01*
X0153109Y0068333D02*
X0147091Y0068333D01*
X0147091Y0067735D02*
X0153109Y0067735D01*
X0153109Y0067136D02*
X0147091Y0067136D01*
X0147091Y0066538D02*
X0156609Y0066538D01*
X0156909Y0066300D02*
X0156909Y0111300D01*
X0146009Y0122200D01*
X0108302Y0122200D01*
X0105900Y0124602D01*
X0105900Y0127998D01*
X0108302Y0130400D01*
X0109898Y0130400D01*
X0114100Y0134602D01*
X0114100Y0142200D01*
X0110000Y0146300D01*
X0090000Y0146300D01*
X0080000Y0136300D01*
X0057283Y0136300D01*
X0055290Y0134306D01*
X0055290Y0125084D01*
X0026905Y0096700D01*
X0023895Y0096700D01*
X0020400Y0093205D01*
X0020400Y0089395D01*
X0025000Y0084795D01*
X0025000Y0081300D01*
X0025300Y0081501D02*
X0083200Y0081501D01*
X0083200Y0082099D02*
X0082140Y0082099D01*
X0083044Y0082698D02*
X0083200Y0082698D01*
X0083200Y0080902D02*
X0081171Y0080902D01*
X0082616Y0080303D02*
X0083200Y0080303D01*
X0086800Y0080303D02*
X0091458Y0080303D01*
X0090859Y0079705D02*
X0086800Y0079705D01*
X0086800Y0079106D02*
X0090261Y0079106D01*
X0089662Y0078508D02*
X0086800Y0078508D01*
X0086800Y0077909D02*
X0089064Y0077909D01*
X0088465Y0077311D02*
X0086800Y0077311D01*
X0086800Y0076712D02*
X0088200Y0076712D01*
X0088200Y0076114D02*
X0086800Y0076114D01*
X0086800Y0075515D02*
X0088200Y0075515D01*
X0088200Y0074917D02*
X0086800Y0074917D01*
X0086800Y0074318D02*
X0088200Y0074318D01*
X0088200Y0073720D02*
X0086800Y0073720D01*
X0086800Y0073121D02*
X0088200Y0073121D01*
X0088200Y0072523D02*
X0086800Y0072523D01*
X0086800Y0071924D02*
X0088200Y0071924D01*
X0088200Y0071326D02*
X0086800Y0071326D01*
X0086800Y0070727D02*
X0088200Y0070727D01*
X0088200Y0070129D02*
X0086374Y0070129D01*
X0085776Y0069530D02*
X0088200Y0069530D01*
X0088200Y0068932D02*
X0085177Y0068932D01*
X0084579Y0068333D02*
X0088200Y0068333D01*
X0088200Y0067735D02*
X0083980Y0067735D01*
X0083382Y0067136D02*
X0088200Y0067136D01*
X0088200Y0066538D02*
X0082783Y0066538D01*
X0082185Y0065939D02*
X0088200Y0065939D01*
X0088200Y0065341D02*
X0081586Y0065341D01*
X0080988Y0064742D02*
X0088200Y0064742D01*
X0088200Y0064144D02*
X0080389Y0064144D01*
X0079791Y0063545D02*
X0088200Y0063545D01*
X0088200Y0062947D02*
X0079192Y0062947D01*
X0078594Y0062348D02*
X0088200Y0062348D01*
X0088200Y0061750D02*
X0077995Y0061750D01*
X0077989Y0061151D02*
X0088200Y0061151D01*
X0088200Y0060553D02*
X0077926Y0060553D01*
X0077678Y0059954D02*
X0088200Y0059954D01*
X0088200Y0059356D02*
X0077283Y0059356D01*
X0076671Y0058757D02*
X0088200Y0058757D01*
X0088200Y0058159D02*
X0075687Y0058159D01*
X0076286Y0057560D02*
X0088200Y0057560D01*
X0088200Y0056962D02*
X0076884Y0056962D01*
X0077483Y0056363D02*
X0088200Y0056363D01*
X0088200Y0055765D02*
X0078081Y0055765D01*
X0078680Y0055166D02*
X0088200Y0055166D01*
X0088200Y0054568D02*
X0079278Y0054568D01*
X0079877Y0053969D02*
X0088200Y0053969D01*
X0088200Y0053370D02*
X0080475Y0053370D01*
X0081074Y0052772D02*
X0088200Y0052772D01*
X0088200Y0052173D02*
X0081672Y0052173D01*
X0082271Y0051575D02*
X0088200Y0051575D01*
X0088200Y0050976D02*
X0082869Y0050976D01*
X0083468Y0050378D02*
X0088200Y0050378D01*
X0088200Y0049779D02*
X0084066Y0049779D01*
X0084665Y0049181D02*
X0088200Y0049181D01*
X0088200Y0048582D02*
X0085263Y0048582D01*
X0085862Y0047984D02*
X0088200Y0047984D01*
X0088200Y0047385D02*
X0086460Y0047385D01*
X0087059Y0046787D02*
X0088200Y0046787D01*
X0088200Y0046188D02*
X0087200Y0046188D01*
X0085400Y0045900D02*
X0070000Y0061300D01*
X0071982Y0063545D02*
X0073018Y0063545D01*
X0074055Y0064144D02*
X0070945Y0064144D01*
X0069055Y0064144D02*
X0015000Y0064144D01*
X0015000Y0064742D02*
X0075897Y0064742D01*
X0076495Y0065341D02*
X0015000Y0065341D01*
X0015000Y0065939D02*
X0077094Y0065939D01*
X0077692Y0066538D02*
X0015000Y0066538D01*
X0015000Y0067136D02*
X0078291Y0067136D01*
X0078889Y0067735D02*
X0015000Y0067735D01*
X0015000Y0068333D02*
X0079488Y0068333D01*
X0080086Y0068932D02*
X0015000Y0068932D01*
X0015000Y0069530D02*
X0080685Y0069530D01*
X0081283Y0070129D02*
X0015000Y0070129D01*
X0015000Y0070727D02*
X0081882Y0070727D01*
X0082480Y0071326D02*
X0015000Y0071326D01*
X0015000Y0071924D02*
X0078282Y0071924D01*
X0077130Y0072523D02*
X0015000Y0072523D01*
X0015000Y0073121D02*
X0076532Y0073121D01*
X0075981Y0073720D02*
X0015000Y0073720D01*
X0015000Y0074318D02*
X0075734Y0074318D01*
X0075486Y0074917D02*
X0015000Y0074917D01*
X0015000Y0075515D02*
X0075300Y0075515D01*
X0075300Y0076114D02*
X0015000Y0076114D01*
X0015000Y0076712D02*
X0022990Y0076712D01*
X0023081Y0076666D02*
X0023829Y0076423D01*
X0024606Y0076300D01*
X0024700Y0076300D01*
X0024700Y0081000D01*
X0025300Y0081000D01*
X0025300Y0081600D01*
X0030000Y0081600D01*
X0030000Y0081694D01*
X0029877Y0082471D01*
X0029634Y0083219D01*
X0029276Y0083921D01*
X0028814Y0084557D01*
X0028257Y0085114D01*
X0027621Y0085576D01*
X0026919Y0085934D01*
X0026198Y0086168D01*
X0027946Y0086892D01*
X0029408Y0088354D01*
X0030200Y0090266D01*
X0030200Y0092334D01*
X0029408Y0094246D01*
X0027946Y0095708D01*
X0026517Y0096300D01*
X0027946Y0096892D01*
X0029408Y0098354D01*
X0030200Y0100266D01*
X0030200Y0102334D01*
X0029725Y0103480D01*
X0053462Y0127217D01*
X0054517Y0128271D01*
X0054517Y0133028D01*
X0055011Y0133028D01*
X0055259Y0133277D01*
X0055439Y0133228D01*
X0056983Y0133228D01*
X0056983Y0136000D01*
X0057583Y0136000D01*
X0057583Y0133228D01*
X0059128Y0133228D01*
X0059458Y0133317D01*
X0059755Y0133488D01*
X0059997Y0133730D01*
X0060168Y0134027D01*
X0060257Y0134357D01*
X0060257Y0136000D01*
X0057584Y0136000D01*
X0057584Y0136600D01*
X0060257Y0136600D01*
X0060257Y0138243D01*
X0060168Y0138573D01*
X0059997Y0138870D01*
X0059755Y0139112D01*
X0059458Y0139283D01*
X0059128Y0139372D01*
X0058183Y0139372D01*
X0063311Y0144500D01*
X0075658Y0144500D01*
X0076016Y0143638D01*
X0077338Y0142316D01*
X0079065Y0141600D01*
X0080935Y0141600D01*
X0082662Y0142316D01*
X0083984Y0143638D01*
X0084700Y0145365D01*
X0084700Y0147235D01*
X0083984Y0148962D01*
X0082662Y0150284D01*
X0080935Y0151000D01*
X0079065Y0151000D01*
X0077338Y0150284D01*
X0076016Y0148962D01*
X0075658Y0148100D01*
X0066800Y0148100D01*
X0066800Y0148873D01*
X0067534Y0149607D01*
X0067989Y0150705D01*
X0067989Y0151895D01*
X0067534Y0152993D01*
X0066693Y0153834D01*
X0065595Y0154289D01*
X0064736Y0154289D01*
X0075450Y0165003D01*
X0076016Y0163638D01*
X0077338Y0162316D01*
X0079065Y0161600D01*
X0080935Y0161600D01*
X0082662Y0162316D01*
X0083984Y0163638D01*
X0084700Y0165365D01*
X0084700Y0167235D01*
X0083984Y0168962D01*
X0082662Y0170284D01*
X0082426Y0170382D01*
X0084846Y0172802D01*
X0085900Y0173856D01*
X0085900Y0188744D01*
X0084846Y0189798D01*
X0082426Y0192218D01*
X0082662Y0192316D01*
X0083984Y0193638D01*
X0084700Y0195365D01*
X0084700Y0197235D01*
X0083984Y0198962D01*
X0082662Y0200284D01*
X0080935Y0201000D01*
X0079065Y0201000D01*
X0077338Y0200284D01*
X0076016Y0198962D01*
X0075300Y0197235D01*
X0075300Y0195365D01*
X0076016Y0193638D01*
X0077338Y0192316D01*
X0078200Y0191958D01*
X0078200Y0191353D01*
X0078703Y0190850D01*
X0077338Y0190284D01*
X0076016Y0188962D01*
X0075300Y0187235D01*
X0075300Y0185365D01*
X0076016Y0183638D01*
X0077338Y0182316D01*
X0077574Y0182218D01*
X0074100Y0178744D01*
X0074100Y0172946D01*
X0045457Y0144302D01*
X0045457Y0148311D01*
X0045595Y0148311D01*
X0046693Y0148766D01*
X0047534Y0149607D01*
X0047989Y0150705D01*
X0047989Y0151895D01*
X0047534Y0152993D01*
X0046693Y0153834D01*
X0045595Y0154289D01*
X0044405Y0154289D01*
X0043307Y0153834D01*
X0042466Y0152993D01*
X0042011Y0151895D01*
X0042011Y0150857D01*
X0041217Y0150063D01*
X0041035Y0150244D01*
X0030535Y0160745D01*
X0031212Y0160745D01*
X0032091Y0161624D01*
X0032091Y0164500D01*
X0033336Y0164500D01*
X0038291Y0159545D01*
X0045528Y0159545D01*
X0057272Y0171289D01*
X0058326Y0172343D01*
X0058326Y0182080D01*
X0078203Y0201957D01*
X0079065Y0201600D01*
X0080935Y0201600D01*
X0082662Y0202316D01*
X0083984Y0203638D01*
X0084700Y0205365D01*
X0084700Y0207235D01*
X0083984Y0208962D01*
X0082662Y0210284D01*
X0080935Y0211000D01*
X0079065Y0211000D01*
X0077338Y0210284D01*
X0076016Y0208962D01*
X0075300Y0207235D01*
X0075300Y0205365D01*
X0075657Y0204503D01*
X0056654Y0185499D01*
X0056803Y0186152D01*
X0056926Y0187246D01*
X0056926Y0187496D01*
X0047426Y0187496D01*
X0047426Y0177996D01*
X0047676Y0177996D01*
X0048770Y0178119D01*
X0049843Y0178364D01*
X0050882Y0178728D01*
X0051874Y0179205D01*
X0052806Y0179791D01*
X0053666Y0180477D01*
X0054445Y0181256D01*
X0054726Y0181608D01*
X0054726Y0173834D01*
X0052930Y0172038D01*
X0052534Y0172993D01*
X0051693Y0173834D01*
X0050595Y0174289D01*
X0049405Y0174289D01*
X0048307Y0173834D01*
X0047573Y0173100D01*
X0046164Y0173100D01*
X0045109Y0172046D01*
X0044919Y0171855D01*
X0043709Y0171855D01*
X0043709Y0178609D01*
X0044409Y0178364D01*
X0045482Y0178119D01*
X0046576Y0177996D01*
X0046826Y0177996D01*
X0046826Y0187496D01*
X0047426Y0187496D01*
X0047426Y0188096D01*
X0056926Y0188096D01*
X0056926Y0188346D01*
X0056803Y0189440D01*
X0056558Y0190513D01*
X0056194Y0191552D01*
X0055717Y0192544D01*
X0055131Y0193476D01*
X0054445Y0194337D01*
X0053666Y0195115D01*
X0052806Y0195801D01*
X0051874Y0196387D01*
X0051668Y0196486D01*
X0053139Y0197956D01*
X0053272Y0197822D01*
X0056948Y0196300D01*
X0060926Y0196300D01*
X0064602Y0197822D01*
X0067415Y0200635D01*
X0068937Y0204311D01*
X0068937Y0208289D01*
X0067415Y0211965D01*
X0064602Y0214778D01*
X0060926Y0216300D01*
X0056948Y0216300D01*
X0053272Y0214778D01*
X0050459Y0211965D01*
X0048937Y0208289D01*
X0048937Y0204311D01*
X0050459Y0200635D01*
X0050593Y0200502D01*
X0049087Y0198996D01*
X0042487Y0198996D01*
X0041432Y0197942D01*
X0035926Y0192435D01*
X0035926Y0183157D01*
X0036980Y0182102D01*
X0040109Y0178973D01*
X0040109Y0171855D01*
X0038788Y0171855D01*
X0037909Y0170976D01*
X0037909Y0165018D01*
X0034827Y0168100D01*
X0032091Y0168100D01*
X0032091Y0170976D01*
X0031212Y0171855D01*
X0024969Y0171855D01*
X0024091Y0170976D01*
X0024091Y0161624D01*
X0024969Y0160745D01*
X0026291Y0160745D01*
X0026291Y0159898D01*
X0036617Y0149572D01*
X0035422Y0149572D01*
X0034543Y0148693D01*
X0034543Y0143907D01*
X0034802Y0143648D01*
X0027180Y0136025D01*
X0026034Y0136500D01*
X0023966Y0136500D01*
X0022054Y0135708D01*
X0020592Y0134246D01*
X0019800Y0132334D01*
X0019800Y0130266D01*
X0020592Y0128354D01*
X0022054Y0126892D01*
X0023483Y0126300D01*
X0022054Y0125708D01*
X0020592Y0124246D01*
X0019800Y0122334D01*
X0019800Y0120266D01*
X0020592Y0118354D01*
X0022054Y0116892D01*
X0023483Y0116300D01*
X0022054Y0115708D01*
X0020592Y0114246D01*
X0019800Y0112334D01*
X0019800Y0110266D01*
X0020592Y0108354D01*
X0022054Y0106892D01*
X0023483Y0106300D01*
X0022054Y0105708D01*
X0020592Y0104246D01*
X0019800Y0102334D01*
X0019800Y0100266D01*
X0020592Y0098354D01*
X0022054Y0096892D01*
X0023483Y0096300D01*
X0022054Y0095708D01*
X0020592Y0094246D01*
X0019800Y0092334D01*
X0019800Y0090266D01*
X0020592Y0088354D01*
X0022054Y0086892D01*
X0023802Y0086168D01*
X0023081Y0085934D01*
X0022379Y0085576D01*
X0021743Y0085114D01*
X0021186Y0084557D01*
X0020724Y0083921D01*
X0020366Y0083219D01*
X0020123Y0082471D01*
X0020000Y0081694D01*
X0020000Y0081600D01*
X0024700Y0081600D01*
X0024700Y0086100D01*
X0025300Y0086100D01*
X0025300Y0081600D01*
X0024700Y0081600D01*
X0024700Y0081000D01*
X0020000Y0081000D01*
X0020000Y0080906D01*
X0020123Y0080129D01*
X0020366Y0079381D01*
X0020724Y0078679D01*
X0021186Y0078043D01*
X0021743Y0077486D01*
X0022379Y0077024D01*
X0023081Y0076666D01*
X0021984Y0077311D02*
X0015000Y0077311D01*
X0015000Y0077909D02*
X0021319Y0077909D01*
X0020848Y0078508D02*
X0015000Y0078508D01*
X0015000Y0079106D02*
X0020506Y0079106D01*
X0020261Y0079705D02*
X0015000Y0079705D01*
X0015000Y0080303D02*
X0020095Y0080303D01*
X0020001Y0080902D02*
X0015000Y0080902D01*
X0015000Y0081501D02*
X0024700Y0081501D01*
X0024700Y0082099D02*
X0025300Y0082099D01*
X0025300Y0082698D02*
X0024700Y0082698D01*
X0024700Y0083296D02*
X0025300Y0083296D01*
X0025300Y0083895D02*
X0024700Y0083895D01*
X0024700Y0084493D02*
X0025300Y0084493D01*
X0025300Y0085092D02*
X0024700Y0085092D01*
X0024700Y0085690D02*
X0025300Y0085690D01*
X0026490Y0086289D02*
X0075300Y0086289D01*
X0075300Y0086887D02*
X0027935Y0086887D01*
X0028540Y0087486D02*
X0075404Y0087486D01*
X0075652Y0088084D02*
X0029138Y0088084D01*
X0029544Y0088683D02*
X0075900Y0088683D01*
X0076334Y0089281D02*
X0029792Y0089281D01*
X0030040Y0089880D02*
X0076933Y0089880D01*
X0077805Y0090478D02*
X0030200Y0090478D01*
X0030200Y0091077D02*
X0083200Y0091077D01*
X0083200Y0091675D02*
X0081116Y0091675D01*
X0082561Y0092274D02*
X0083200Y0092274D01*
X0083200Y0090478D02*
X0082195Y0090478D01*
X0083067Y0089880D02*
X0083200Y0089880D01*
X0086800Y0089880D02*
X0101034Y0089880D01*
X0101633Y0090478D02*
X0086800Y0090478D01*
X0086800Y0091077D02*
X0102231Y0091077D01*
X0102830Y0091675D02*
X0086800Y0091675D01*
X0086800Y0092274D02*
X0103428Y0092274D01*
X0104027Y0092872D02*
X0086800Y0092872D01*
X0086800Y0093471D02*
X0104625Y0093471D01*
X0105224Y0094069D02*
X0086800Y0094069D01*
X0086800Y0094668D02*
X0105589Y0094668D01*
X0105341Y0095266D02*
X0086800Y0095266D01*
X0086800Y0095865D02*
X0105300Y0095865D01*
X0105300Y0096463D02*
X0086800Y0096463D01*
X0086800Y0097062D02*
X0105300Y0097062D01*
X0105476Y0097660D02*
X0086800Y0097660D01*
X0086800Y0098259D02*
X0105724Y0098259D01*
X0105972Y0098857D02*
X0086800Y0098857D01*
X0086800Y0099456D02*
X0106509Y0099456D01*
X0107108Y0100054D02*
X0086800Y0100054D01*
X0086898Y0100653D02*
X0108227Y0100653D01*
X0108462Y0101850D02*
X0088095Y0101850D01*
X0087497Y0101251D02*
X0160000Y0101251D01*
X0160000Y0100653D02*
X0111773Y0100653D01*
X0111538Y0101850D02*
X0160000Y0101850D01*
X0160000Y0102448D02*
X0112795Y0102448D01*
X0113394Y0103047D02*
X0160000Y0103047D01*
X0160000Y0103645D02*
X0113988Y0103645D01*
X0114236Y0104244D02*
X0160000Y0104244D01*
X0160000Y0104842D02*
X0114484Y0104842D01*
X0114700Y0105441D02*
X0160000Y0105441D01*
X0160000Y0106039D02*
X0159922Y0106039D01*
X0157209Y0106039D02*
X0156609Y0106039D01*
X0156609Y0106638D02*
X0157209Y0106638D01*
X0157209Y0107237D02*
X0156609Y0107237D01*
X0156609Y0107835D02*
X0157209Y0107835D01*
X0157209Y0108434D02*
X0156609Y0108434D01*
X0156609Y0109032D02*
X0157209Y0109032D01*
X0157209Y0109631D02*
X0156609Y0109631D01*
X0156609Y0110229D02*
X0157209Y0110229D01*
X0157209Y0110828D02*
X0156609Y0110828D01*
X0156609Y0111426D02*
X0147091Y0111426D01*
X0147091Y0110828D02*
X0153109Y0110828D01*
X0153109Y0110229D02*
X0147091Y0110229D01*
X0147091Y0109631D02*
X0153109Y0109631D01*
X0153109Y0109032D02*
X0147091Y0109032D01*
X0147091Y0108434D02*
X0153109Y0108434D01*
X0153109Y0107835D02*
X0147091Y0107835D01*
X0147091Y0107237D02*
X0153109Y0107237D01*
X0153259Y0106638D02*
X0147091Y0106638D01*
X0147091Y0106624D02*
X0147091Y0115976D01*
X0146212Y0116855D01*
X0139969Y0116855D01*
X0139091Y0115976D01*
X0139091Y0106624D01*
X0139969Y0105745D01*
X0146212Y0105745D01*
X0147091Y0106624D01*
X0146506Y0106039D02*
X0153897Y0106039D01*
X0153109Y0111600D02*
X0156609Y0111600D01*
X0156609Y0116655D01*
X0154238Y0116655D01*
X0153908Y0116567D01*
X0153611Y0116395D01*
X0153369Y0116153D01*
X0153198Y0115857D01*
X0153109Y0115526D01*
X0153109Y0111600D01*
X0153109Y0112025D02*
X0147091Y0112025D01*
X0147091Y0112623D02*
X0153109Y0112623D01*
X0153109Y0113222D02*
X0147091Y0113222D01*
X0147091Y0113820D02*
X0153109Y0113820D01*
X0153109Y0114419D02*
X0147091Y0114419D01*
X0147091Y0115017D02*
X0153109Y0115017D01*
X0153133Y0115616D02*
X0147091Y0115616D01*
X0146853Y0116214D02*
X0153430Y0116214D01*
X0156609Y0116214D02*
X0157209Y0116214D01*
X0157209Y0115616D02*
X0156609Y0115616D01*
X0156609Y0115017D02*
X0157209Y0115017D01*
X0157209Y0114419D02*
X0156609Y0114419D01*
X0156609Y0113820D02*
X0157209Y0113820D01*
X0157209Y0113222D02*
X0156609Y0113222D01*
X0156609Y0112623D02*
X0157209Y0112623D01*
X0157209Y0112025D02*
X0156609Y0112025D01*
X0160000Y0116813D02*
X0146254Y0116813D01*
X0139927Y0116813D02*
X0114700Y0116813D01*
X0114700Y0117235D02*
X0113984Y0118962D01*
X0112662Y0120284D01*
X0110935Y0121000D01*
X0109065Y0121000D01*
X0107338Y0120284D01*
X0106016Y0118962D01*
X0105300Y0117235D01*
X0105300Y0115365D01*
X0106016Y0113638D01*
X0107338Y0112316D01*
X0109065Y0111600D01*
X0110935Y0111600D01*
X0112662Y0112316D01*
X0113984Y0113638D01*
X0114700Y0115365D01*
X0114700Y0117235D01*
X0114627Y0117411D02*
X0160000Y0117411D01*
X0160000Y0118010D02*
X0114379Y0118010D01*
X0114131Y0118608D02*
X0160000Y0118608D01*
X0160000Y0119207D02*
X0113740Y0119207D01*
X0113142Y0119805D02*
X0160000Y0119805D01*
X0160000Y0120404D02*
X0112374Y0120404D01*
X0112382Y0122199D02*
X0160000Y0122199D01*
X0160000Y0121601D02*
X0110937Y0121601D01*
X0109063Y0121601D02*
X0080937Y0121601D01*
X0080935Y0121600D02*
X0082662Y0122316D01*
X0083984Y0123638D01*
X0084700Y0125365D01*
X0084700Y0127235D01*
X0083984Y0128962D01*
X0082662Y0130284D01*
X0080935Y0131000D01*
X0079065Y0131000D01*
X0077338Y0130284D01*
X0076016Y0128962D01*
X0075300Y0127235D01*
X0075300Y0125365D01*
X0076016Y0123638D01*
X0077338Y0122316D01*
X0079065Y0121600D01*
X0080935Y0121600D01*
X0080935Y0121000D02*
X0079065Y0121000D01*
X0077338Y0120284D01*
X0076016Y0118962D01*
X0075300Y0117235D01*
X0075300Y0115365D01*
X0076016Y0113638D01*
X0077338Y0112316D01*
X0079065Y0111600D01*
X0080935Y0111600D01*
X0082662Y0112316D01*
X0083984Y0113638D01*
X0084700Y0115365D01*
X0084700Y0117235D01*
X0083984Y0118962D01*
X0082662Y0120284D01*
X0080935Y0121000D01*
X0082374Y0120404D02*
X0107626Y0120404D01*
X0106858Y0119805D02*
X0083142Y0119805D01*
X0083740Y0119207D02*
X0106260Y0119207D01*
X0105869Y0118608D02*
X0084131Y0118608D01*
X0084379Y0118010D02*
X0105621Y0118010D01*
X0105373Y0117411D02*
X0084627Y0117411D01*
X0084700Y0116813D02*
X0105300Y0116813D01*
X0105300Y0116214D02*
X0084700Y0116214D01*
X0084700Y0115616D02*
X0105300Y0115616D01*
X0105444Y0115017D02*
X0084556Y0115017D01*
X0084308Y0114419D02*
X0105692Y0114419D01*
X0105940Y0113820D02*
X0084060Y0113820D01*
X0083568Y0113222D02*
X0106432Y0113222D01*
X0107030Y0112623D02*
X0082970Y0112623D01*
X0081960Y0112025D02*
X0108040Y0112025D01*
X0108649Y0110828D02*
X0081351Y0110828D01*
X0080935Y0111000D02*
X0079065Y0111000D01*
X0077338Y0110284D01*
X0076016Y0108962D01*
X0075300Y0107235D01*
X0075300Y0105365D01*
X0076016Y0103638D01*
X0077338Y0102316D01*
X0079065Y0101600D01*
X0080935Y0101600D01*
X0082662Y0102316D01*
X0083984Y0103638D01*
X0084700Y0105365D01*
X0084700Y0107235D01*
X0083984Y0108962D01*
X0082662Y0110284D01*
X0080935Y0111000D01*
X0082718Y0110229D02*
X0107282Y0110229D01*
X0106684Y0109631D02*
X0083316Y0109631D01*
X0083915Y0109032D02*
X0106085Y0109032D01*
X0105797Y0108434D02*
X0084204Y0108434D01*
X0084451Y0107835D02*
X0088989Y0107835D01*
X0088391Y0107237D02*
X0084699Y0107237D01*
X0084700Y0106638D02*
X0087792Y0106638D01*
X0087194Y0106039D02*
X0084700Y0106039D01*
X0084700Y0105441D02*
X0086595Y0105441D01*
X0085997Y0104842D02*
X0084484Y0104842D01*
X0084236Y0104244D02*
X0085398Y0104244D01*
X0084800Y0103645D02*
X0083988Y0103645D01*
X0084201Y0103047D02*
X0083394Y0103047D01*
X0083603Y0102448D02*
X0082795Y0102448D01*
X0083200Y0101850D02*
X0081538Y0101850D01*
X0081773Y0100653D02*
X0083200Y0100653D01*
X0083200Y0101251D02*
X0030200Y0101251D01*
X0030200Y0100653D02*
X0078227Y0100653D01*
X0078462Y0101850D02*
X0030200Y0101850D01*
X0030153Y0102448D02*
X0077205Y0102448D01*
X0076606Y0103047D02*
X0029905Y0103047D01*
X0029891Y0103645D02*
X0076012Y0103645D01*
X0075764Y0104244D02*
X0030490Y0104244D01*
X0031088Y0104842D02*
X0075516Y0104842D01*
X0075300Y0105441D02*
X0031687Y0105441D01*
X0032285Y0106039D02*
X0075300Y0106039D01*
X0075300Y0106638D02*
X0032884Y0106638D01*
X0033482Y0107237D02*
X0075301Y0107237D01*
X0075549Y0107835D02*
X0034081Y0107835D01*
X0034679Y0108434D02*
X0075796Y0108434D01*
X0076085Y0109032D02*
X0035278Y0109032D01*
X0035876Y0109631D02*
X0076684Y0109631D01*
X0077282Y0110229D02*
X0036475Y0110229D01*
X0037073Y0110828D02*
X0078649Y0110828D01*
X0078040Y0112025D02*
X0038270Y0112025D01*
X0038869Y0112623D02*
X0077030Y0112623D01*
X0076432Y0113222D02*
X0039467Y0113222D01*
X0040066Y0113820D02*
X0075940Y0113820D01*
X0075692Y0114419D02*
X0040664Y0114419D01*
X0041263Y0115017D02*
X0075444Y0115017D01*
X0075300Y0115616D02*
X0041861Y0115616D01*
X0042460Y0116214D02*
X0075300Y0116214D01*
X0075300Y0116813D02*
X0043058Y0116813D01*
X0043657Y0117411D02*
X0075373Y0117411D01*
X0075621Y0118010D02*
X0044255Y0118010D01*
X0044854Y0118608D02*
X0075869Y0118608D01*
X0076260Y0119207D02*
X0045452Y0119207D01*
X0046051Y0119805D02*
X0076858Y0119805D01*
X0077626Y0120404D02*
X0046649Y0120404D01*
X0047248Y0121002D02*
X0160000Y0121002D01*
X0160000Y0122798D02*
X0113145Y0122798D01*
X0113743Y0123396D02*
X0160000Y0123396D01*
X0160000Y0123995D02*
X0114132Y0123995D01*
X0114307Y0128184D02*
X0130762Y0128184D01*
X0130414Y0128783D02*
X0114059Y0128783D01*
X0113565Y0129381D02*
X0130166Y0129381D01*
X0129918Y0129980D02*
X0112967Y0129980D01*
X0111953Y0130578D02*
X0129800Y0130578D01*
X0129800Y0131177D02*
X0054517Y0131177D01*
X0054517Y0131775D02*
X0108641Y0131775D01*
X0109065Y0131600D02*
X0110935Y0131600D01*
X0112662Y0132316D01*
X0113984Y0133638D01*
X0114700Y0135365D01*
X0114700Y0137235D01*
X0113984Y0138962D01*
X0112662Y0140284D01*
X0110935Y0141000D01*
X0109065Y0141000D01*
X0107338Y0140284D01*
X0106016Y0138962D01*
X0105300Y0137235D01*
X0105300Y0135365D01*
X0106016Y0133638D01*
X0107338Y0132316D01*
X0109065Y0131600D01*
X0108047Y0130578D02*
X0081953Y0130578D01*
X0082967Y0129980D02*
X0107033Y0129980D01*
X0106435Y0129381D02*
X0083565Y0129381D01*
X0084059Y0128783D02*
X0105941Y0128783D01*
X0105693Y0128184D02*
X0084307Y0128184D01*
X0084555Y0127586D02*
X0105445Y0127586D01*
X0105300Y0126987D02*
X0084700Y0126987D01*
X0084700Y0126389D02*
X0105300Y0126389D01*
X0105300Y0125790D02*
X0084700Y0125790D01*
X0084628Y0125192D02*
X0105372Y0125192D01*
X0105620Y0124593D02*
X0084380Y0124593D01*
X0084132Y0123995D02*
X0105868Y0123995D01*
X0106257Y0123396D02*
X0083743Y0123396D01*
X0083145Y0122798D02*
X0106855Y0122798D01*
X0107618Y0122199D02*
X0082382Y0122199D01*
X0079063Y0121601D02*
X0047846Y0121601D01*
X0048445Y0122199D02*
X0077618Y0122199D01*
X0076855Y0122798D02*
X0049043Y0122798D01*
X0049642Y0123396D02*
X0076257Y0123396D01*
X0075868Y0123995D02*
X0050240Y0123995D01*
X0050839Y0124593D02*
X0075620Y0124593D01*
X0075372Y0125192D02*
X0051437Y0125192D01*
X0052036Y0125790D02*
X0075300Y0125790D01*
X0075300Y0126389D02*
X0052634Y0126389D01*
X0053233Y0126987D02*
X0075300Y0126987D01*
X0075445Y0127586D02*
X0053831Y0127586D01*
X0054430Y0128184D02*
X0075693Y0128184D01*
X0075941Y0128783D02*
X0054517Y0128783D01*
X0054517Y0129381D02*
X0076435Y0129381D01*
X0077033Y0129980D02*
X0054517Y0129980D01*
X0054517Y0130578D02*
X0078047Y0130578D01*
X0078273Y0132130D02*
X0078946Y0131911D01*
X0079646Y0131800D01*
X0079700Y0131800D01*
X0079700Y0136000D01*
X0080300Y0136000D01*
X0080300Y0136600D01*
X0084500Y0136600D01*
X0084500Y0136654D01*
X0084389Y0137354D01*
X0084170Y0138027D01*
X0083849Y0138659D01*
X0083432Y0139232D01*
X0082932Y0139732D01*
X0082359Y0140149D01*
X0081727Y0140470D01*
X0081054Y0140689D01*
X0080354Y0140800D01*
X0080300Y0140800D01*
X0080300Y0136600D01*
X0079700Y0136600D01*
X0079700Y0140800D01*
X0079646Y0140800D01*
X0078946Y0140689D01*
X0078273Y0140470D01*
X0077641Y0140149D01*
X0077068Y0139732D01*
X0076568Y0139232D01*
X0076151Y0138659D01*
X0075830Y0138027D01*
X0075611Y0137354D01*
X0075500Y0136654D01*
X0075500Y0136600D01*
X0079700Y0136600D01*
X0079700Y0136000D01*
X0075500Y0136000D01*
X0075500Y0135946D01*
X0075611Y0135246D01*
X0075830Y0134573D01*
X0076151Y0133941D01*
X0076568Y0133368D01*
X0077068Y0132868D01*
X0077641Y0132451D01*
X0078273Y0132130D01*
X0077793Y0132374D02*
X0054517Y0132374D01*
X0054517Y0132972D02*
X0076964Y0132972D01*
X0076420Y0133571D02*
X0059838Y0133571D01*
X0060206Y0134170D02*
X0076035Y0134170D01*
X0075766Y0134768D02*
X0060257Y0134768D01*
X0060257Y0135367D02*
X0075592Y0135367D01*
X0075500Y0135965D02*
X0060257Y0135965D01*
X0060257Y0137162D02*
X0075580Y0137162D01*
X0075743Y0137761D02*
X0060257Y0137761D01*
X0060226Y0138359D02*
X0075999Y0138359D01*
X0076369Y0138958D02*
X0059909Y0138958D01*
X0058966Y0140155D02*
X0077653Y0140155D01*
X0076892Y0139556D02*
X0058367Y0139556D01*
X0059565Y0140753D02*
X0079350Y0140753D01*
X0079700Y0140753D02*
X0080300Y0140753D01*
X0080650Y0140753D02*
X0108469Y0140753D01*
X0108825Y0141950D02*
X0081780Y0141950D01*
X0082895Y0142549D02*
X0107507Y0142549D01*
X0107641Y0142451D02*
X0108273Y0142130D01*
X0108946Y0141911D01*
X0109646Y0141800D01*
X0109700Y0141800D01*
X0109700Y0146000D01*
X0110300Y0146000D01*
X0110300Y0146600D01*
X0114500Y0146600D01*
X0114500Y0146654D01*
X0114389Y0147354D01*
X0114170Y0148027D01*
X0113849Y0148659D01*
X0113432Y0149232D01*
X0112932Y0149732D01*
X0112359Y0150149D01*
X0111727Y0150470D01*
X0111054Y0150689D01*
X0110354Y0150800D01*
X0110300Y0150800D01*
X0110300Y0146600D01*
X0109700Y0146600D01*
X0109700Y0150800D01*
X0109646Y0150800D01*
X0108946Y0150689D01*
X0108273Y0150470D01*
X0107641Y0150149D01*
X0107068Y0149732D01*
X0106568Y0149232D01*
X0106151Y0148659D01*
X0105830Y0148027D01*
X0105611Y0147354D01*
X0105500Y0146654D01*
X0105500Y0146600D01*
X0109700Y0146600D01*
X0109700Y0146000D01*
X0105500Y0146000D01*
X0105500Y0145946D01*
X0105611Y0145246D01*
X0105830Y0144573D01*
X0106151Y0143941D01*
X0106568Y0143368D01*
X0107068Y0142868D01*
X0107641Y0142451D01*
X0106789Y0143147D02*
X0083494Y0143147D01*
X0084029Y0143746D02*
X0106294Y0143746D01*
X0105946Y0144344D02*
X0084277Y0144344D01*
X0084525Y0144943D02*
X0105709Y0144943D01*
X0105564Y0145541D02*
X0084700Y0145541D01*
X0084700Y0146140D02*
X0109700Y0146140D01*
X0109700Y0146738D02*
X0110300Y0146738D01*
X0110300Y0146140D02*
X0147294Y0146140D01*
X0147893Y0146738D02*
X0114487Y0146738D01*
X0114392Y0147337D02*
X0148491Y0147337D01*
X0149090Y0147935D02*
X0114200Y0147935D01*
X0113912Y0148534D02*
X0149688Y0148534D01*
X0150269Y0149132D02*
X0113505Y0149132D01*
X0112933Y0149731D02*
X0150022Y0149731D01*
X0149800Y0150329D02*
X0112004Y0150329D01*
X0110300Y0150329D02*
X0109700Y0150329D01*
X0109700Y0149731D02*
X0110300Y0149731D01*
X0110300Y0149132D02*
X0109700Y0149132D01*
X0109700Y0148534D02*
X0110300Y0148534D01*
X0110300Y0147935D02*
X0109700Y0147935D01*
X0109700Y0147337D02*
X0110300Y0147337D01*
X0110300Y0146000D02*
X0114500Y0146000D01*
X0114500Y0145946D01*
X0114389Y0145246D01*
X0114170Y0144573D01*
X0113849Y0143941D01*
X0113432Y0143368D01*
X0112932Y0142868D01*
X0112359Y0142451D01*
X0111727Y0142130D01*
X0111054Y0141911D01*
X0110354Y0141800D01*
X0110300Y0141800D01*
X0110300Y0146000D01*
X0110300Y0145541D02*
X0109700Y0145541D01*
X0109700Y0144943D02*
X0110300Y0144943D01*
X0110300Y0144344D02*
X0109700Y0144344D01*
X0109700Y0143746D02*
X0110300Y0143746D01*
X0110300Y0143147D02*
X0109700Y0143147D01*
X0109700Y0142549D02*
X0110300Y0142549D01*
X0110300Y0141950D02*
X0109700Y0141950D01*
X0111175Y0141950D02*
X0143105Y0141950D01*
X0143703Y0142549D02*
X0112493Y0142549D01*
X0113211Y0143147D02*
X0144302Y0143147D01*
X0144900Y0143746D02*
X0113706Y0143746D01*
X0114054Y0144344D02*
X0145499Y0144344D01*
X0146097Y0144943D02*
X0114291Y0144943D01*
X0114436Y0145541D02*
X0146696Y0145541D01*
X0148196Y0141950D02*
X0160000Y0141950D01*
X0160000Y0141352D02*
X0147597Y0141352D01*
X0146999Y0140753D02*
X0160000Y0140753D01*
X0160000Y0140155D02*
X0146400Y0140155D01*
X0145802Y0139556D02*
X0160000Y0139556D01*
X0160000Y0138958D02*
X0145203Y0138958D01*
X0144605Y0138359D02*
X0160000Y0138359D01*
X0160000Y0137761D02*
X0144006Y0137761D01*
X0143408Y0137162D02*
X0160000Y0137162D01*
X0160000Y0136564D02*
X0142809Y0136564D01*
X0142674Y0135965D02*
X0142211Y0135965D01*
X0141713Y0135367D02*
X0141612Y0135367D01*
X0139600Y0135900D02*
X0139600Y0129395D01*
X0136505Y0126300D01*
X0110000Y0126300D01*
X0111359Y0131775D02*
X0129800Y0131775D01*
X0129816Y0132374D02*
X0112721Y0132374D01*
X0113319Y0132972D02*
X0130064Y0132972D01*
X0130312Y0133571D02*
X0113918Y0133571D01*
X0114205Y0134170D02*
X0130560Y0134170D01*
X0131114Y0134768D02*
X0114453Y0134768D01*
X0114700Y0135367D02*
X0131713Y0135367D01*
X0132674Y0135965D02*
X0114700Y0135965D01*
X0114700Y0136564D02*
X0137800Y0136564D01*
X0137800Y0135965D02*
X0137326Y0135965D01*
X0138316Y0137162D02*
X0114700Y0137162D01*
X0114482Y0137761D02*
X0138915Y0137761D01*
X0139514Y0138359D02*
X0114234Y0138359D01*
X0113986Y0138958D02*
X0140112Y0138958D01*
X0140711Y0139556D02*
X0113391Y0139556D01*
X0112792Y0140155D02*
X0141309Y0140155D01*
X0141908Y0140753D02*
X0111531Y0140753D01*
X0107208Y0140155D02*
X0082347Y0140155D01*
X0083108Y0139556D02*
X0106609Y0139556D01*
X0106014Y0138958D02*
X0083631Y0138958D01*
X0084001Y0138359D02*
X0105766Y0138359D01*
X0105518Y0137761D02*
X0084257Y0137761D01*
X0084420Y0137162D02*
X0105300Y0137162D01*
X0105300Y0136564D02*
X0080300Y0136564D01*
X0080300Y0136000D02*
X0084500Y0136000D01*
X0084500Y0135946D01*
X0084389Y0135246D01*
X0084170Y0134573D01*
X0083849Y0133941D01*
X0083432Y0133368D01*
X0082932Y0132868D01*
X0082359Y0132451D01*
X0081727Y0132130D01*
X0081054Y0131911D01*
X0080354Y0131800D01*
X0080300Y0131800D01*
X0080300Y0136000D01*
X0080300Y0135965D02*
X0079700Y0135965D01*
X0079700Y0135367D02*
X0080300Y0135367D01*
X0080300Y0134768D02*
X0079700Y0134768D01*
X0079700Y0134170D02*
X0080300Y0134170D01*
X0080300Y0133571D02*
X0079700Y0133571D01*
X0079700Y0132972D02*
X0080300Y0132972D01*
X0080300Y0132374D02*
X0079700Y0132374D01*
X0082207Y0132374D02*
X0107279Y0132374D01*
X0106681Y0132972D02*
X0083036Y0132972D01*
X0083580Y0133571D02*
X0106082Y0133571D01*
X0105795Y0134170D02*
X0083965Y0134170D01*
X0084234Y0134768D02*
X0105547Y0134768D01*
X0105300Y0135367D02*
X0084408Y0135367D01*
X0084500Y0135965D02*
X0105300Y0135965D01*
X0105513Y0146738D02*
X0084700Y0146738D01*
X0084658Y0147337D02*
X0105608Y0147337D01*
X0105800Y0147935D02*
X0084410Y0147935D01*
X0084162Y0148534D02*
X0106088Y0148534D01*
X0106495Y0149132D02*
X0083814Y0149132D01*
X0083216Y0149731D02*
X0107067Y0149731D01*
X0107996Y0150329D02*
X0082554Y0150329D01*
X0081109Y0150928D02*
X0149800Y0150928D01*
X0149800Y0151526D02*
X0067989Y0151526D01*
X0067989Y0150928D02*
X0078891Y0150928D01*
X0079065Y0151600D02*
X0080935Y0151600D01*
X0082662Y0152316D01*
X0083984Y0153638D01*
X0084700Y0155365D01*
X0084700Y0157235D01*
X0083984Y0158962D01*
X0082662Y0160284D01*
X0080935Y0161000D01*
X0079065Y0161000D01*
X0077338Y0160284D01*
X0076016Y0158962D01*
X0075300Y0157235D01*
X0075300Y0155365D01*
X0076016Y0153638D01*
X0077338Y0152316D01*
X0079065Y0151600D01*
X0077798Y0152125D02*
X0067894Y0152125D01*
X0067646Y0152723D02*
X0076930Y0152723D01*
X0076331Y0153322D02*
X0067205Y0153322D01*
X0066484Y0153920D02*
X0075898Y0153920D01*
X0075651Y0154519D02*
X0064966Y0154519D01*
X0065565Y0155117D02*
X0075403Y0155117D01*
X0075300Y0155716D02*
X0066163Y0155716D01*
X0066762Y0156314D02*
X0075300Y0156314D01*
X0075300Y0156913D02*
X0067360Y0156913D01*
X0067959Y0157511D02*
X0075415Y0157511D01*
X0075662Y0158110D02*
X0068557Y0158110D01*
X0069156Y0158708D02*
X0075910Y0158708D01*
X0076360Y0159307D02*
X0069754Y0159307D01*
X0070353Y0159905D02*
X0076959Y0159905D01*
X0077868Y0160504D02*
X0070951Y0160504D01*
X0071550Y0161103D02*
X0149800Y0161103D01*
X0149800Y0161701D02*
X0111179Y0161701D01*
X0112132Y0160504D02*
X0149800Y0160504D01*
X0149949Y0159905D02*
X0113041Y0159905D01*
X0113640Y0159307D02*
X0150197Y0159307D01*
X0149863Y0158708D02*
X0114090Y0158708D01*
X0114338Y0158110D02*
X0149264Y0158110D01*
X0150000Y0156300D02*
X0110000Y0156300D01*
X0106930Y0152723D02*
X0083070Y0152723D01*
X0083669Y0153322D02*
X0106331Y0153322D01*
X0105898Y0153920D02*
X0084102Y0153920D01*
X0084349Y0154519D02*
X0105651Y0154519D01*
X0105403Y0155117D02*
X0084597Y0155117D01*
X0084700Y0155716D02*
X0105300Y0155716D01*
X0105300Y0156314D02*
X0084700Y0156314D01*
X0084700Y0156913D02*
X0105300Y0156913D01*
X0105415Y0157511D02*
X0084585Y0157511D01*
X0084338Y0158110D02*
X0105662Y0158110D01*
X0105910Y0158708D02*
X0084090Y0158708D01*
X0083640Y0159307D02*
X0106360Y0159307D01*
X0106959Y0159905D02*
X0083041Y0159905D01*
X0082132Y0160504D02*
X0107868Y0160504D01*
X0108821Y0161701D02*
X0081179Y0161701D01*
X0082624Y0162300D02*
X0107376Y0162300D01*
X0106755Y0162898D02*
X0083245Y0162898D01*
X0083843Y0163497D02*
X0106157Y0163497D01*
X0105826Y0164095D02*
X0084174Y0164095D01*
X0084422Y0164694D02*
X0105578Y0164694D01*
X0105330Y0165292D02*
X0084670Y0165292D01*
X0084700Y0165891D02*
X0105300Y0165891D01*
X0105300Y0166489D02*
X0084700Y0166489D01*
X0084700Y0167088D02*
X0105300Y0167088D01*
X0105487Y0167686D02*
X0084513Y0167686D01*
X0084265Y0168285D02*
X0105735Y0168285D01*
X0105983Y0168883D02*
X0084017Y0168883D01*
X0083465Y0169482D02*
X0106535Y0169482D01*
X0107133Y0170080D02*
X0082867Y0170080D01*
X0082723Y0170679D02*
X0108289Y0170679D01*
X0108399Y0171876D02*
X0083920Y0171876D01*
X0084518Y0172474D02*
X0107179Y0172474D01*
X0106580Y0173073D02*
X0085117Y0173073D01*
X0085715Y0173671D02*
X0106002Y0173671D01*
X0105754Y0174270D02*
X0085900Y0174270D01*
X0085900Y0174868D02*
X0105506Y0174868D01*
X0105300Y0175467D02*
X0085900Y0175467D01*
X0085900Y0176065D02*
X0105300Y0176065D01*
X0105300Y0176664D02*
X0085900Y0176664D01*
X0085900Y0177262D02*
X0105311Y0177262D01*
X0105559Y0177861D02*
X0085900Y0177861D01*
X0085900Y0178459D02*
X0105807Y0178459D01*
X0106111Y0179058D02*
X0085900Y0179058D01*
X0085900Y0179656D02*
X0106710Y0179656D01*
X0107308Y0180255D02*
X0085900Y0180255D01*
X0085900Y0180853D02*
X0108711Y0180853D01*
X0107978Y0182050D02*
X0085900Y0182050D01*
X0085900Y0181452D02*
X0149800Y0181452D01*
X0149800Y0182050D02*
X0112022Y0182050D01*
X0112996Y0182649D02*
X0149930Y0182649D01*
X0150178Y0183247D02*
X0113594Y0183247D01*
X0114071Y0183846D02*
X0150426Y0183846D01*
X0150791Y0184444D02*
X0114319Y0184444D01*
X0114120Y0188634D02*
X0149788Y0188634D01*
X0150228Y0189233D02*
X0113714Y0189233D01*
X0113116Y0189831D02*
X0149980Y0189831D01*
X0149800Y0190430D02*
X0112312Y0190430D01*
X0110999Y0191627D02*
X0149800Y0191627D01*
X0149800Y0192225D02*
X0112444Y0192225D01*
X0113170Y0192824D02*
X0150003Y0192824D01*
X0150251Y0193422D02*
X0113769Y0193422D01*
X0114143Y0194021D02*
X0150498Y0194021D01*
X0150865Y0194619D02*
X0150965Y0194619D01*
X0151463Y0195218D02*
X0151564Y0195218D01*
X0152062Y0195816D02*
X0152315Y0195816D01*
X0152660Y0196415D02*
X0153206Y0196415D01*
X0150156Y0199407D02*
X0113540Y0199407D01*
X0114048Y0198809D02*
X0149963Y0198809D01*
X0149365Y0198210D02*
X0114296Y0198210D01*
X0112941Y0200006D02*
X0149908Y0200006D01*
X0149800Y0200604D02*
X0111890Y0200604D01*
X0111421Y0201801D02*
X0149800Y0201801D01*
X0149800Y0201203D02*
X0077448Y0201203D01*
X0076850Y0200604D02*
X0078110Y0200604D01*
X0078047Y0201801D02*
X0078579Y0201801D01*
X0077059Y0200006D02*
X0076251Y0200006D01*
X0076460Y0199407D02*
X0075653Y0199407D01*
X0075952Y0198809D02*
X0075054Y0198809D01*
X0074456Y0198210D02*
X0075704Y0198210D01*
X0075456Y0197612D02*
X0073857Y0197612D01*
X0073259Y0197013D02*
X0075300Y0197013D01*
X0075300Y0196415D02*
X0072660Y0196415D01*
X0072062Y0195816D02*
X0075300Y0195816D01*
X0075361Y0195218D02*
X0071463Y0195218D01*
X0070865Y0194619D02*
X0075609Y0194619D01*
X0075857Y0194021D02*
X0070266Y0194021D01*
X0069668Y0193422D02*
X0076231Y0193422D01*
X0076830Y0192824D02*
X0069069Y0192824D01*
X0068471Y0192225D02*
X0077556Y0192225D01*
X0078200Y0191627D02*
X0067872Y0191627D01*
X0067274Y0191028D02*
X0078525Y0191028D01*
X0077688Y0190430D02*
X0066675Y0190430D01*
X0066077Y0189831D02*
X0076884Y0189831D01*
X0076286Y0189233D02*
X0065478Y0189233D01*
X0064880Y0188634D02*
X0075880Y0188634D01*
X0075632Y0188036D02*
X0064281Y0188036D01*
X0063683Y0187437D02*
X0075384Y0187437D01*
X0075300Y0186839D02*
X0063084Y0186839D01*
X0062486Y0186240D02*
X0075300Y0186240D01*
X0075300Y0185641D02*
X0061887Y0185641D01*
X0061289Y0185043D02*
X0075433Y0185043D01*
X0075681Y0184444D02*
X0060690Y0184444D01*
X0060092Y0183846D02*
X0075929Y0183846D01*
X0076406Y0183247D02*
X0059493Y0183247D01*
X0058895Y0182649D02*
X0077004Y0182649D01*
X0077407Y0182050D02*
X0058326Y0182050D01*
X0058326Y0181452D02*
X0076808Y0181452D01*
X0076210Y0180853D02*
X0058326Y0180853D01*
X0058326Y0180255D02*
X0075611Y0180255D01*
X0075013Y0179656D02*
X0058326Y0179656D01*
X0058326Y0179058D02*
X0074414Y0179058D01*
X0074100Y0178459D02*
X0058326Y0178459D01*
X0058326Y0177861D02*
X0074100Y0177861D01*
X0074100Y0177262D02*
X0058326Y0177262D01*
X0058326Y0176664D02*
X0074100Y0176664D01*
X0074100Y0176065D02*
X0058326Y0176065D01*
X0058326Y0175467D02*
X0074100Y0175467D01*
X0074100Y0174868D02*
X0058326Y0174868D01*
X0058326Y0174270D02*
X0074100Y0174270D01*
X0074100Y0173671D02*
X0058326Y0173671D01*
X0058326Y0173073D02*
X0074100Y0173073D01*
X0073629Y0172474D02*
X0058326Y0172474D01*
X0057859Y0171876D02*
X0073030Y0171876D01*
X0072432Y0171277D02*
X0057260Y0171277D01*
X0056662Y0170679D02*
X0071833Y0170679D01*
X0071235Y0170080D02*
X0056063Y0170080D01*
X0055465Y0169482D02*
X0070636Y0169482D01*
X0070038Y0168883D02*
X0054866Y0168883D01*
X0054268Y0168285D02*
X0069439Y0168285D01*
X0068841Y0167686D02*
X0053669Y0167686D01*
X0053071Y0167088D02*
X0068242Y0167088D01*
X0067644Y0166489D02*
X0052472Y0166489D01*
X0051874Y0165891D02*
X0067045Y0165891D01*
X0066447Y0165292D02*
X0051275Y0165292D01*
X0050677Y0164694D02*
X0065848Y0164694D01*
X0065250Y0164095D02*
X0050078Y0164095D01*
X0049480Y0163497D02*
X0064651Y0163497D01*
X0064052Y0162898D02*
X0048881Y0162898D01*
X0048282Y0162300D02*
X0063454Y0162300D01*
X0062855Y0161701D02*
X0047684Y0161701D01*
X0047085Y0161103D02*
X0062257Y0161103D01*
X0061658Y0160504D02*
X0046487Y0160504D01*
X0045888Y0159905D02*
X0061060Y0159905D01*
X0060461Y0159307D02*
X0031973Y0159307D01*
X0032571Y0158708D02*
X0059863Y0158708D01*
X0059264Y0158110D02*
X0033170Y0158110D01*
X0033768Y0157511D02*
X0058666Y0157511D01*
X0058067Y0156913D02*
X0034367Y0156913D01*
X0034965Y0156314D02*
X0057469Y0156314D01*
X0056870Y0155716D02*
X0035564Y0155716D01*
X0036162Y0155117D02*
X0056272Y0155117D01*
X0055673Y0154519D02*
X0036761Y0154519D01*
X0037359Y0153920D02*
X0043516Y0153920D01*
X0042795Y0153322D02*
X0037958Y0153322D01*
X0038556Y0152723D02*
X0042354Y0152723D01*
X0042106Y0152125D02*
X0039155Y0152125D01*
X0039753Y0151526D02*
X0042011Y0151526D01*
X0042011Y0150928D02*
X0040352Y0150928D01*
X0040950Y0150329D02*
X0041484Y0150329D01*
X0041035Y0150244D02*
X0041035Y0150244D01*
X0040290Y0148444D02*
X0028091Y0160644D01*
X0028091Y0166300D01*
X0034082Y0166300D01*
X0039037Y0161345D01*
X0044782Y0161345D01*
X0056526Y0173089D01*
X0056526Y0182826D01*
X0080000Y0206300D01*
X0083345Y0202998D02*
X0106655Y0202998D01*
X0107253Y0202400D02*
X0082747Y0202400D01*
X0081421Y0201801D02*
X0108579Y0201801D01*
X0108110Y0200604D02*
X0081890Y0200604D01*
X0082941Y0200006D02*
X0107059Y0200006D01*
X0106460Y0199407D02*
X0083540Y0199407D01*
X0084048Y0198809D02*
X0105952Y0198809D01*
X0105704Y0198210D02*
X0084296Y0198210D01*
X0084544Y0197612D02*
X0105456Y0197612D01*
X0105300Y0197013D02*
X0084700Y0197013D01*
X0084700Y0196415D02*
X0105300Y0196415D01*
X0105300Y0195816D02*
X0084700Y0195816D01*
X0084639Y0195218D02*
X0105361Y0195218D01*
X0105609Y0194619D02*
X0084391Y0194619D01*
X0084143Y0194021D02*
X0105857Y0194021D01*
X0106231Y0193422D02*
X0083769Y0193422D01*
X0083170Y0192824D02*
X0106830Y0192824D01*
X0107556Y0192225D02*
X0082444Y0192225D01*
X0083017Y0191627D02*
X0109001Y0191627D01*
X0107688Y0190430D02*
X0084214Y0190430D01*
X0083616Y0191028D02*
X0149800Y0191028D01*
X0150000Y0186300D02*
X0110000Y0186300D01*
X0106884Y0189831D02*
X0084813Y0189831D01*
X0085411Y0189233D02*
X0106286Y0189233D01*
X0105880Y0188634D02*
X0085900Y0188634D01*
X0085900Y0188036D02*
X0105632Y0188036D01*
X0105384Y0187437D02*
X0085900Y0187437D01*
X0085900Y0186839D02*
X0105300Y0186839D01*
X0105300Y0186240D02*
X0085900Y0186240D01*
X0085900Y0185641D02*
X0105300Y0185641D01*
X0105433Y0185043D02*
X0085900Y0185043D01*
X0085900Y0184444D02*
X0105681Y0184444D01*
X0105929Y0183846D02*
X0085900Y0183846D01*
X0085900Y0183247D02*
X0106406Y0183247D01*
X0107004Y0182649D02*
X0085900Y0182649D01*
X0084100Y0187998D02*
X0084100Y0174602D01*
X0079898Y0170400D01*
X0078302Y0170400D01*
X0050143Y0142242D01*
X0050143Y0136443D01*
X0025000Y0111300D01*
X0021363Y0115017D02*
X0015000Y0115017D01*
X0015000Y0114419D02*
X0020765Y0114419D01*
X0020415Y0113820D02*
X0015000Y0113820D01*
X0015000Y0113222D02*
X0020168Y0113222D01*
X0019920Y0112623D02*
X0015000Y0112623D01*
X0015000Y0112025D02*
X0019800Y0112025D01*
X0019800Y0111426D02*
X0015000Y0111426D01*
X0015000Y0110828D02*
X0019800Y0110828D01*
X0019815Y0110229D02*
X0015000Y0110229D01*
X0015000Y0109631D02*
X0020063Y0109631D01*
X0020311Y0109032D02*
X0015000Y0109032D01*
X0015000Y0108434D02*
X0020559Y0108434D01*
X0021111Y0107835D02*
X0015000Y0107835D01*
X0015000Y0107237D02*
X0021710Y0107237D01*
X0022667Y0106638D02*
X0015000Y0106638D01*
X0015000Y0106039D02*
X0022854Y0106039D01*
X0021787Y0105441D02*
X0015000Y0105441D01*
X0015000Y0104842D02*
X0021189Y0104842D01*
X0020591Y0104244D02*
X0015000Y0104244D01*
X0015000Y0103645D02*
X0020343Y0103645D01*
X0020095Y0103047D02*
X0015000Y0103047D01*
X0015000Y0102448D02*
X0019847Y0102448D01*
X0019800Y0101850D02*
X0015000Y0101850D01*
X0015000Y0101251D02*
X0019800Y0101251D01*
X0019800Y0100653D02*
X0015000Y0100653D01*
X0015000Y0100054D02*
X0019888Y0100054D01*
X0020135Y0099456D02*
X0015000Y0099456D01*
X0015000Y0098857D02*
X0020383Y0098857D01*
X0020687Y0098259D02*
X0015000Y0098259D01*
X0015000Y0097660D02*
X0021286Y0097660D01*
X0021884Y0097062D02*
X0015000Y0097062D01*
X0015000Y0096463D02*
X0023089Y0096463D01*
X0022432Y0095865D02*
X0015000Y0095865D01*
X0015000Y0095266D02*
X0021612Y0095266D01*
X0021014Y0094668D02*
X0015000Y0094668D01*
X0015000Y0094069D02*
X0020519Y0094069D01*
X0020271Y0093471D02*
X0015000Y0093471D01*
X0015000Y0092872D02*
X0020023Y0092872D01*
X0019800Y0092274D02*
X0015000Y0092274D01*
X0015000Y0091675D02*
X0019800Y0091675D01*
X0019800Y0091077D02*
X0015000Y0091077D01*
X0015000Y0090478D02*
X0019800Y0090478D01*
X0019960Y0089880D02*
X0015000Y0089880D01*
X0015000Y0089281D02*
X0020208Y0089281D01*
X0020456Y0088683D02*
X0015000Y0088683D01*
X0015000Y0088084D02*
X0020862Y0088084D01*
X0021460Y0087486D02*
X0015000Y0087486D01*
X0015000Y0086887D02*
X0022065Y0086887D01*
X0022603Y0085690D02*
X0015000Y0085690D01*
X0015000Y0085092D02*
X0021721Y0085092D01*
X0021140Y0084493D02*
X0015000Y0084493D01*
X0015000Y0083895D02*
X0020710Y0083895D01*
X0020405Y0083296D02*
X0015000Y0083296D01*
X0015000Y0082698D02*
X0020197Y0082698D01*
X0020064Y0082099D02*
X0015000Y0082099D01*
X0015000Y0086289D02*
X0023510Y0086289D01*
X0027397Y0085690D02*
X0075300Y0085690D01*
X0075413Y0085092D02*
X0028279Y0085092D01*
X0028860Y0084493D02*
X0075661Y0084493D01*
X0075909Y0083895D02*
X0029290Y0083895D01*
X0029595Y0083296D02*
X0076357Y0083296D01*
X0076956Y0082698D02*
X0029803Y0082698D01*
X0029936Y0082099D02*
X0077860Y0082099D01*
X0078829Y0080902D02*
X0029999Y0080902D01*
X0030000Y0080906D02*
X0030000Y0081000D01*
X0025300Y0081000D01*
X0025300Y0076300D01*
X0025394Y0076300D01*
X0026171Y0076423D01*
X0026919Y0076666D01*
X0027621Y0077024D01*
X0028257Y0077486D01*
X0028814Y0078043D01*
X0029276Y0078679D01*
X0029634Y0079381D01*
X0029877Y0080129D01*
X0030000Y0080906D01*
X0029904Y0080303D02*
X0077384Y0080303D01*
X0076758Y0079705D02*
X0029739Y0079705D01*
X0029494Y0079106D02*
X0076160Y0079106D01*
X0075827Y0078508D02*
X0029152Y0078508D01*
X0028681Y0077909D02*
X0075579Y0077909D01*
X0075332Y0077311D02*
X0028016Y0077311D01*
X0027010Y0076712D02*
X0075300Y0076712D01*
X0081718Y0071924D02*
X0083079Y0071924D01*
X0083200Y0072523D02*
X0082870Y0072523D01*
X0085000Y0071300D02*
X0085000Y0101300D01*
X0090000Y0106300D01*
X0110000Y0106300D01*
X0113316Y0109631D02*
X0139091Y0109631D01*
X0139091Y0110229D02*
X0112718Y0110229D01*
X0111351Y0110828D02*
X0139091Y0110828D01*
X0139091Y0111426D02*
X0037672Y0111426D01*
X0030112Y0100054D02*
X0077108Y0100054D01*
X0076509Y0099456D02*
X0029865Y0099456D01*
X0029617Y0098857D02*
X0075972Y0098857D01*
X0075724Y0098259D02*
X0029313Y0098259D01*
X0028714Y0097660D02*
X0075476Y0097660D01*
X0075300Y0097062D02*
X0028116Y0097062D01*
X0027568Y0095865D02*
X0075300Y0095865D01*
X0075300Y0096463D02*
X0026911Y0096463D01*
X0028388Y0095266D02*
X0075341Y0095266D01*
X0075589Y0094668D02*
X0028986Y0094668D01*
X0029481Y0094069D02*
X0075837Y0094069D01*
X0076182Y0093471D02*
X0029729Y0093471D01*
X0029977Y0092872D02*
X0076781Y0092872D01*
X0077439Y0092274D02*
X0030200Y0092274D01*
X0030200Y0091675D02*
X0078884Y0091675D01*
X0082892Y0100054D02*
X0083200Y0100054D01*
X0088694Y0102448D02*
X0107205Y0102448D01*
X0106606Y0103047D02*
X0089293Y0103047D01*
X0089891Y0103645D02*
X0106012Y0103645D01*
X0105764Y0104244D02*
X0090490Y0104244D01*
X0086800Y0089281D02*
X0100436Y0089281D01*
X0099837Y0088683D02*
X0086800Y0088683D01*
X0086800Y0088084D02*
X0099239Y0088084D01*
X0098640Y0087486D02*
X0086800Y0087486D01*
X0086800Y0086887D02*
X0098042Y0086887D01*
X0097443Y0086289D02*
X0086800Y0086289D01*
X0086800Y0085690D02*
X0096845Y0085690D01*
X0096246Y0085092D02*
X0086800Y0085092D01*
X0086800Y0084493D02*
X0095648Y0084493D01*
X0095049Y0083895D02*
X0086800Y0083895D01*
X0086800Y0083296D02*
X0094450Y0083296D01*
X0093852Y0082698D02*
X0086800Y0082698D01*
X0086800Y0082099D02*
X0093253Y0082099D01*
X0092655Y0081501D02*
X0086800Y0081501D01*
X0086800Y0080902D02*
X0092056Y0080902D01*
X0094754Y0078508D02*
X0105827Y0078508D01*
X0105579Y0077909D02*
X0094155Y0077909D01*
X0093557Y0077311D02*
X0105332Y0077311D01*
X0105300Y0076712D02*
X0092958Y0076712D01*
X0092359Y0076114D02*
X0105300Y0076114D01*
X0105300Y0075515D02*
X0091800Y0075515D01*
X0091800Y0074917D02*
X0105486Y0074917D01*
X0105734Y0074318D02*
X0091800Y0074318D01*
X0091800Y0073720D02*
X0105981Y0073720D01*
X0106532Y0073121D02*
X0091800Y0073121D01*
X0091800Y0072523D02*
X0107130Y0072523D01*
X0108282Y0071924D02*
X0091800Y0071924D01*
X0091800Y0071326D02*
X0139440Y0071326D01*
X0139091Y0070727D02*
X0091800Y0070727D01*
X0091800Y0070129D02*
X0139091Y0070129D01*
X0139091Y0069530D02*
X0091800Y0069530D01*
X0091800Y0068932D02*
X0139091Y0068932D01*
X0139091Y0068333D02*
X0091800Y0068333D01*
X0091800Y0067735D02*
X0139091Y0067735D01*
X0139091Y0067136D02*
X0091800Y0067136D01*
X0091800Y0066538D02*
X0139091Y0066538D01*
X0139091Y0065939D02*
X0091800Y0065939D01*
X0091800Y0065341D02*
X0139091Y0065341D01*
X0139091Y0064742D02*
X0091800Y0064742D01*
X0091800Y0064144D02*
X0139091Y0064144D01*
X0139091Y0063545D02*
X0091800Y0063545D01*
X0091800Y0062947D02*
X0139091Y0062947D01*
X0139091Y0062348D02*
X0091800Y0062348D01*
X0091800Y0061750D02*
X0139091Y0061750D01*
X0139563Y0061151D02*
X0091800Y0061151D01*
X0091800Y0060553D02*
X0160000Y0060553D01*
X0160000Y0059954D02*
X0091800Y0059954D01*
X0091800Y0059356D02*
X0160000Y0059356D01*
X0160000Y0058757D02*
X0091800Y0058757D01*
X0091800Y0058159D02*
X0160000Y0058159D01*
X0160000Y0057560D02*
X0091800Y0057560D01*
X0091800Y0056962D02*
X0160000Y0056962D01*
X0160000Y0056363D02*
X0091800Y0056363D01*
X0091800Y0055765D02*
X0160000Y0055765D01*
X0160000Y0055166D02*
X0091800Y0055166D01*
X0091800Y0054568D02*
X0160000Y0054568D01*
X0160000Y0053969D02*
X0091800Y0053969D01*
X0091800Y0053370D02*
X0160000Y0053370D01*
X0160000Y0052772D02*
X0091800Y0052772D01*
X0091800Y0052173D02*
X0160000Y0052173D01*
X0160000Y0051575D02*
X0091800Y0051575D01*
X0091800Y0050976D02*
X0160000Y0050976D01*
X0160000Y0050378D02*
X0091800Y0050378D01*
X0091800Y0049779D02*
X0160000Y0049779D01*
X0160000Y0049181D02*
X0091800Y0049181D01*
X0091800Y0048582D02*
X0160000Y0048582D01*
X0160000Y0047984D02*
X0091800Y0047984D01*
X0091800Y0047385D02*
X0160000Y0047385D01*
X0160000Y0046787D02*
X0091800Y0046787D01*
X0091800Y0046188D02*
X0098902Y0046188D01*
X0099700Y0046188D02*
X0100300Y0046188D01*
X0100300Y0045590D02*
X0099700Y0045590D01*
X0099700Y0044991D02*
X0100300Y0044991D01*
X0100300Y0044393D02*
X0099700Y0044393D01*
X0099700Y0043794D02*
X0100300Y0043794D01*
X0100300Y0043196D02*
X0099700Y0043196D01*
X0099700Y0042597D02*
X0100300Y0042597D01*
X0100300Y0041999D02*
X0099700Y0041999D01*
X0100000Y0041300D02*
X0128495Y0041300D01*
X0133095Y0045900D01*
X0136509Y0045900D01*
X0156909Y0066300D01*
X0156909Y0016300D01*
X0156609Y0016263D02*
X0147091Y0016263D01*
X0147091Y0016861D02*
X0153109Y0016861D01*
X0153109Y0016600D02*
X0156609Y0016600D01*
X0156609Y0021655D01*
X0154238Y0021655D01*
X0153908Y0021567D01*
X0153611Y0021395D01*
X0153369Y0021153D01*
X0153198Y0020857D01*
X0153109Y0020526D01*
X0153109Y0016600D01*
X0153109Y0017460D02*
X0147091Y0017460D01*
X0147091Y0018058D02*
X0153109Y0018058D01*
X0153109Y0018657D02*
X0147091Y0018657D01*
X0147091Y0019255D02*
X0153109Y0019255D01*
X0153109Y0019854D02*
X0147091Y0019854D01*
X0147091Y0020452D02*
X0153109Y0020452D01*
X0153310Y0021051D02*
X0147016Y0021051D01*
X0146418Y0021649D02*
X0154217Y0021649D01*
X0156609Y0021649D02*
X0157209Y0021649D01*
X0157209Y0021051D02*
X0156609Y0021051D01*
X0156609Y0020452D02*
X0157209Y0020452D01*
X0157209Y0019854D02*
X0156609Y0019854D01*
X0156609Y0019255D02*
X0157209Y0019255D01*
X0157209Y0018657D02*
X0156609Y0018657D01*
X0156609Y0018058D02*
X0157209Y0018058D01*
X0157209Y0017460D02*
X0156609Y0017460D01*
X0156609Y0016861D02*
X0157209Y0016861D01*
X0157209Y0015664D02*
X0156609Y0015664D01*
X0156609Y0015066D02*
X0157209Y0015066D01*
X0157209Y0014467D02*
X0156609Y0014467D01*
X0156609Y0013869D02*
X0157209Y0013869D01*
X0157209Y0013270D02*
X0156609Y0013270D01*
X0156609Y0012672D02*
X0157209Y0012672D01*
X0157209Y0012073D02*
X0156609Y0012073D01*
X0156609Y0011475D02*
X0157209Y0011475D01*
X0160000Y0010876D02*
X0146343Y0010876D01*
X0146942Y0011475D02*
X0153353Y0011475D01*
X0153110Y0012073D02*
X0147091Y0012073D01*
X0147091Y0012672D02*
X0153109Y0012672D01*
X0153109Y0013270D02*
X0147091Y0013270D01*
X0147091Y0013869D02*
X0153109Y0013869D01*
X0153109Y0014467D02*
X0147091Y0014467D01*
X0147091Y0015066D02*
X0153109Y0015066D01*
X0153109Y0015664D02*
X0147091Y0015664D01*
X0143091Y0016300D02*
X0143091Y0039391D01*
X0145000Y0041300D01*
X0141337Y0044991D02*
X0138663Y0044991D01*
X0139261Y0044393D02*
X0140739Y0044393D01*
X0140405Y0043794D02*
X0139595Y0043794D01*
X0139843Y0043196D02*
X0140157Y0043196D01*
X0140074Y0039605D02*
X0139926Y0039605D01*
X0139678Y0039006D02*
X0140322Y0039006D01*
X0140570Y0038408D02*
X0139430Y0038408D01*
X0138863Y0037809D02*
X0141137Y0037809D01*
X0141291Y0037211D02*
X0138265Y0037211D01*
X0137271Y0036612D02*
X0141291Y0036612D01*
X0141291Y0036014D02*
X0102208Y0036014D01*
X0101753Y0036612D02*
X0132729Y0036612D01*
X0131735Y0037211D02*
X0102878Y0037211D01*
X0103580Y0037809D02*
X0131137Y0037809D01*
X0130570Y0038408D02*
X0104079Y0038408D01*
X0104443Y0039006D02*
X0130322Y0039006D01*
X0130074Y0039605D02*
X0104706Y0039605D01*
X0104889Y0040203D02*
X0129826Y0040203D01*
X0129800Y0040802D02*
X0104983Y0040802D01*
X0104952Y0041999D02*
X0129800Y0041999D01*
X0129800Y0041400D02*
X0100300Y0041400D01*
X0104836Y0042597D02*
X0129909Y0042597D01*
X0130157Y0043196D02*
X0104641Y0043196D01*
X0104341Y0043794D02*
X0130405Y0043794D01*
X0130739Y0044393D02*
X0103933Y0044393D01*
X0103380Y0044991D02*
X0131337Y0044991D01*
X0131936Y0045590D02*
X0102594Y0045590D01*
X0101098Y0046188D02*
X0133213Y0046188D01*
X0136787Y0046188D02*
X0143213Y0046188D01*
X0141936Y0045590D02*
X0138064Y0045590D01*
X0146787Y0046188D02*
X0160000Y0046188D01*
X0160000Y0045590D02*
X0148064Y0045590D01*
X0148663Y0044991D02*
X0160000Y0044991D01*
X0160000Y0044393D02*
X0149261Y0044393D01*
X0149595Y0043794D02*
X0160000Y0043794D01*
X0160000Y0043196D02*
X0149843Y0043196D01*
X0150091Y0042597D02*
X0160000Y0042597D01*
X0160000Y0041999D02*
X0150200Y0041999D01*
X0150200Y0041400D02*
X0160000Y0041400D01*
X0160000Y0040802D02*
X0150200Y0040802D01*
X0150174Y0040203D02*
X0160000Y0040203D01*
X0160000Y0039605D02*
X0149926Y0039605D01*
X0149678Y0039006D02*
X0160000Y0039006D01*
X0160000Y0038408D02*
X0149430Y0038408D01*
X0148863Y0037809D02*
X0160000Y0037809D01*
X0160000Y0037211D02*
X0148265Y0037211D01*
X0147271Y0036612D02*
X0160000Y0036612D01*
X0160000Y0036014D02*
X0144891Y0036014D01*
X0144891Y0035415D02*
X0160000Y0035415D01*
X0160000Y0034817D02*
X0144891Y0034817D01*
X0144891Y0034218D02*
X0160000Y0034218D01*
X0160000Y0033620D02*
X0144891Y0033620D01*
X0144891Y0033021D02*
X0160000Y0033021D01*
X0160000Y0032423D02*
X0144891Y0032423D01*
X0144891Y0031824D02*
X0160000Y0031824D01*
X0160000Y0031226D02*
X0144891Y0031226D01*
X0144891Y0030627D02*
X0160000Y0030627D01*
X0160000Y0030029D02*
X0144891Y0030029D01*
X0144891Y0029430D02*
X0160000Y0029430D01*
X0160000Y0028832D02*
X0144891Y0028832D01*
X0144891Y0028233D02*
X0160000Y0028233D01*
X0160000Y0027634D02*
X0144891Y0027634D01*
X0144891Y0027036D02*
X0160000Y0027036D01*
X0160000Y0026437D02*
X0144891Y0026437D01*
X0144891Y0025839D02*
X0160000Y0025839D01*
X0160000Y0025240D02*
X0144891Y0025240D01*
X0144891Y0024642D02*
X0160000Y0024642D01*
X0160000Y0024043D02*
X0144891Y0024043D01*
X0144891Y0023445D02*
X0160000Y0023445D01*
X0160000Y0022846D02*
X0144891Y0022846D01*
X0144891Y0022248D02*
X0160000Y0022248D01*
X0160000Y0021649D02*
X0159602Y0021649D01*
X0141291Y0026437D02*
X0101849Y0026437D01*
X0103090Y0027036D02*
X0141291Y0027036D01*
X0141291Y0027634D02*
X0103688Y0027634D01*
X0104287Y0028233D02*
X0141291Y0028233D01*
X0141291Y0028832D02*
X0104606Y0028832D01*
X0104854Y0029430D02*
X0141291Y0029430D01*
X0141291Y0030029D02*
X0105102Y0030029D01*
X0105200Y0030627D02*
X0141291Y0030627D01*
X0141291Y0031226D02*
X0105200Y0031226D01*
X0105200Y0031824D02*
X0141291Y0031824D01*
X0141291Y0032423D02*
X0105163Y0032423D01*
X0104916Y0033021D02*
X0141291Y0033021D01*
X0141291Y0033620D02*
X0104668Y0033620D01*
X0104420Y0034218D02*
X0141291Y0034218D01*
X0141291Y0034817D02*
X0103837Y0034817D01*
X0103239Y0035415D02*
X0141291Y0035415D01*
X0146618Y0061151D02*
X0153704Y0061151D01*
X0153196Y0061750D02*
X0147091Y0061750D01*
X0147091Y0062348D02*
X0153109Y0062348D01*
X0153109Y0062947D02*
X0147091Y0062947D01*
X0147091Y0063545D02*
X0153109Y0063545D01*
X0153109Y0064144D02*
X0147091Y0064144D01*
X0147091Y0064742D02*
X0153109Y0064742D01*
X0153109Y0065341D02*
X0147091Y0065341D01*
X0147091Y0065939D02*
X0153109Y0065939D01*
X0156609Y0065939D02*
X0157209Y0065939D01*
X0157209Y0065341D02*
X0156609Y0065341D01*
X0156609Y0064742D02*
X0157209Y0064742D01*
X0157209Y0064144D02*
X0156609Y0064144D01*
X0156609Y0063545D02*
X0157209Y0063545D01*
X0157209Y0062947D02*
X0156609Y0062947D01*
X0156609Y0062348D02*
X0157209Y0062348D01*
X0157209Y0061750D02*
X0156609Y0061750D01*
X0156609Y0061151D02*
X0157209Y0061151D01*
X0157209Y0067136D02*
X0156609Y0067136D01*
X0156609Y0067735D02*
X0157209Y0067735D01*
X0157209Y0068333D02*
X0156609Y0068333D01*
X0156609Y0068932D02*
X0157209Y0068932D01*
X0157209Y0069530D02*
X0156609Y0069530D01*
X0156609Y0070129D02*
X0157209Y0070129D01*
X0157209Y0070727D02*
X0156609Y0070727D01*
X0156609Y0071326D02*
X0157209Y0071326D01*
X0145000Y0068209D02*
X0143091Y0066300D01*
X0145000Y0068209D02*
X0145000Y0086300D01*
X0142999Y0081501D02*
X0137001Y0081501D01*
X0138153Y0082099D02*
X0141847Y0082099D01*
X0141249Y0082698D02*
X0138751Y0082698D01*
X0139350Y0083296D02*
X0140650Y0083296D01*
X0140368Y0083895D02*
X0139632Y0083895D01*
X0139880Y0084493D02*
X0140120Y0084493D01*
X0140111Y0088084D02*
X0139889Y0088084D01*
X0139641Y0088683D02*
X0140358Y0088683D01*
X0140627Y0089281D02*
X0139373Y0089281D01*
X0138774Y0089880D02*
X0141226Y0089880D01*
X0141824Y0090478D02*
X0138176Y0090478D01*
X0137056Y0091077D02*
X0142944Y0091077D01*
X0143200Y0080902D02*
X0132148Y0080902D01*
X0132746Y0081501D02*
X0132999Y0081501D01*
X0131549Y0080303D02*
X0143200Y0080303D01*
X0143200Y0079705D02*
X0130951Y0079705D01*
X0130352Y0079106D02*
X0143200Y0079106D01*
X0143200Y0078508D02*
X0129754Y0078508D01*
X0129155Y0077909D02*
X0143200Y0077909D01*
X0143200Y0077311D02*
X0128557Y0077311D01*
X0127958Y0076712D02*
X0143200Y0076712D01*
X0143200Y0076114D02*
X0127359Y0076114D01*
X0126761Y0075515D02*
X0143200Y0075515D01*
X0143200Y0074917D02*
X0126162Y0074917D01*
X0125000Y0076300D02*
X0110000Y0076300D01*
X0111718Y0071924D02*
X0143200Y0071924D01*
X0143200Y0072523D02*
X0112870Y0072523D01*
X0113468Y0073121D02*
X0143200Y0073121D01*
X0143200Y0073720D02*
X0114019Y0073720D01*
X0114266Y0074318D02*
X0143200Y0074318D01*
X0135000Y0086300D02*
X0125000Y0076300D01*
X0124662Y0078508D02*
X0114173Y0078508D01*
X0113840Y0079106D02*
X0125261Y0079106D01*
X0125859Y0079705D02*
X0113242Y0079705D01*
X0112616Y0080303D02*
X0126458Y0080303D01*
X0127056Y0080902D02*
X0111171Y0080902D01*
X0110935Y0081600D02*
X0112662Y0082316D01*
X0113984Y0083638D01*
X0114700Y0085365D01*
X0114700Y0087235D01*
X0113984Y0088962D01*
X0112662Y0090284D01*
X0110935Y0091000D01*
X0109065Y0091000D01*
X0107338Y0090284D01*
X0106016Y0088962D01*
X0105300Y0087235D01*
X0105300Y0085365D01*
X0106016Y0083638D01*
X0107338Y0082316D01*
X0109065Y0081600D01*
X0110935Y0081600D01*
X0112140Y0082099D02*
X0128253Y0082099D01*
X0127655Y0081501D02*
X0097746Y0081501D01*
X0098345Y0082099D02*
X0107860Y0082099D01*
X0106956Y0082698D02*
X0098943Y0082698D01*
X0099542Y0083296D02*
X0106357Y0083296D01*
X0105909Y0083895D02*
X0100140Y0083895D01*
X0100739Y0084493D02*
X0105661Y0084493D01*
X0105413Y0085092D02*
X0101337Y0085092D01*
X0101936Y0085690D02*
X0105300Y0085690D01*
X0105300Y0086289D02*
X0102534Y0086289D01*
X0103133Y0086887D02*
X0105300Y0086887D01*
X0105404Y0087486D02*
X0103731Y0087486D01*
X0104330Y0088084D02*
X0105652Y0088084D01*
X0105900Y0088683D02*
X0104928Y0088683D01*
X0105527Y0089281D02*
X0106334Y0089281D01*
X0106125Y0089880D02*
X0106933Y0089880D01*
X0106724Y0090478D02*
X0107805Y0090478D01*
X0107322Y0091077D02*
X0132944Y0091077D01*
X0131824Y0090478D02*
X0112195Y0090478D01*
X0113067Y0089880D02*
X0131226Y0089880D01*
X0130627Y0089281D02*
X0113666Y0089281D01*
X0114100Y0088683D02*
X0130358Y0088683D01*
X0130111Y0088084D02*
X0114348Y0088084D01*
X0114596Y0087486D02*
X0129863Y0087486D01*
X0129800Y0086887D02*
X0114700Y0086887D01*
X0114700Y0086289D02*
X0129800Y0086289D01*
X0129800Y0085690D02*
X0114700Y0085690D01*
X0114587Y0085092D02*
X0129872Y0085092D01*
X0130120Y0084493D02*
X0114339Y0084493D01*
X0114091Y0083895D02*
X0130049Y0083895D01*
X0129450Y0083296D02*
X0113643Y0083296D01*
X0113044Y0082698D02*
X0128852Y0082698D01*
X0139675Y0106039D02*
X0114700Y0106039D01*
X0114700Y0106638D02*
X0139091Y0106638D01*
X0139091Y0107237D02*
X0114699Y0107237D01*
X0114451Y0107835D02*
X0139091Y0107835D01*
X0139091Y0108434D02*
X0114204Y0108434D01*
X0113915Y0109032D02*
X0139091Y0109032D01*
X0139091Y0112025D02*
X0111960Y0112025D01*
X0112970Y0112623D02*
X0139091Y0112623D01*
X0139091Y0113222D02*
X0113568Y0113222D01*
X0114060Y0113820D02*
X0139091Y0113820D01*
X0139091Y0114419D02*
X0114308Y0114419D01*
X0114556Y0115017D02*
X0139091Y0115017D01*
X0139091Y0115616D02*
X0114700Y0115616D01*
X0114700Y0116214D02*
X0139328Y0116214D01*
X0137344Y0124593D02*
X0160000Y0124593D01*
X0160000Y0125192D02*
X0137943Y0125192D01*
X0138541Y0125790D02*
X0160000Y0125790D01*
X0160000Y0126389D02*
X0146732Y0126389D01*
X0148041Y0126987D02*
X0160000Y0126987D01*
X0160000Y0127586D02*
X0148640Y0127586D01*
X0149238Y0128184D02*
X0160000Y0128184D01*
X0160000Y0128783D02*
X0149586Y0128783D01*
X0149834Y0129381D02*
X0160000Y0129381D01*
X0160000Y0129980D02*
X0150082Y0129980D01*
X0150200Y0130578D02*
X0160000Y0130578D01*
X0160000Y0131177D02*
X0150200Y0131177D01*
X0150200Y0131775D02*
X0160000Y0131775D01*
X0160000Y0132374D02*
X0150184Y0132374D01*
X0149936Y0132972D02*
X0160000Y0132972D01*
X0160000Y0133571D02*
X0149688Y0133571D01*
X0149440Y0134170D02*
X0160000Y0134170D01*
X0160000Y0134768D02*
X0148886Y0134768D01*
X0148287Y0135367D02*
X0160000Y0135367D01*
X0160000Y0135965D02*
X0147326Y0135965D01*
X0148794Y0142549D02*
X0160000Y0142549D01*
X0160000Y0143147D02*
X0149393Y0143147D01*
X0149991Y0143746D02*
X0160000Y0143746D01*
X0160000Y0144344D02*
X0150590Y0144344D01*
X0151188Y0144943D02*
X0160000Y0144943D01*
X0160000Y0145541D02*
X0151787Y0145541D01*
X0152385Y0146140D02*
X0153870Y0146140D01*
X0156130Y0146140D02*
X0160000Y0146140D01*
X0160000Y0146738D02*
X0157575Y0146738D01*
X0158391Y0147337D02*
X0160000Y0147337D01*
X0160000Y0147935D02*
X0158989Y0147935D01*
X0159483Y0148534D02*
X0160000Y0148534D01*
X0160000Y0149132D02*
X0159731Y0149132D01*
X0159978Y0149731D02*
X0160000Y0149731D01*
X0155000Y0151300D02*
X0139600Y0135900D01*
X0142506Y0141352D02*
X0060163Y0141352D01*
X0060762Y0141950D02*
X0078220Y0141950D01*
X0077105Y0142549D02*
X0061360Y0142549D01*
X0061959Y0143147D02*
X0076506Y0143147D01*
X0075971Y0143746D02*
X0062557Y0143746D01*
X0063156Y0144344D02*
X0075723Y0144344D01*
X0075838Y0148534D02*
X0066800Y0148534D01*
X0067059Y0149132D02*
X0076185Y0149132D01*
X0076784Y0149731D02*
X0067585Y0149731D01*
X0067833Y0150329D02*
X0077446Y0150329D01*
X0080000Y0146300D02*
X0062566Y0146300D01*
X0065000Y0148734D01*
X0065000Y0151300D01*
X0062566Y0146300D02*
X0054710Y0138444D01*
X0054710Y0138294D01*
X0052717Y0136300D01*
X0052717Y0136451D01*
X0052717Y0136300D02*
X0052717Y0129017D01*
X0025000Y0101300D01*
X0021962Y0115616D02*
X0015000Y0115616D01*
X0015000Y0116214D02*
X0023276Y0116214D01*
X0022245Y0116813D02*
X0015000Y0116813D01*
X0015000Y0117411D02*
X0021535Y0117411D01*
X0020936Y0118010D02*
X0015000Y0118010D01*
X0015000Y0118608D02*
X0020487Y0118608D01*
X0020239Y0119207D02*
X0015000Y0119207D01*
X0015000Y0119805D02*
X0019991Y0119805D01*
X0019800Y0120404D02*
X0015000Y0120404D01*
X0015000Y0121002D02*
X0019800Y0121002D01*
X0019800Y0121601D02*
X0015000Y0121601D01*
X0015000Y0122199D02*
X0019800Y0122199D01*
X0019992Y0122798D02*
X0015000Y0122798D01*
X0015000Y0123396D02*
X0020240Y0123396D01*
X0020488Y0123995D02*
X0015000Y0123995D01*
X0015000Y0124593D02*
X0020939Y0124593D01*
X0021538Y0125192D02*
X0015000Y0125192D01*
X0015000Y0125790D02*
X0022252Y0125790D01*
X0023268Y0126389D02*
X0015000Y0126389D01*
X0015000Y0126987D02*
X0021959Y0126987D01*
X0021360Y0127586D02*
X0015000Y0127586D01*
X0015000Y0128184D02*
X0020762Y0128184D01*
X0020414Y0128783D02*
X0015000Y0128783D01*
X0015000Y0129381D02*
X0020166Y0129381D01*
X0019918Y0129980D02*
X0015000Y0129980D01*
X0015000Y0130578D02*
X0019800Y0130578D01*
X0019800Y0131177D02*
X0015000Y0131177D01*
X0015000Y0131775D02*
X0019800Y0131775D01*
X0019816Y0132374D02*
X0015000Y0132374D01*
X0015000Y0132972D02*
X0020064Y0132972D01*
X0020312Y0133571D02*
X0015000Y0133571D01*
X0015000Y0134170D02*
X0020560Y0134170D01*
X0021114Y0134768D02*
X0015000Y0134768D01*
X0015000Y0135367D02*
X0021713Y0135367D01*
X0022674Y0135965D02*
X0015000Y0135965D01*
X0015000Y0136564D02*
X0027718Y0136564D01*
X0028316Y0137162D02*
X0015000Y0137162D01*
X0015000Y0137761D02*
X0028915Y0137761D01*
X0029514Y0138359D02*
X0015000Y0138359D01*
X0015000Y0138958D02*
X0030112Y0138958D01*
X0030711Y0139556D02*
X0015000Y0139556D01*
X0015000Y0140155D02*
X0031309Y0140155D01*
X0031908Y0140753D02*
X0015000Y0140753D01*
X0015000Y0141352D02*
X0032506Y0141352D01*
X0033105Y0141950D02*
X0015000Y0141950D01*
X0015000Y0142549D02*
X0033703Y0142549D01*
X0034302Y0143147D02*
X0015000Y0143147D01*
X0015000Y0143746D02*
X0034705Y0143746D01*
X0034543Y0144344D02*
X0015000Y0144344D01*
X0015000Y0144943D02*
X0034543Y0144943D01*
X0034543Y0145541D02*
X0015000Y0145541D01*
X0015000Y0146140D02*
X0034543Y0146140D01*
X0034543Y0146738D02*
X0015000Y0146738D01*
X0015000Y0147337D02*
X0034543Y0147337D01*
X0034543Y0147935D02*
X0015000Y0147935D01*
X0015000Y0148534D02*
X0034543Y0148534D01*
X0034983Y0149132D02*
X0015000Y0149132D01*
X0015000Y0149731D02*
X0036458Y0149731D01*
X0035859Y0150329D02*
X0015000Y0150329D01*
X0015000Y0150928D02*
X0035261Y0150928D01*
X0034662Y0151526D02*
X0015000Y0151526D01*
X0015000Y0152125D02*
X0034064Y0152125D01*
X0033465Y0152723D02*
X0015000Y0152723D01*
X0015000Y0153322D02*
X0032867Y0153322D01*
X0032268Y0153920D02*
X0015000Y0153920D01*
X0015000Y0154519D02*
X0031670Y0154519D01*
X0031071Y0155117D02*
X0015000Y0155117D01*
X0015000Y0155716D02*
X0030473Y0155716D01*
X0029874Y0156314D02*
X0015000Y0156314D01*
X0015000Y0156913D02*
X0029276Y0156913D01*
X0028677Y0157511D02*
X0015000Y0157511D01*
X0015000Y0158110D02*
X0028079Y0158110D01*
X0027480Y0158708D02*
X0015000Y0158708D01*
X0015000Y0159307D02*
X0026882Y0159307D01*
X0026291Y0159905D02*
X0015000Y0159905D01*
X0015000Y0160504D02*
X0026291Y0160504D01*
X0024612Y0161103D02*
X0015000Y0161103D01*
X0015000Y0161701D02*
X0024091Y0161701D01*
X0024091Y0162300D02*
X0015000Y0162300D01*
X0015000Y0162898D02*
X0024091Y0162898D01*
X0024091Y0163497D02*
X0015000Y0163497D01*
X0015000Y0164095D02*
X0024091Y0164095D01*
X0024091Y0164694D02*
X0015000Y0164694D01*
X0015000Y0165292D02*
X0024091Y0165292D01*
X0024091Y0165891D02*
X0015000Y0165891D01*
X0015000Y0166489D02*
X0024091Y0166489D01*
X0024091Y0167088D02*
X0015000Y0167088D01*
X0015000Y0167686D02*
X0024091Y0167686D01*
X0024091Y0168285D02*
X0015000Y0168285D01*
X0015000Y0168883D02*
X0024091Y0168883D01*
X0024091Y0169482D02*
X0015000Y0169482D01*
X0015000Y0170080D02*
X0024091Y0170080D01*
X0024091Y0170679D02*
X0015000Y0170679D01*
X0015000Y0171277D02*
X0024391Y0171277D01*
X0031790Y0171277D02*
X0038210Y0171277D01*
X0037909Y0170679D02*
X0032091Y0170679D01*
X0032091Y0170080D02*
X0037909Y0170080D01*
X0037909Y0169482D02*
X0032091Y0169482D01*
X0032091Y0168883D02*
X0037909Y0168883D01*
X0037909Y0168285D02*
X0032091Y0168285D01*
X0032091Y0164095D02*
X0033741Y0164095D01*
X0034339Y0163497D02*
X0032091Y0163497D01*
X0032091Y0162898D02*
X0034938Y0162898D01*
X0035536Y0162300D02*
X0032091Y0162300D01*
X0032091Y0161701D02*
X0036135Y0161701D01*
X0036733Y0161103D02*
X0031570Y0161103D01*
X0030776Y0160504D02*
X0037332Y0160504D01*
X0037930Y0159905D02*
X0031374Y0159905D01*
X0037037Y0165891D02*
X0037909Y0165891D01*
X0037909Y0166489D02*
X0036438Y0166489D01*
X0035839Y0167088D02*
X0037909Y0167088D01*
X0037909Y0167686D02*
X0035241Y0167686D01*
X0037635Y0165292D02*
X0037909Y0165292D01*
X0041909Y0166300D02*
X0046909Y0171300D01*
X0050000Y0171300D01*
X0048144Y0173671D02*
X0043709Y0173671D01*
X0043709Y0173073D02*
X0046137Y0173073D01*
X0045538Y0172474D02*
X0043709Y0172474D01*
X0043709Y0171876D02*
X0044940Y0171876D01*
X0043709Y0174270D02*
X0049359Y0174270D01*
X0050641Y0174270D02*
X0054726Y0174270D01*
X0054726Y0174868D02*
X0043709Y0174868D01*
X0043709Y0175467D02*
X0054726Y0175467D01*
X0054726Y0176065D02*
X0043709Y0176065D01*
X0043709Y0176664D02*
X0054726Y0176664D01*
X0054726Y0177262D02*
X0043709Y0177262D01*
X0043709Y0177861D02*
X0054726Y0177861D01*
X0054726Y0178459D02*
X0050115Y0178459D01*
X0051568Y0179058D02*
X0054726Y0179058D01*
X0054726Y0179656D02*
X0052592Y0179656D01*
X0053388Y0180255D02*
X0054726Y0180255D01*
X0054726Y0180853D02*
X0054043Y0180853D01*
X0054601Y0181452D02*
X0054726Y0181452D01*
X0056686Y0185641D02*
X0056796Y0185641D01*
X0056813Y0186240D02*
X0057394Y0186240D01*
X0056880Y0186839D02*
X0057993Y0186839D01*
X0058591Y0187437D02*
X0056926Y0187437D01*
X0056894Y0188634D02*
X0059788Y0188634D01*
X0059190Y0188036D02*
X0047426Y0188036D01*
X0047426Y0187437D02*
X0046826Y0187437D01*
X0046826Y0186839D02*
X0047426Y0186839D01*
X0047426Y0186240D02*
X0046826Y0186240D01*
X0046826Y0185641D02*
X0047426Y0185641D01*
X0047426Y0185043D02*
X0046826Y0185043D01*
X0046826Y0184444D02*
X0047426Y0184444D01*
X0047426Y0183846D02*
X0046826Y0183846D01*
X0046826Y0183247D02*
X0047426Y0183247D01*
X0047426Y0182649D02*
X0046826Y0182649D01*
X0046826Y0182050D02*
X0047426Y0182050D01*
X0047426Y0181452D02*
X0046826Y0181452D01*
X0046826Y0180853D02*
X0047426Y0180853D01*
X0047426Y0180255D02*
X0046826Y0180255D01*
X0046826Y0179656D02*
X0047426Y0179656D01*
X0047426Y0179058D02*
X0046826Y0179058D01*
X0046826Y0178459D02*
X0047426Y0178459D01*
X0044137Y0178459D02*
X0043709Y0178459D01*
X0041909Y0179719D02*
X0037726Y0183902D01*
X0037726Y0191690D01*
X0043232Y0197196D01*
X0049833Y0197196D01*
X0058937Y0206300D01*
X0055178Y0215567D02*
X0038503Y0215567D01*
X0038032Y0215732D02*
X0036959Y0215977D01*
X0035865Y0216100D01*
X0035615Y0216100D01*
X0035615Y0206600D01*
X0045115Y0206600D01*
X0045115Y0206850D01*
X0044992Y0207944D01*
X0044747Y0209017D01*
X0044383Y0210056D01*
X0043906Y0211048D01*
X0043320Y0211980D01*
X0042634Y0212840D01*
X0041855Y0213619D01*
X0040995Y0214305D01*
X0040063Y0214891D01*
X0039071Y0215368D01*
X0038032Y0215732D01*
X0039901Y0214969D02*
X0053733Y0214969D01*
X0052865Y0214370D02*
X0040892Y0214370D01*
X0041664Y0213772D02*
X0052266Y0213772D01*
X0051668Y0213173D02*
X0042301Y0213173D01*
X0042846Y0212574D02*
X0051069Y0212574D01*
X0050471Y0211976D02*
X0043323Y0211976D01*
X0043699Y0211377D02*
X0050216Y0211377D01*
X0049968Y0210779D02*
X0044035Y0210779D01*
X0044323Y0210180D02*
X0049720Y0210180D01*
X0049473Y0209582D02*
X0044549Y0209582D01*
X0044755Y0208983D02*
X0049225Y0208983D01*
X0048977Y0208385D02*
X0044891Y0208385D01*
X0045009Y0207786D02*
X0048937Y0207786D01*
X0048937Y0207188D02*
X0045077Y0207188D01*
X0045115Y0206000D02*
X0035615Y0206000D01*
X0035615Y0206600D01*
X0035015Y0206600D01*
X0035015Y0216100D01*
X0034765Y0216100D01*
X0033671Y0215977D01*
X0032598Y0215732D01*
X0031559Y0215368D01*
X0030567Y0214891D01*
X0029635Y0214305D01*
X0028774Y0213619D01*
X0027996Y0212840D01*
X0027310Y0211980D01*
X0026724Y0211048D01*
X0026247Y0210056D01*
X0025883Y0209017D01*
X0025638Y0207944D01*
X0025515Y0206850D01*
X0025515Y0206600D01*
X0035015Y0206600D01*
X0035015Y0206000D01*
X0035615Y0206000D01*
X0035615Y0196500D01*
X0035865Y0196500D01*
X0036959Y0196623D01*
X0038032Y0196868D01*
X0039071Y0197232D01*
X0040063Y0197709D01*
X0040995Y0198295D01*
X0041855Y0198981D01*
X0042634Y0199760D01*
X0043320Y0200620D01*
X0043906Y0201552D01*
X0044383Y0202544D01*
X0044747Y0203583D01*
X0044992Y0204656D01*
X0045115Y0205750D01*
X0045115Y0206000D01*
X0045115Y0205991D02*
X0048937Y0205991D01*
X0048937Y0206589D02*
X0035615Y0206589D01*
X0035615Y0205991D02*
X0035015Y0205991D01*
X0035015Y0206000D02*
X0035015Y0196500D01*
X0034765Y0196500D01*
X0033671Y0196623D01*
X0032598Y0196868D01*
X0031559Y0197232D01*
X0030567Y0197709D01*
X0029635Y0198295D01*
X0028774Y0198981D01*
X0027996Y0199760D01*
X0027310Y0200620D01*
X0026724Y0201552D01*
X0026247Y0202544D01*
X0025883Y0203583D01*
X0025638Y0204656D01*
X0025515Y0205750D01*
X0025515Y0206000D01*
X0035015Y0206000D01*
X0035015Y0206589D02*
X0015000Y0206589D01*
X0015000Y0205991D02*
X0025515Y0205991D01*
X0025555Y0205392D02*
X0015000Y0205392D01*
X0015000Y0204794D02*
X0025623Y0204794D01*
X0025743Y0204195D02*
X0015000Y0204195D01*
X0015000Y0203597D02*
X0025880Y0203597D01*
X0026088Y0202998D02*
X0015000Y0202998D01*
X0015000Y0202400D02*
X0026316Y0202400D01*
X0026604Y0201801D02*
X0015000Y0201801D01*
X0015000Y0201203D02*
X0026944Y0201203D01*
X0027322Y0200604D02*
X0015000Y0200604D01*
X0015000Y0200006D02*
X0027800Y0200006D01*
X0028348Y0199407D02*
X0015000Y0199407D01*
X0015000Y0198809D02*
X0028991Y0198809D01*
X0029770Y0198210D02*
X0015000Y0198210D01*
X0015000Y0197612D02*
X0030770Y0197612D01*
X0032183Y0197013D02*
X0015000Y0197013D01*
X0015000Y0196415D02*
X0039905Y0196415D01*
X0039307Y0195816D02*
X0015000Y0195816D01*
X0015000Y0195218D02*
X0038708Y0195218D01*
X0038110Y0194619D02*
X0015000Y0194619D01*
X0015000Y0194021D02*
X0037511Y0194021D01*
X0036913Y0193422D02*
X0015000Y0193422D01*
X0015000Y0192824D02*
X0036314Y0192824D01*
X0035926Y0192225D02*
X0015000Y0192225D01*
X0015000Y0191627D02*
X0035926Y0191627D01*
X0035926Y0191028D02*
X0015000Y0191028D01*
X0015000Y0190430D02*
X0035926Y0190430D01*
X0035926Y0189831D02*
X0015000Y0189831D01*
X0015000Y0189233D02*
X0035926Y0189233D01*
X0035926Y0188634D02*
X0015000Y0188634D01*
X0015000Y0188036D02*
X0035926Y0188036D01*
X0035926Y0187437D02*
X0015000Y0187437D01*
X0015000Y0186839D02*
X0035926Y0186839D01*
X0035926Y0186240D02*
X0015000Y0186240D01*
X0015000Y0185641D02*
X0035926Y0185641D01*
X0035926Y0185043D02*
X0015000Y0185043D01*
X0015000Y0184444D02*
X0035926Y0184444D01*
X0035926Y0183846D02*
X0015000Y0183846D01*
X0015000Y0183247D02*
X0035926Y0183247D01*
X0036434Y0182649D02*
X0015000Y0182649D01*
X0015000Y0182050D02*
X0037032Y0182050D01*
X0037631Y0181452D02*
X0015000Y0181452D01*
X0015000Y0180853D02*
X0038229Y0180853D01*
X0038828Y0180255D02*
X0015000Y0180255D01*
X0015000Y0179656D02*
X0039426Y0179656D01*
X0040025Y0179058D02*
X0015000Y0179058D01*
X0015000Y0178459D02*
X0040109Y0178459D01*
X0040109Y0177861D02*
X0015000Y0177861D01*
X0015000Y0177262D02*
X0040109Y0177262D01*
X0040109Y0176664D02*
X0015000Y0176664D01*
X0015000Y0176065D02*
X0040109Y0176065D01*
X0040109Y0175467D02*
X0015000Y0175467D01*
X0015000Y0174868D02*
X0040109Y0174868D01*
X0040109Y0174270D02*
X0015000Y0174270D01*
X0015000Y0173671D02*
X0040109Y0173671D01*
X0040109Y0173073D02*
X0015000Y0173073D01*
X0015000Y0172474D02*
X0040109Y0172474D01*
X0040109Y0171876D02*
X0015000Y0171876D01*
X0035015Y0197013D02*
X0035615Y0197013D01*
X0035615Y0197612D02*
X0035015Y0197612D01*
X0035015Y0198210D02*
X0035615Y0198210D01*
X0035615Y0198809D02*
X0035015Y0198809D01*
X0035015Y0199407D02*
X0035615Y0199407D01*
X0035615Y0200006D02*
X0035015Y0200006D01*
X0035015Y0200604D02*
X0035615Y0200604D01*
X0035615Y0201203D02*
X0035015Y0201203D01*
X0035015Y0201801D02*
X0035615Y0201801D01*
X0035615Y0202400D02*
X0035015Y0202400D01*
X0035015Y0202998D02*
X0035615Y0202998D01*
X0035615Y0203597D02*
X0035015Y0203597D01*
X0035015Y0204195D02*
X0035615Y0204195D01*
X0035615Y0204794D02*
X0035015Y0204794D01*
X0035015Y0205392D02*
X0035615Y0205392D01*
X0035615Y0207188D02*
X0035015Y0207188D01*
X0035015Y0207786D02*
X0035615Y0207786D01*
X0035615Y0208385D02*
X0035015Y0208385D01*
X0035015Y0208983D02*
X0035615Y0208983D01*
X0035615Y0209582D02*
X0035015Y0209582D01*
X0035015Y0210180D02*
X0035615Y0210180D01*
X0035615Y0210779D02*
X0035015Y0210779D01*
X0035015Y0211377D02*
X0035615Y0211377D01*
X0035615Y0211976D02*
X0035015Y0211976D01*
X0035015Y0212574D02*
X0035615Y0212574D01*
X0035615Y0213173D02*
X0035015Y0213173D01*
X0035015Y0213772D02*
X0035615Y0213772D01*
X0035615Y0214370D02*
X0035015Y0214370D01*
X0035015Y0214969D02*
X0035615Y0214969D01*
X0035615Y0215567D02*
X0035015Y0215567D01*
X0032127Y0215567D02*
X0015000Y0215567D01*
X0015000Y0214969D02*
X0030729Y0214969D01*
X0029738Y0214370D02*
X0015000Y0214370D01*
X0015000Y0213772D02*
X0028966Y0213772D01*
X0028329Y0213173D02*
X0015000Y0213173D01*
X0015000Y0212574D02*
X0027784Y0212574D01*
X0027307Y0211976D02*
X0015000Y0211976D01*
X0015000Y0211377D02*
X0026931Y0211377D01*
X0026595Y0210779D02*
X0015000Y0210779D01*
X0015000Y0210180D02*
X0026307Y0210180D01*
X0026081Y0209582D02*
X0015000Y0209582D01*
X0015000Y0208983D02*
X0025875Y0208983D01*
X0025739Y0208385D02*
X0015000Y0208385D01*
X0015000Y0207786D02*
X0025620Y0207786D01*
X0025553Y0207188D02*
X0015000Y0207188D01*
X0015000Y0216166D02*
X0056623Y0216166D01*
X0061251Y0216166D02*
X0153158Y0216166D01*
X0152889Y0216764D02*
X0015000Y0216764D01*
X0015000Y0217363D02*
X0151913Y0217363D01*
X0151268Y0217961D02*
X0015000Y0217961D01*
X0015000Y0218560D02*
X0150811Y0218560D01*
X0150480Y0219158D02*
X0015000Y0219158D01*
X0015000Y0219757D02*
X0150244Y0219757D01*
X0150087Y0220355D02*
X0015000Y0220355D01*
X0015000Y0220954D02*
X0150000Y0220954D01*
X0150072Y0222151D02*
X0015000Y0222151D01*
X0015000Y0222749D02*
X0150214Y0222749D01*
X0150432Y0223348D02*
X0015000Y0223348D01*
X0015000Y0223946D02*
X0150742Y0223946D01*
X0151177Y0224545D02*
X0015000Y0224545D01*
X0015000Y0225143D02*
X0151783Y0225143D01*
X0152704Y0225742D02*
X0015000Y0225742D01*
X0015000Y0221552D02*
X0154700Y0221552D01*
X0154700Y0222151D02*
X0155300Y0222151D01*
X0155300Y0221600D02*
X0155300Y0226300D01*
X0155394Y0226300D01*
X0156171Y0226177D01*
X0156919Y0225934D01*
X0157621Y0225576D01*
X0158257Y0225114D01*
X0158814Y0224557D01*
X0159276Y0223921D01*
X0159634Y0223219D01*
X0159877Y0222471D01*
X0160000Y0221694D01*
X0160000Y0221600D01*
X0155300Y0221600D01*
X0155300Y0221552D02*
X0160000Y0221552D01*
X0160000Y0220954D02*
X0160000Y0220954D01*
X0160000Y0220355D02*
X0159913Y0220355D01*
X0160000Y0219757D02*
X0159756Y0219757D01*
X0159520Y0219158D02*
X0160000Y0219158D01*
X0160000Y0218560D02*
X0159189Y0218560D01*
X0158732Y0217961D02*
X0160000Y0217961D01*
X0160000Y0217363D02*
X0158087Y0217363D01*
X0157111Y0216764D02*
X0160000Y0216764D01*
X0160000Y0216166D02*
X0156842Y0216166D01*
X0158087Y0215567D02*
X0160000Y0215567D01*
X0160000Y0214969D02*
X0158685Y0214969D01*
X0159284Y0214370D02*
X0160000Y0214370D01*
X0160000Y0213772D02*
X0159605Y0213772D01*
X0159853Y0213173D02*
X0160000Y0213173D01*
X0155000Y0211300D02*
X0150000Y0206300D01*
X0110000Y0206300D01*
X0113345Y0202998D02*
X0150075Y0202998D01*
X0149827Y0202400D02*
X0112747Y0202400D01*
X0113944Y0203597D02*
X0150323Y0203597D01*
X0150571Y0204195D02*
X0114215Y0204195D01*
X0114224Y0208385D02*
X0149539Y0208385D01*
X0150138Y0208983D02*
X0113963Y0208983D01*
X0113365Y0209582D02*
X0150083Y0209582D01*
X0149835Y0210180D02*
X0112766Y0210180D01*
X0111469Y0210779D02*
X0149800Y0210779D01*
X0149800Y0211377D02*
X0067658Y0211377D01*
X0067906Y0210779D02*
X0078531Y0210779D01*
X0077234Y0210180D02*
X0068154Y0210180D01*
X0068402Y0209582D02*
X0076635Y0209582D01*
X0076037Y0208983D02*
X0068649Y0208983D01*
X0068897Y0208385D02*
X0075776Y0208385D01*
X0075528Y0207786D02*
X0068937Y0207786D01*
X0068937Y0207188D02*
X0075300Y0207188D01*
X0075300Y0206589D02*
X0068937Y0206589D01*
X0068937Y0205991D02*
X0075300Y0205991D01*
X0075300Y0205392D02*
X0068937Y0205392D01*
X0068937Y0204794D02*
X0075537Y0204794D01*
X0075350Y0204195D02*
X0068889Y0204195D01*
X0068641Y0203597D02*
X0074751Y0203597D01*
X0074153Y0202998D02*
X0068393Y0202998D01*
X0068145Y0202400D02*
X0073554Y0202400D01*
X0072956Y0201801D02*
X0067897Y0201801D01*
X0067650Y0201203D02*
X0072357Y0201203D01*
X0071759Y0200604D02*
X0067383Y0200604D01*
X0066785Y0200006D02*
X0071160Y0200006D01*
X0070562Y0199407D02*
X0066186Y0199407D01*
X0065588Y0198809D02*
X0069963Y0198809D01*
X0069365Y0198210D02*
X0064989Y0198210D01*
X0064093Y0197612D02*
X0068766Y0197612D01*
X0068168Y0197013D02*
X0062648Y0197013D01*
X0061203Y0196415D02*
X0067569Y0196415D01*
X0066971Y0195816D02*
X0052782Y0195816D01*
X0053538Y0195218D02*
X0066372Y0195218D01*
X0065774Y0194619D02*
X0054162Y0194619D01*
X0054697Y0194021D02*
X0065175Y0194021D01*
X0064577Y0193422D02*
X0055165Y0193422D01*
X0055541Y0192824D02*
X0063978Y0192824D01*
X0063380Y0192225D02*
X0055870Y0192225D01*
X0056158Y0191627D02*
X0062781Y0191627D01*
X0062183Y0191028D02*
X0056378Y0191028D01*
X0056577Y0190430D02*
X0061584Y0190430D01*
X0060985Y0189831D02*
X0056714Y0189831D01*
X0056826Y0189233D02*
X0060387Y0189233D01*
X0056671Y0196415D02*
X0051816Y0196415D01*
X0052196Y0197013D02*
X0055226Y0197013D01*
X0053781Y0197612D02*
X0052794Y0197612D01*
X0050097Y0200006D02*
X0042830Y0200006D01*
X0043307Y0200604D02*
X0050491Y0200604D01*
X0050224Y0201203D02*
X0043686Y0201203D01*
X0044026Y0201801D02*
X0049977Y0201801D01*
X0049729Y0202400D02*
X0044314Y0202400D01*
X0044542Y0202998D02*
X0049481Y0202998D01*
X0049233Y0203597D02*
X0044750Y0203597D01*
X0044887Y0204195D02*
X0048985Y0204195D01*
X0048937Y0204794D02*
X0045007Y0204794D01*
X0045075Y0205392D02*
X0048937Y0205392D01*
X0049499Y0199407D02*
X0042281Y0199407D01*
X0042299Y0198809D02*
X0041639Y0198809D01*
X0041701Y0198210D02*
X0040860Y0198210D01*
X0041102Y0197612D02*
X0039860Y0197612D01*
X0040504Y0197013D02*
X0038447Y0197013D01*
X0041909Y0179719D02*
X0041909Y0166300D01*
X0046484Y0153920D02*
X0055075Y0153920D01*
X0054476Y0153322D02*
X0047205Y0153322D01*
X0047646Y0152723D02*
X0053878Y0152723D01*
X0053279Y0152125D02*
X0047894Y0152125D01*
X0047989Y0151526D02*
X0052681Y0151526D01*
X0052082Y0150928D02*
X0047989Y0150928D01*
X0047833Y0150329D02*
X0051484Y0150329D01*
X0050885Y0149731D02*
X0047585Y0149731D01*
X0047059Y0149132D02*
X0050287Y0149132D01*
X0049688Y0148534D02*
X0046132Y0148534D01*
X0045457Y0147935D02*
X0049090Y0147935D01*
X0048491Y0147337D02*
X0045457Y0147337D01*
X0045457Y0146738D02*
X0047893Y0146738D01*
X0047294Y0146140D02*
X0045457Y0146140D01*
X0045457Y0145541D02*
X0046696Y0145541D01*
X0046097Y0144943D02*
X0045457Y0144943D01*
X0045457Y0144344D02*
X0045499Y0144344D01*
X0042283Y0146300D02*
X0042283Y0148583D01*
X0045000Y0151300D01*
X0040290Y0148294D02*
X0042283Y0146300D01*
X0040290Y0148294D02*
X0040290Y0148444D01*
X0037717Y0146300D02*
X0037717Y0144017D01*
X0025000Y0131300D01*
X0025000Y0121300D02*
X0075900Y0172200D01*
X0075900Y0177998D01*
X0080000Y0182098D01*
X0080000Y0186300D01*
X0084100Y0187998D02*
X0080000Y0192098D01*
X0080000Y0196300D01*
X0083944Y0203597D02*
X0106056Y0203597D01*
X0105785Y0204195D02*
X0084215Y0204195D01*
X0084463Y0204794D02*
X0105537Y0204794D01*
X0105300Y0205392D02*
X0084700Y0205392D01*
X0084700Y0205991D02*
X0105300Y0205991D01*
X0105300Y0206589D02*
X0084700Y0206589D01*
X0084700Y0207188D02*
X0105300Y0207188D01*
X0105528Y0207786D02*
X0084472Y0207786D01*
X0084224Y0208385D02*
X0105776Y0208385D01*
X0106037Y0208983D02*
X0083963Y0208983D01*
X0083365Y0209582D02*
X0106635Y0209582D01*
X0107234Y0210180D02*
X0082766Y0210180D01*
X0081469Y0210779D02*
X0108531Y0210779D01*
X0110000Y0196300D02*
X0150000Y0196300D01*
X0155000Y0201300D01*
X0152737Y0205991D02*
X0152236Y0205991D01*
X0151738Y0205392D02*
X0151638Y0205392D01*
X0151140Y0204794D02*
X0151039Y0204794D01*
X0149800Y0211976D02*
X0067403Y0211976D01*
X0066805Y0212574D02*
X0149899Y0212574D01*
X0150147Y0213173D02*
X0066206Y0213173D01*
X0065608Y0213772D02*
X0150395Y0213772D01*
X0150716Y0214370D02*
X0065009Y0214370D01*
X0064141Y0214969D02*
X0151315Y0214969D01*
X0151913Y0215567D02*
X0062696Y0215567D01*
X0054563Y0173671D02*
X0051856Y0173671D01*
X0052454Y0173073D02*
X0053965Y0173073D01*
X0053366Y0172474D02*
X0052749Y0172474D01*
X0072148Y0161701D02*
X0078821Y0161701D01*
X0077376Y0162300D02*
X0072747Y0162300D01*
X0073345Y0162898D02*
X0076755Y0162898D01*
X0076157Y0163497D02*
X0073944Y0163497D01*
X0074542Y0164095D02*
X0075826Y0164095D01*
X0075578Y0164694D02*
X0075141Y0164694D01*
X0083321Y0171277D02*
X0149800Y0171277D01*
X0149800Y0170679D02*
X0111711Y0170679D01*
X0111601Y0171876D02*
X0149800Y0171876D01*
X0149858Y0172474D02*
X0112821Y0172474D01*
X0113420Y0173073D02*
X0150106Y0173073D01*
X0150354Y0173671D02*
X0113998Y0173671D01*
X0114246Y0174270D02*
X0150616Y0174270D01*
X0151114Y0174868D02*
X0151214Y0174868D01*
X0151712Y0175467D02*
X0151813Y0175467D01*
X0152311Y0176065D02*
X0152916Y0176065D01*
X0150212Y0179058D02*
X0113889Y0179058D01*
X0114193Y0178459D02*
X0149614Y0178459D01*
X0150052Y0179656D02*
X0113290Y0179656D01*
X0112692Y0180255D02*
X0149804Y0180255D01*
X0149800Y0180853D02*
X0111289Y0180853D01*
X0110000Y0176300D02*
X0150000Y0176300D01*
X0155000Y0181300D01*
X0153338Y0186240D02*
X0152486Y0186240D01*
X0151988Y0185641D02*
X0151887Y0185641D01*
X0151389Y0185043D02*
X0151289Y0185043D01*
X0150000Y0186300D02*
X0155000Y0191300D01*
X0155000Y0171300D02*
X0150000Y0166300D01*
X0110000Y0166300D01*
X0112867Y0170080D02*
X0149877Y0170080D01*
X0150125Y0169482D02*
X0113465Y0169482D01*
X0114017Y0168883D02*
X0150038Y0168883D01*
X0149439Y0168285D02*
X0114265Y0168285D01*
X0114174Y0164095D02*
X0150529Y0164095D01*
X0150281Y0163497D02*
X0113843Y0163497D01*
X0113245Y0162898D02*
X0150034Y0162898D01*
X0149800Y0162300D02*
X0112624Y0162300D01*
X0114102Y0153920D02*
X0150457Y0153920D01*
X0150209Y0153322D02*
X0113669Y0153322D01*
X0113070Y0152723D02*
X0149961Y0152723D01*
X0149800Y0152125D02*
X0112202Y0152125D01*
X0107798Y0152125D02*
X0082202Y0152125D01*
X0080300Y0140155D02*
X0079700Y0140155D01*
X0079700Y0139556D02*
X0080300Y0139556D01*
X0080300Y0138958D02*
X0079700Y0138958D01*
X0079700Y0138359D02*
X0080300Y0138359D01*
X0080300Y0137761D02*
X0079700Y0137761D01*
X0079700Y0137162D02*
X0080300Y0137162D01*
X0079700Y0136564D02*
X0057584Y0136564D01*
X0057583Y0135965D02*
X0056983Y0135965D01*
X0056983Y0135367D02*
X0057583Y0135367D01*
X0057583Y0134768D02*
X0056983Y0134768D01*
X0056983Y0134170D02*
X0057583Y0134170D01*
X0057583Y0133571D02*
X0056983Y0133571D01*
X0025300Y0080902D02*
X0024700Y0080902D01*
X0024700Y0080303D02*
X0025300Y0080303D01*
X0025300Y0079705D02*
X0024700Y0079705D01*
X0024700Y0079106D02*
X0025300Y0079106D01*
X0025300Y0078508D02*
X0024700Y0078508D01*
X0024700Y0077909D02*
X0025300Y0077909D01*
X0025300Y0077311D02*
X0024700Y0077311D01*
X0024700Y0076712D02*
X0025300Y0076712D01*
X0015000Y0063545D02*
X0068018Y0063545D01*
X0067447Y0062947D02*
X0015000Y0062947D01*
X0015000Y0062348D02*
X0067199Y0062348D01*
X0067011Y0061750D02*
X0015000Y0061750D01*
X0015000Y0061151D02*
X0067011Y0061151D01*
X0067074Y0060553D02*
X0015000Y0060553D01*
X0015000Y0059954D02*
X0067322Y0059954D01*
X0067717Y0059356D02*
X0015000Y0059356D01*
X0015000Y0058757D02*
X0068230Y0058757D01*
X0067632Y0058159D02*
X0015000Y0058159D01*
X0015000Y0057560D02*
X0067287Y0057560D01*
X0067039Y0056962D02*
X0015000Y0056962D01*
X0015000Y0056363D02*
X0067011Y0056363D01*
X0067011Y0055765D02*
X0015000Y0055765D01*
X0015000Y0055166D02*
X0067234Y0055166D01*
X0067505Y0054568D02*
X0015000Y0054568D01*
X0015000Y0053969D02*
X0068104Y0053969D01*
X0068200Y0053370D02*
X0015000Y0053370D01*
X0015000Y0052772D02*
X0068200Y0052772D01*
X0068200Y0052173D02*
X0015000Y0052173D01*
X0015000Y0051575D02*
X0067729Y0051575D01*
X0067131Y0050976D02*
X0015000Y0050976D01*
X0015000Y0050378D02*
X0066532Y0050378D01*
X0065934Y0049779D02*
X0015000Y0049779D01*
X0015000Y0049181D02*
X0064145Y0049181D01*
X0063055Y0048582D02*
X0015000Y0048582D01*
X0015000Y0047984D02*
X0062462Y0047984D01*
X0062214Y0047385D02*
X0015000Y0047385D01*
X0015000Y0046787D02*
X0062011Y0046787D01*
X0062011Y0046188D02*
X0015000Y0046188D01*
X0015000Y0045590D02*
X0062059Y0045590D01*
X0062307Y0044991D02*
X0015000Y0044991D01*
X0015000Y0044393D02*
X0062680Y0044393D01*
X0063279Y0043794D02*
X0015000Y0043794D01*
X0065000Y0046300D02*
X0070000Y0051300D01*
X0070000Y0056300D01*
X0071896Y0053969D02*
X0074785Y0053969D01*
X0074187Y0054568D02*
X0072495Y0054568D01*
X0072766Y0055166D02*
X0073588Y0055166D01*
X0072990Y0055765D02*
X0072989Y0055765D01*
X0071800Y0053370D02*
X0075384Y0053370D01*
X0075982Y0052772D02*
X0071800Y0052772D01*
X0071800Y0052173D02*
X0076581Y0052173D01*
X0077179Y0051575D02*
X0071800Y0051575D01*
X0071800Y0050976D02*
X0077778Y0050976D01*
X0078376Y0050378D02*
X0071624Y0050378D01*
X0071025Y0049779D02*
X0078975Y0049779D01*
X0079573Y0049181D02*
X0070426Y0049181D01*
X0069828Y0048582D02*
X0080172Y0048582D01*
X0080771Y0047984D02*
X0069229Y0047984D01*
X0068631Y0047385D02*
X0081369Y0047385D01*
X0075000Y0061300D02*
X0085000Y0071300D01*
X0095352Y0079106D02*
X0106160Y0079106D01*
X0106758Y0079705D02*
X0095951Y0079705D01*
X0096549Y0080303D02*
X0107384Y0080303D01*
X0108829Y0080902D02*
X0097148Y0080902D01*
X0107921Y0091675D02*
X0108884Y0091675D01*
X0139140Y0126389D02*
X0143268Y0126389D01*
X0141959Y0126987D02*
X0139738Y0126987D01*
X0140337Y0127586D02*
X0141360Y0127586D01*
X0150764Y0154519D02*
X0150865Y0154519D01*
X0151363Y0155117D02*
X0151463Y0155117D01*
X0151961Y0155716D02*
X0152073Y0155716D01*
X0152560Y0156314D02*
X0153448Y0156314D01*
X0150000Y0156300D02*
X0155000Y0161300D01*
X0152494Y0165891D02*
X0152136Y0165891D01*
X0151638Y0165292D02*
X0151538Y0165292D01*
X0151040Y0164694D02*
X0150939Y0164694D01*
X0152735Y0166489D02*
X0153026Y0166489D01*
X0159928Y0222151D02*
X0160000Y0222151D01*
X0160000Y0222749D02*
X0159786Y0222749D01*
X0160000Y0223348D02*
X0159568Y0223348D01*
X0159258Y0223946D02*
X0160000Y0223946D01*
X0160000Y0224545D02*
X0158823Y0224545D01*
X0158217Y0225143D02*
X0160000Y0225143D01*
X0160000Y0225742D02*
X0157296Y0225742D01*
X0155300Y0225742D02*
X0154700Y0225742D01*
X0154700Y0225143D02*
X0155300Y0225143D01*
X0155300Y0224545D02*
X0154700Y0224545D01*
X0154700Y0223946D02*
X0155300Y0223946D01*
X0155300Y0223348D02*
X0154700Y0223348D01*
X0154700Y0222749D02*
X0155300Y0222749D01*
X0097406Y0045590D02*
X0093064Y0045590D01*
X0093663Y0044991D02*
X0096620Y0044991D01*
X0096067Y0044393D02*
X0094261Y0044393D01*
X0094595Y0043794D02*
X0095659Y0043794D01*
X0095359Y0043196D02*
X0094843Y0043196D01*
X0095091Y0042597D02*
X0095164Y0042597D01*
D16*
X0075000Y0061300D03*
X0070000Y0061300D03*
X0070000Y0056300D03*
X0065000Y0046300D03*
X0065000Y0151300D03*
X0050000Y0171300D03*
X0045000Y0151300D03*
M02*
