G75*
%MOIN*%
%OFA0B0*%
%FSLAX25Y25*%
%IPPOS*%
%LPD*%
%AMOC8*
5,1,8,0,0,1.08239X$1,22.5*
%
%ADD10C,0.07400*%
%ADD11C,0.17000*%
%ADD12C,0.06400*%
%ADD13C,0.00600*%
%ADD14C,0.02978*%
D10*
X0025000Y0081300D03*
X0025000Y0091300D03*
X0025000Y0101300D03*
X0025000Y0111300D03*
X0025000Y0121300D03*
X0025000Y0131300D03*
X0080000Y0041300D03*
X0080000Y0031300D03*
X0090000Y0031300D03*
X0090000Y0041300D03*
X0100000Y0041300D03*
X0100000Y0031300D03*
X0135000Y0041300D03*
X0145000Y0041300D03*
X0145000Y0086300D03*
X0135000Y0086300D03*
X0135000Y0131300D03*
X0145000Y0131300D03*
X0155000Y0151300D03*
X0155000Y0161300D03*
X0155000Y0171300D03*
X0155000Y0181300D03*
X0155000Y0191300D03*
X0155000Y0201300D03*
X0155000Y0211300D03*
X0155000Y0221300D03*
D11*
X0058937Y0206300D03*
X0047126Y0187796D03*
X0035315Y0206300D03*
D12*
X0080000Y0206300D03*
X0080000Y0196300D03*
X0080000Y0186300D03*
X0080000Y0176300D03*
X0080000Y0166300D03*
X0080000Y0156300D03*
X0080000Y0146300D03*
X0080000Y0136300D03*
X0080000Y0126300D03*
X0080000Y0116300D03*
X0080000Y0106300D03*
X0080000Y0096300D03*
X0080000Y0086300D03*
X0080000Y0076300D03*
X0110000Y0076300D03*
X0110000Y0086300D03*
X0110000Y0096300D03*
X0110000Y0106300D03*
X0110000Y0116300D03*
X0110000Y0126300D03*
X0110000Y0136300D03*
X0110000Y0146300D03*
X0110000Y0156300D03*
X0110000Y0166300D03*
X0110000Y0176300D03*
X0110000Y0186300D03*
X0110000Y0196300D03*
X0110000Y0206300D03*
D13*
X0160000Y0001300D02*
X0015000Y0001300D01*
X0015000Y0226300D01*
X0160000Y0226300D01*
X0160000Y0212817D01*
X0159408Y0214246D01*
X0157946Y0215708D01*
X0156198Y0216432D01*
X0156919Y0216666D01*
X0157621Y0217024D01*
X0158257Y0217486D01*
X0158814Y0218043D01*
X0159276Y0218679D01*
X0159634Y0219381D01*
X0159877Y0220129D01*
X0160000Y0220906D01*
X0160000Y0221000D01*
X0155300Y0221000D01*
X0155300Y0221600D01*
X0160000Y0221600D01*
X0160000Y0221694D01*
X0159877Y0222471D01*
X0159634Y0223219D01*
X0159276Y0223921D01*
X0158814Y0224557D01*
X0158257Y0225114D01*
X0157621Y0225576D01*
X0156919Y0225934D01*
X0156171Y0226177D01*
X0155394Y0226300D01*
X0155300Y0226300D01*
X0155300Y0221600D01*
X0154700Y0221600D01*
X0154700Y0226300D01*
X0154606Y0226300D01*
X0153829Y0226177D01*
X0153081Y0225934D01*
X0152379Y0225576D01*
X0151743Y0225114D01*
X0151186Y0224557D01*
X0150724Y0223921D01*
X0150366Y0223219D01*
X0150123Y0222471D01*
X0150000Y0221694D01*
X0150000Y0221600D01*
X0154700Y0221600D01*
X0154700Y0221000D01*
X0150000Y0221000D01*
X0150000Y0220906D01*
X0150123Y0220129D01*
X0150366Y0219381D01*
X0150724Y0218679D01*
X0151186Y0218043D01*
X0151743Y0217486D01*
X0152379Y0217024D01*
X0153081Y0216666D01*
X0153802Y0216432D01*
X0152054Y0215708D01*
X0150592Y0214246D01*
X0149800Y0212334D01*
X0149800Y0210266D01*
X0150592Y0208354D01*
X0152054Y0206892D01*
X0153483Y0206300D01*
X0152054Y0205708D01*
X0150592Y0204246D01*
X0149800Y0202334D01*
X0149800Y0200266D01*
X0150592Y0198354D01*
X0152054Y0196892D01*
X0153483Y0196300D01*
X0152054Y0195708D01*
X0150592Y0194246D01*
X0149800Y0192334D01*
X0149800Y0190266D01*
X0150592Y0188354D01*
X0152054Y0186892D01*
X0153483Y0186300D01*
X0152054Y0185708D01*
X0150592Y0184246D01*
X0149800Y0182334D01*
X0149800Y0180266D01*
X0150592Y0178354D01*
X0152054Y0176892D01*
X0153483Y0176300D01*
X0152054Y0175708D01*
X0150592Y0174246D01*
X0149800Y0172334D01*
X0149800Y0170266D01*
X0150592Y0168354D01*
X0152054Y0166892D01*
X0153483Y0166300D01*
X0152054Y0165708D01*
X0150592Y0164246D01*
X0149800Y0162334D01*
X0149800Y0160266D01*
X0150592Y0158354D01*
X0152054Y0156892D01*
X0153483Y0156300D01*
X0152054Y0155708D01*
X0150592Y0154246D01*
X0149800Y0152334D01*
X0149800Y0150266D01*
X0150592Y0148354D01*
X0152054Y0146892D01*
X0153966Y0146100D01*
X0156034Y0146100D01*
X0157946Y0146892D01*
X0159408Y0148354D01*
X0160000Y0149783D01*
X0160000Y0001300D01*
X0015000Y0001300D01*
X0015000Y0001899D02*
X0160000Y0001899D01*
X0160000Y0002497D02*
X0015000Y0002497D01*
X0015000Y0003096D02*
X0160000Y0003096D01*
X0160000Y0003694D02*
X0015000Y0003694D01*
X0015000Y0004293D02*
X0160000Y0004293D01*
X0160000Y0004891D02*
X0015000Y0004891D01*
X0015000Y0005490D02*
X0160000Y0005490D01*
X0160000Y0006088D02*
X0015000Y0006088D01*
X0015000Y0006687D02*
X0160000Y0006687D01*
X0160000Y0007285D02*
X0015000Y0007285D01*
X0015000Y0007884D02*
X0160000Y0007884D01*
X0160000Y0008482D02*
X0015000Y0008482D01*
X0015000Y0009081D02*
X0160000Y0009081D01*
X0160000Y0009679D02*
X0015000Y0009679D01*
X0015000Y0010278D02*
X0160000Y0010278D01*
X0160000Y0010876D02*
X0015000Y0010876D01*
X0015000Y0011475D02*
X0160000Y0011475D01*
X0160000Y0012073D02*
X0015000Y0012073D01*
X0015000Y0012672D02*
X0160000Y0012672D01*
X0160000Y0013270D02*
X0015000Y0013270D01*
X0015000Y0013869D02*
X0160000Y0013869D01*
X0160000Y0014467D02*
X0015000Y0014467D01*
X0015000Y0015066D02*
X0160000Y0015066D01*
X0160000Y0015664D02*
X0015000Y0015664D01*
X0015000Y0016263D02*
X0160000Y0016263D01*
X0160000Y0016861D02*
X0015000Y0016861D01*
X0015000Y0017460D02*
X0160000Y0017460D01*
X0160000Y0018058D02*
X0015000Y0018058D01*
X0015000Y0018657D02*
X0160000Y0018657D01*
X0160000Y0019255D02*
X0015000Y0019255D01*
X0015000Y0019854D02*
X0160000Y0019854D01*
X0160000Y0020452D02*
X0015000Y0020452D01*
X0015000Y0021051D02*
X0160000Y0021051D01*
X0160000Y0021649D02*
X0015000Y0021649D01*
X0015000Y0022248D02*
X0160000Y0022248D01*
X0160000Y0022846D02*
X0015000Y0022846D01*
X0015000Y0023445D02*
X0160000Y0023445D01*
X0160000Y0024043D02*
X0015000Y0024043D01*
X0015000Y0024642D02*
X0160000Y0024642D01*
X0160000Y0025240D02*
X0015000Y0025240D01*
X0015000Y0025839D02*
X0160000Y0025839D01*
X0160000Y0026437D02*
X0101849Y0026437D01*
X0101034Y0026100D02*
X0102946Y0026892D01*
X0104408Y0028354D01*
X0105200Y0030266D01*
X0105200Y0032334D01*
X0104408Y0034246D01*
X0103754Y0034900D01*
X0137651Y0034900D01*
X0138705Y0035954D01*
X0138705Y0035954D01*
X0140346Y0037595D01*
X0140849Y0038098D01*
X0142054Y0036892D01*
X0143966Y0036100D01*
X0146034Y0036100D01*
X0147946Y0036892D01*
X0149408Y0038354D01*
X0150200Y0040266D01*
X0150200Y0042334D01*
X0149408Y0044246D01*
X0147946Y0045708D01*
X0146034Y0046500D01*
X0143966Y0046500D01*
X0142054Y0045708D01*
X0140849Y0044502D01*
X0138705Y0046646D01*
X0137651Y0047700D01*
X0135347Y0047700D01*
X0111297Y0071750D01*
X0112662Y0072316D01*
X0113984Y0073638D01*
X0114700Y0075365D01*
X0114700Y0077235D01*
X0113984Y0078962D01*
X0112662Y0080284D01*
X0110935Y0081000D01*
X0109065Y0081000D01*
X0107700Y0080435D01*
X0107700Y0082165D01*
X0109065Y0081600D01*
X0110935Y0081600D01*
X0112662Y0082316D01*
X0113984Y0083638D01*
X0114700Y0085365D01*
X0114700Y0087235D01*
X0114343Y0088097D01*
X0136800Y0110554D01*
X0136800Y0126417D01*
X0137946Y0126892D01*
X0139408Y0128354D01*
X0140000Y0129783D01*
X0140592Y0128354D01*
X0142054Y0126892D01*
X0143200Y0126417D01*
X0143200Y0114046D01*
X0141200Y0112046D01*
X0141200Y0110554D01*
X0142254Y0109500D01*
X0143746Y0109500D01*
X0146800Y0112554D01*
X0146800Y0126417D01*
X0147946Y0126892D01*
X0149408Y0128354D01*
X0150200Y0130266D01*
X0150200Y0132334D01*
X0149408Y0134246D01*
X0147946Y0135708D01*
X0146034Y0136500D01*
X0143966Y0136500D01*
X0142054Y0135708D01*
X0140592Y0134246D01*
X0140000Y0132817D01*
X0139408Y0134246D01*
X0137946Y0135708D01*
X0136034Y0136500D01*
X0133966Y0136500D01*
X0132054Y0135708D01*
X0130592Y0134246D01*
X0129800Y0132334D01*
X0129800Y0130266D01*
X0130592Y0128354D01*
X0132054Y0126892D01*
X0133200Y0126417D01*
X0133200Y0112046D01*
X0111797Y0090643D01*
X0110935Y0091000D01*
X0109065Y0091000D01*
X0107700Y0090435D01*
X0107700Y0092165D01*
X0109065Y0091600D01*
X0110935Y0091600D01*
X0112662Y0092316D01*
X0113984Y0093638D01*
X0114700Y0095365D01*
X0114700Y0097235D01*
X0113984Y0098962D01*
X0112662Y0100284D01*
X0110935Y0101000D01*
X0109065Y0101000D01*
X0107700Y0100435D01*
X0107700Y0102165D01*
X0109065Y0101600D01*
X0110935Y0101600D01*
X0112662Y0102316D01*
X0113984Y0103638D01*
X0114700Y0105365D01*
X0114700Y0107235D01*
X0113984Y0108962D01*
X0112662Y0110284D01*
X0110935Y0111000D01*
X0109065Y0111000D01*
X0107700Y0110435D01*
X0107700Y0111454D01*
X0108203Y0111957D01*
X0109065Y0111600D01*
X0110935Y0111600D01*
X0112662Y0112316D01*
X0113984Y0113638D01*
X0114700Y0115365D01*
X0114700Y0117235D01*
X0113984Y0118962D01*
X0112662Y0120284D01*
X0110935Y0121000D01*
X0109065Y0121000D01*
X0107338Y0120284D01*
X0106016Y0118962D01*
X0105300Y0117235D01*
X0105300Y0115365D01*
X0105657Y0114503D01*
X0104100Y0112946D01*
X0104100Y0074746D01*
X0100746Y0078100D01*
X0084342Y0078100D01*
X0083984Y0078962D01*
X0082662Y0080284D01*
X0080935Y0081000D01*
X0079065Y0081000D01*
X0077338Y0080284D01*
X0076016Y0078962D01*
X0075300Y0077235D01*
X0075300Y0075365D01*
X0076016Y0073638D01*
X0077338Y0072316D01*
X0079065Y0071600D01*
X0080935Y0071600D01*
X0082662Y0072316D01*
X0083984Y0073638D01*
X0084342Y0074500D01*
X0099254Y0074500D01*
X0130275Y0043480D01*
X0129800Y0042334D01*
X0129800Y0040266D01*
X0130531Y0038500D01*
X0104146Y0038500D01*
X0104276Y0038679D01*
X0104634Y0039381D01*
X0104877Y0040129D01*
X0105000Y0040906D01*
X0105000Y0041000D01*
X0100300Y0041000D01*
X0100300Y0041600D01*
X0099700Y0041600D01*
X0099700Y0046300D01*
X0099606Y0046300D01*
X0098829Y0046177D01*
X0098081Y0045934D01*
X0097379Y0045576D01*
X0096743Y0045114D01*
X0096186Y0044557D01*
X0096021Y0044330D01*
X0092651Y0047700D01*
X0087349Y0047700D01*
X0084151Y0044502D01*
X0082946Y0045708D01*
X0081034Y0046500D01*
X0078966Y0046500D01*
X0077820Y0046025D01*
X0070535Y0053311D01*
X0070595Y0053311D01*
X0071693Y0053766D01*
X0072534Y0054607D01*
X0072989Y0055705D01*
X0072989Y0056743D01*
X0074557Y0058311D01*
X0075595Y0058311D01*
X0076693Y0058766D01*
X0077534Y0059607D01*
X0077989Y0060705D01*
X0077989Y0061895D01*
X0077534Y0062993D01*
X0076693Y0063834D01*
X0075595Y0064289D01*
X0074405Y0064289D01*
X0073307Y0063834D01*
X0072500Y0063027D01*
X0071800Y0063727D01*
X0071800Y0115349D01*
X0050600Y0136549D01*
X0050600Y0148246D01*
X0049546Y0149300D01*
X0047989Y0150857D01*
X0047989Y0151895D01*
X0047534Y0152993D01*
X0046693Y0153834D01*
X0045595Y0154289D01*
X0044405Y0154289D01*
X0043307Y0153834D01*
X0042466Y0152993D01*
X0042011Y0151895D01*
X0042011Y0150705D01*
X0042466Y0149607D01*
X0043307Y0148766D01*
X0044405Y0148311D01*
X0045443Y0148311D01*
X0047000Y0146754D01*
X0047000Y0135057D01*
X0068200Y0113857D01*
X0068200Y0063727D01*
X0067466Y0062993D01*
X0067011Y0061895D01*
X0067011Y0060705D01*
X0067466Y0059607D01*
X0068273Y0058800D01*
X0067466Y0057993D01*
X0067011Y0056895D01*
X0067011Y0056835D01*
X0031400Y0092446D01*
X0031400Y0093951D01*
X0028202Y0097149D01*
X0029408Y0098354D01*
X0030200Y0100266D01*
X0030200Y0102334D01*
X0029408Y0104246D01*
X0027946Y0105708D01*
X0026517Y0106300D01*
X0027946Y0106892D01*
X0029408Y0108354D01*
X0030200Y0110266D01*
X0030200Y0112334D01*
X0029408Y0114246D01*
X0027946Y0115708D01*
X0026517Y0116300D01*
X0027946Y0116892D01*
X0029408Y0118354D01*
X0030200Y0120266D01*
X0030200Y0122334D01*
X0029408Y0124246D01*
X0027946Y0125708D01*
X0026517Y0126300D01*
X0027946Y0126892D01*
X0029408Y0128354D01*
X0030200Y0130266D01*
X0030200Y0132334D01*
X0029408Y0134246D01*
X0027946Y0135708D01*
X0026034Y0136500D01*
X0023966Y0136500D01*
X0022054Y0135708D01*
X0020592Y0134246D01*
X0019800Y0132334D01*
X0019800Y0130266D01*
X0020592Y0128354D01*
X0022054Y0126892D01*
X0023483Y0126300D01*
X0022054Y0125708D01*
X0020592Y0124246D01*
X0019800Y0122334D01*
X0019800Y0120266D01*
X0020592Y0118354D01*
X0022054Y0116892D01*
X0023483Y0116300D01*
X0022054Y0115708D01*
X0020592Y0114246D01*
X0019800Y0112334D01*
X0019800Y0110266D01*
X0020592Y0108354D01*
X0022054Y0106892D01*
X0023483Y0106300D01*
X0022054Y0105708D01*
X0020592Y0104246D01*
X0019800Y0102334D01*
X0019800Y0100266D01*
X0020592Y0098354D01*
X0022054Y0096892D01*
X0023483Y0096300D01*
X0022054Y0095708D01*
X0020592Y0094246D01*
X0019800Y0092334D01*
X0019800Y0090266D01*
X0020592Y0088354D01*
X0022054Y0086892D01*
X0023802Y0086168D01*
X0023081Y0085934D01*
X0022379Y0085576D01*
X0021743Y0085114D01*
X0021186Y0084557D01*
X0020724Y0083921D01*
X0020366Y0083219D01*
X0020123Y0082471D01*
X0020000Y0081694D01*
X0020000Y0081600D01*
X0024700Y0081600D01*
X0024700Y0081000D01*
X0025300Y0081000D01*
X0025300Y0081600D01*
X0030000Y0081600D01*
X0030000Y0081694D01*
X0029877Y0082471D01*
X0029634Y0083219D01*
X0029276Y0083921D01*
X0028814Y0084557D01*
X0028257Y0085114D01*
X0027621Y0085576D01*
X0026919Y0085934D01*
X0026198Y0086168D01*
X0027946Y0086892D01*
X0029408Y0088354D01*
X0029699Y0089056D01*
X0075275Y0043480D01*
X0074800Y0042334D01*
X0074800Y0040266D01*
X0075592Y0038354D01*
X0077054Y0036892D01*
X0078483Y0036300D01*
X0077820Y0036025D01*
X0067989Y0045857D01*
X0067989Y0046895D01*
X0067534Y0047993D01*
X0066693Y0048834D01*
X0065595Y0049289D01*
X0064405Y0049289D01*
X0063307Y0048834D01*
X0062466Y0047993D01*
X0062011Y0046895D01*
X0062011Y0045705D01*
X0062466Y0044607D01*
X0063307Y0043766D01*
X0064405Y0043311D01*
X0065443Y0043311D01*
X0075275Y0033480D01*
X0074800Y0032334D01*
X0074800Y0030266D01*
X0075592Y0028354D01*
X0077054Y0026892D01*
X0078966Y0026100D01*
X0081034Y0026100D01*
X0082946Y0026892D01*
X0084408Y0028354D01*
X0085000Y0029783D01*
X0085592Y0028354D01*
X0087054Y0026892D01*
X0088966Y0026100D01*
X0091034Y0026100D01*
X0092946Y0026892D01*
X0094408Y0028354D01*
X0095000Y0029783D01*
X0095592Y0028354D01*
X0097054Y0026892D01*
X0098966Y0026100D01*
X0101034Y0026100D01*
X0103090Y0027036D02*
X0160000Y0027036D01*
X0160000Y0027634D02*
X0103688Y0027634D01*
X0104287Y0028233D02*
X0160000Y0028233D01*
X0160000Y0028832D02*
X0104606Y0028832D01*
X0104854Y0029430D02*
X0160000Y0029430D01*
X0160000Y0030029D02*
X0105102Y0030029D01*
X0105200Y0030627D02*
X0160000Y0030627D01*
X0160000Y0031226D02*
X0105200Y0031226D01*
X0105200Y0031824D02*
X0160000Y0031824D01*
X0160000Y0032423D02*
X0105163Y0032423D01*
X0104916Y0033021D02*
X0160000Y0033021D01*
X0160000Y0033620D02*
X0104668Y0033620D01*
X0104420Y0034218D02*
X0160000Y0034218D01*
X0160000Y0034817D02*
X0103837Y0034817D01*
X0104443Y0039006D02*
X0130322Y0039006D01*
X0130074Y0039605D02*
X0104706Y0039605D01*
X0104889Y0040203D02*
X0129826Y0040203D01*
X0129800Y0040802D02*
X0104983Y0040802D01*
X0105000Y0041600D02*
X0105000Y0041694D01*
X0104877Y0042471D01*
X0104634Y0043219D01*
X0104276Y0043921D01*
X0103814Y0044557D01*
X0103257Y0045114D01*
X0102621Y0045576D01*
X0101919Y0045934D01*
X0101171Y0046177D01*
X0100394Y0046300D01*
X0100300Y0046300D01*
X0100300Y0041600D01*
X0105000Y0041600D01*
X0104952Y0041999D02*
X0129800Y0041999D01*
X0129800Y0041400D02*
X0100300Y0041400D01*
X0100000Y0041300D02*
X0075900Y0065400D01*
X0075900Y0206300D01*
X0072231Y0206300D01*
X0062831Y0196900D01*
X0056230Y0196900D01*
X0047126Y0187796D01*
X0047126Y0194489D01*
X0035315Y0206300D01*
X0035615Y0206589D02*
X0048937Y0206589D01*
X0048937Y0205991D02*
X0045115Y0205991D01*
X0045115Y0206000D02*
X0035615Y0206000D01*
X0035615Y0206600D01*
X0045115Y0206600D01*
X0045115Y0206850D01*
X0044992Y0207944D01*
X0044747Y0209017D01*
X0044383Y0210056D01*
X0043906Y0211048D01*
X0043320Y0211980D01*
X0042634Y0212840D01*
X0041855Y0213619D01*
X0040995Y0214305D01*
X0040063Y0214891D01*
X0039071Y0215368D01*
X0038032Y0215732D01*
X0036959Y0215977D01*
X0035865Y0216100D01*
X0035615Y0216100D01*
X0035615Y0206600D01*
X0035015Y0206600D01*
X0035015Y0216100D01*
X0034765Y0216100D01*
X0033671Y0215977D01*
X0032598Y0215732D01*
X0031559Y0215368D01*
X0030567Y0214891D01*
X0029635Y0214305D01*
X0028774Y0213619D01*
X0027996Y0212840D01*
X0027310Y0211980D01*
X0026724Y0211048D01*
X0026247Y0210056D01*
X0025883Y0209017D01*
X0025638Y0207944D01*
X0025515Y0206850D01*
X0025515Y0206600D01*
X0035015Y0206600D01*
X0035015Y0206000D01*
X0035615Y0206000D01*
X0035615Y0196500D01*
X0035865Y0196500D01*
X0036959Y0196623D01*
X0038032Y0196868D01*
X0039071Y0197232D01*
X0040063Y0197709D01*
X0040995Y0198295D01*
X0041855Y0198981D01*
X0042634Y0199760D01*
X0043320Y0200620D01*
X0043906Y0201552D01*
X0044383Y0202544D01*
X0044747Y0203583D01*
X0044992Y0204656D01*
X0045115Y0205750D01*
X0045115Y0206000D01*
X0045075Y0205392D02*
X0048937Y0205392D01*
X0048937Y0204794D02*
X0045007Y0204794D01*
X0044887Y0204195D02*
X0048985Y0204195D01*
X0048937Y0204311D02*
X0050459Y0200635D01*
X0053272Y0197822D01*
X0056948Y0196300D01*
X0060926Y0196300D01*
X0064602Y0197822D01*
X0067415Y0200635D01*
X0068937Y0204311D01*
X0068937Y0208289D01*
X0067415Y0211965D01*
X0064602Y0214778D01*
X0060926Y0216300D01*
X0056948Y0216300D01*
X0053272Y0214778D01*
X0050459Y0211965D01*
X0048937Y0208289D01*
X0048937Y0204311D01*
X0049233Y0203597D02*
X0044750Y0203597D01*
X0044542Y0202998D02*
X0049481Y0202998D01*
X0049729Y0202400D02*
X0044314Y0202400D01*
X0044026Y0201801D02*
X0049977Y0201801D01*
X0050224Y0201203D02*
X0043686Y0201203D01*
X0043307Y0200604D02*
X0050491Y0200604D01*
X0051089Y0200006D02*
X0042830Y0200006D01*
X0042281Y0199407D02*
X0051688Y0199407D01*
X0052286Y0198809D02*
X0041639Y0198809D01*
X0040860Y0198210D02*
X0052885Y0198210D01*
X0053781Y0197612D02*
X0039860Y0197612D01*
X0038447Y0197013D02*
X0043795Y0197013D01*
X0043370Y0196864D02*
X0044409Y0197228D01*
X0045482Y0197473D01*
X0046576Y0197596D01*
X0046826Y0197596D01*
X0046826Y0188096D01*
X0046826Y0187496D01*
X0047426Y0187496D01*
X0047426Y0177996D01*
X0047676Y0177996D01*
X0048770Y0178119D01*
X0049843Y0178364D01*
X0050882Y0178728D01*
X0051874Y0179205D01*
X0052806Y0179791D01*
X0053666Y0180477D01*
X0054445Y0181256D01*
X0055131Y0182116D01*
X0055717Y0183048D01*
X0056194Y0184040D01*
X0056558Y0185079D01*
X0056803Y0186152D01*
X0056926Y0187246D01*
X0056926Y0187496D01*
X0047426Y0187496D01*
X0047426Y0188096D01*
X0056926Y0188096D01*
X0056926Y0188346D01*
X0056803Y0189440D01*
X0056558Y0190513D01*
X0056194Y0191552D01*
X0055717Y0192544D01*
X0055131Y0193476D01*
X0054445Y0194337D01*
X0053666Y0195115D01*
X0052806Y0195801D01*
X0051874Y0196387D01*
X0050882Y0196864D01*
X0049843Y0197228D01*
X0048770Y0197473D01*
X0047676Y0197596D01*
X0047426Y0197596D01*
X0047426Y0188096D01*
X0046826Y0188096D01*
X0037326Y0188096D01*
X0037326Y0188346D01*
X0037449Y0189440D01*
X0037694Y0190513D01*
X0038058Y0191552D01*
X0038535Y0192544D01*
X0039121Y0193476D01*
X0039807Y0194337D01*
X0040585Y0195115D01*
X0041446Y0195801D01*
X0042378Y0196387D01*
X0043370Y0196864D01*
X0042436Y0196415D02*
X0015000Y0196415D01*
X0015000Y0197013D02*
X0032183Y0197013D01*
X0032598Y0196868D02*
X0031559Y0197232D01*
X0030567Y0197709D01*
X0029635Y0198295D01*
X0028774Y0198981D01*
X0027996Y0199760D01*
X0027310Y0200620D01*
X0026724Y0201552D01*
X0026247Y0202544D01*
X0025883Y0203583D01*
X0025638Y0204656D01*
X0025515Y0205750D01*
X0025515Y0206000D01*
X0035015Y0206000D01*
X0035015Y0196500D01*
X0034765Y0196500D01*
X0033671Y0196623D01*
X0032598Y0196868D01*
X0030770Y0197612D02*
X0015000Y0197612D01*
X0015000Y0198210D02*
X0029770Y0198210D01*
X0028991Y0198809D02*
X0015000Y0198809D01*
X0015000Y0199407D02*
X0028348Y0199407D01*
X0027800Y0200006D02*
X0015000Y0200006D01*
X0015000Y0200604D02*
X0027322Y0200604D01*
X0026944Y0201203D02*
X0015000Y0201203D01*
X0015000Y0201801D02*
X0026604Y0201801D01*
X0026316Y0202400D02*
X0015000Y0202400D01*
X0015000Y0202998D02*
X0026088Y0202998D01*
X0025880Y0203597D02*
X0015000Y0203597D01*
X0015000Y0204195D02*
X0025743Y0204195D01*
X0025623Y0204794D02*
X0015000Y0204794D01*
X0015000Y0205392D02*
X0025555Y0205392D01*
X0025515Y0205991D02*
X0015000Y0205991D01*
X0015000Y0206589D02*
X0035015Y0206589D01*
X0035015Y0205991D02*
X0035615Y0205991D01*
X0035615Y0205392D02*
X0035015Y0205392D01*
X0035015Y0204794D02*
X0035615Y0204794D01*
X0035615Y0204195D02*
X0035015Y0204195D01*
X0035015Y0203597D02*
X0035615Y0203597D01*
X0035615Y0202998D02*
X0035015Y0202998D01*
X0035015Y0202400D02*
X0035615Y0202400D01*
X0035615Y0201801D02*
X0035015Y0201801D01*
X0035015Y0201203D02*
X0035615Y0201203D01*
X0035615Y0200604D02*
X0035015Y0200604D01*
X0035015Y0200006D02*
X0035615Y0200006D01*
X0035615Y0199407D02*
X0035015Y0199407D01*
X0035015Y0198809D02*
X0035615Y0198809D01*
X0035615Y0198210D02*
X0035015Y0198210D01*
X0035015Y0197612D02*
X0035615Y0197612D01*
X0035615Y0197013D02*
X0035015Y0197013D01*
X0038711Y0192824D02*
X0015000Y0192824D01*
X0015000Y0193422D02*
X0039087Y0193422D01*
X0039555Y0194021D02*
X0015000Y0194021D01*
X0015000Y0194619D02*
X0040090Y0194619D01*
X0040714Y0195218D02*
X0015000Y0195218D01*
X0015000Y0195816D02*
X0041470Y0195816D01*
X0038382Y0192225D02*
X0015000Y0192225D01*
X0015000Y0191627D02*
X0038094Y0191627D01*
X0037874Y0191028D02*
X0015000Y0191028D01*
X0015000Y0190430D02*
X0037675Y0190430D01*
X0037538Y0189831D02*
X0015000Y0189831D01*
X0015000Y0189233D02*
X0037426Y0189233D01*
X0037358Y0188634D02*
X0015000Y0188634D01*
X0015000Y0188036D02*
X0046826Y0188036D01*
X0046826Y0187496D02*
X0037326Y0187496D01*
X0037326Y0187246D01*
X0037449Y0186152D01*
X0037694Y0185079D01*
X0038058Y0184040D01*
X0038535Y0183048D01*
X0039121Y0182116D01*
X0039807Y0181256D01*
X0040585Y0180477D01*
X0041446Y0179791D01*
X0042378Y0179205D01*
X0043370Y0178728D01*
X0044409Y0178364D01*
X0045482Y0178119D01*
X0046576Y0177996D01*
X0046826Y0177996D01*
X0046826Y0187496D01*
X0046826Y0187437D02*
X0047426Y0187437D01*
X0047426Y0186839D02*
X0046826Y0186839D01*
X0046826Y0186240D02*
X0047426Y0186240D01*
X0047426Y0185641D02*
X0046826Y0185641D01*
X0046826Y0185043D02*
X0047426Y0185043D01*
X0047426Y0184444D02*
X0046826Y0184444D01*
X0046826Y0183846D02*
X0047426Y0183846D01*
X0047426Y0183247D02*
X0046826Y0183247D01*
X0046826Y0182649D02*
X0047426Y0182649D01*
X0047426Y0182050D02*
X0046826Y0182050D01*
X0046826Y0181452D02*
X0047426Y0181452D01*
X0047426Y0180853D02*
X0046826Y0180853D01*
X0046826Y0180255D02*
X0047426Y0180255D01*
X0047426Y0179656D02*
X0046826Y0179656D01*
X0046826Y0179058D02*
X0047426Y0179058D01*
X0047426Y0178459D02*
X0046826Y0178459D01*
X0044137Y0178459D02*
X0015000Y0178459D01*
X0015000Y0177861D02*
X0075559Y0177861D01*
X0075807Y0178459D02*
X0050115Y0178459D01*
X0051568Y0179058D02*
X0076111Y0179058D01*
X0076016Y0178962D02*
X0075300Y0177235D01*
X0075300Y0175365D01*
X0076016Y0173638D01*
X0077338Y0172316D01*
X0079065Y0171600D01*
X0080935Y0171600D01*
X0082662Y0172316D01*
X0083984Y0173638D01*
X0084700Y0175365D01*
X0084700Y0177235D01*
X0083984Y0178962D01*
X0082662Y0180284D01*
X0080935Y0181000D01*
X0079065Y0181000D01*
X0077338Y0180284D01*
X0076016Y0178962D01*
X0076710Y0179656D02*
X0052592Y0179656D01*
X0053388Y0180255D02*
X0077308Y0180255D01*
X0078711Y0180853D02*
X0054043Y0180853D01*
X0054601Y0181452D02*
X0149800Y0181452D01*
X0149800Y0182050D02*
X0112022Y0182050D01*
X0112662Y0182316D02*
X0113984Y0183638D01*
X0114700Y0185365D01*
X0114700Y0187235D01*
X0113984Y0188962D01*
X0112662Y0190284D01*
X0110935Y0191000D01*
X0109065Y0191000D01*
X0107338Y0190284D01*
X0106016Y0188962D01*
X0105300Y0187235D01*
X0105300Y0185365D01*
X0106016Y0183638D01*
X0107338Y0182316D01*
X0109065Y0181600D01*
X0110935Y0181600D01*
X0112662Y0182316D01*
X0112996Y0182649D02*
X0149930Y0182649D01*
X0150178Y0183247D02*
X0113594Y0183247D01*
X0114071Y0183846D02*
X0150426Y0183846D01*
X0150791Y0184444D02*
X0114319Y0184444D01*
X0114567Y0185043D02*
X0151389Y0185043D01*
X0151988Y0185641D02*
X0114700Y0185641D01*
X0114700Y0186240D02*
X0153338Y0186240D01*
X0152183Y0186839D02*
X0114700Y0186839D01*
X0114616Y0187437D02*
X0151509Y0187437D01*
X0150911Y0188036D02*
X0114368Y0188036D01*
X0114120Y0188634D02*
X0150476Y0188634D01*
X0150228Y0189233D02*
X0113714Y0189233D01*
X0113116Y0189831D02*
X0149980Y0189831D01*
X0149800Y0190430D02*
X0112312Y0190430D01*
X0110999Y0191627D02*
X0149800Y0191627D01*
X0149800Y0192225D02*
X0112444Y0192225D01*
X0112662Y0192316D02*
X0113984Y0193638D01*
X0114700Y0195365D01*
X0114700Y0197235D01*
X0113984Y0198962D01*
X0112662Y0200284D01*
X0110935Y0201000D01*
X0109065Y0201000D01*
X0107338Y0200284D01*
X0106016Y0198962D01*
X0105300Y0197235D01*
X0105300Y0195365D01*
X0106016Y0193638D01*
X0107338Y0192316D01*
X0109065Y0191600D01*
X0110935Y0191600D01*
X0112662Y0192316D01*
X0113170Y0192824D02*
X0150003Y0192824D01*
X0150251Y0193422D02*
X0113769Y0193422D01*
X0114143Y0194021D02*
X0150498Y0194021D01*
X0150965Y0194619D02*
X0114391Y0194619D01*
X0114639Y0195218D02*
X0151564Y0195218D01*
X0152315Y0195816D02*
X0114700Y0195816D01*
X0114700Y0196415D02*
X0153206Y0196415D01*
X0151933Y0197013D02*
X0114700Y0197013D01*
X0114544Y0197612D02*
X0151334Y0197612D01*
X0150736Y0198210D02*
X0114296Y0198210D01*
X0114048Y0198809D02*
X0150403Y0198809D01*
X0150156Y0199407D02*
X0113540Y0199407D01*
X0112941Y0200006D02*
X0149908Y0200006D01*
X0149800Y0200604D02*
X0111890Y0200604D01*
X0111421Y0201801D02*
X0149800Y0201801D01*
X0149800Y0201203D02*
X0067650Y0201203D01*
X0067897Y0201801D02*
X0078579Y0201801D01*
X0079065Y0201600D02*
X0080935Y0201600D01*
X0082662Y0202316D01*
X0083984Y0203638D01*
X0084700Y0205365D01*
X0084700Y0207235D01*
X0083984Y0208962D01*
X0082662Y0210284D01*
X0080935Y0211000D01*
X0079065Y0211000D01*
X0077338Y0210284D01*
X0076016Y0208962D01*
X0075300Y0207235D01*
X0075300Y0205365D01*
X0076016Y0203638D01*
X0077338Y0202316D01*
X0079065Y0201600D01*
X0079065Y0201000D02*
X0077338Y0200284D01*
X0076016Y0198962D01*
X0075300Y0197235D01*
X0075300Y0195365D01*
X0076016Y0193638D01*
X0077338Y0192316D01*
X0079065Y0191600D01*
X0080935Y0191600D01*
X0082662Y0192316D01*
X0083984Y0193638D01*
X0084700Y0195365D01*
X0084700Y0197235D01*
X0083984Y0198962D01*
X0082662Y0200284D01*
X0080935Y0201000D01*
X0079065Y0201000D01*
X0078110Y0200604D02*
X0067383Y0200604D01*
X0066785Y0200006D02*
X0077059Y0200006D01*
X0076460Y0199407D02*
X0066186Y0199407D01*
X0065588Y0198809D02*
X0075952Y0198809D01*
X0075704Y0198210D02*
X0064989Y0198210D01*
X0064093Y0197612D02*
X0075456Y0197612D01*
X0075300Y0197013D02*
X0062648Y0197013D01*
X0061203Y0196415D02*
X0075300Y0196415D01*
X0075300Y0195816D02*
X0052782Y0195816D01*
X0053538Y0195218D02*
X0075361Y0195218D01*
X0075609Y0194619D02*
X0054162Y0194619D01*
X0054697Y0194021D02*
X0075857Y0194021D01*
X0076231Y0193422D02*
X0055165Y0193422D01*
X0055541Y0192824D02*
X0076830Y0192824D01*
X0077556Y0192225D02*
X0055870Y0192225D01*
X0056158Y0191627D02*
X0079001Y0191627D01*
X0079065Y0191000D02*
X0077338Y0190284D01*
X0076016Y0188962D01*
X0075300Y0187235D01*
X0075300Y0185365D01*
X0076016Y0183638D01*
X0077338Y0182316D01*
X0079065Y0181600D01*
X0080935Y0181600D01*
X0082662Y0182316D01*
X0083984Y0183638D01*
X0084700Y0185365D01*
X0084700Y0187235D01*
X0083984Y0188962D01*
X0082662Y0190284D01*
X0080935Y0191000D01*
X0079065Y0191000D01*
X0077688Y0190430D02*
X0056577Y0190430D01*
X0056714Y0189831D02*
X0076884Y0189831D01*
X0076286Y0189233D02*
X0056826Y0189233D01*
X0056894Y0188634D02*
X0075880Y0188634D01*
X0075632Y0188036D02*
X0047426Y0188036D01*
X0047426Y0188634D02*
X0046826Y0188634D01*
X0046826Y0189233D02*
X0047426Y0189233D01*
X0047426Y0189831D02*
X0046826Y0189831D01*
X0046826Y0190430D02*
X0047426Y0190430D01*
X0047426Y0191028D02*
X0046826Y0191028D01*
X0046826Y0191627D02*
X0047426Y0191627D01*
X0047426Y0192225D02*
X0046826Y0192225D01*
X0046826Y0192824D02*
X0047426Y0192824D01*
X0047426Y0193422D02*
X0046826Y0193422D01*
X0046826Y0194021D02*
X0047426Y0194021D01*
X0047426Y0194619D02*
X0046826Y0194619D01*
X0046826Y0195218D02*
X0047426Y0195218D01*
X0047426Y0195816D02*
X0046826Y0195816D01*
X0046826Y0196415D02*
X0047426Y0196415D01*
X0047426Y0197013D02*
X0046826Y0197013D01*
X0050457Y0197013D02*
X0055226Y0197013D01*
X0056671Y0196415D02*
X0051816Y0196415D01*
X0056378Y0191028D02*
X0149800Y0191028D01*
X0149800Y0180853D02*
X0111289Y0180853D01*
X0110935Y0181000D02*
X0109065Y0181000D01*
X0107338Y0180284D01*
X0106016Y0178962D01*
X0105300Y0177235D01*
X0105300Y0175365D01*
X0106016Y0173638D01*
X0107338Y0172316D01*
X0109065Y0171600D01*
X0110935Y0171600D01*
X0112662Y0172316D01*
X0113984Y0173638D01*
X0114700Y0175365D01*
X0114700Y0177235D01*
X0113984Y0178962D01*
X0112662Y0180284D01*
X0110935Y0181000D01*
X0112692Y0180255D02*
X0149804Y0180255D01*
X0150052Y0179656D02*
X0113290Y0179656D01*
X0113889Y0179058D02*
X0150300Y0179058D01*
X0150548Y0178459D02*
X0114193Y0178459D01*
X0114441Y0177861D02*
X0151085Y0177861D01*
X0151684Y0177262D02*
X0114689Y0177262D01*
X0114700Y0176664D02*
X0152604Y0176664D01*
X0152916Y0176065D02*
X0114700Y0176065D01*
X0114700Y0175467D02*
X0151813Y0175467D01*
X0151214Y0174868D02*
X0114494Y0174868D01*
X0114100Y0174602D02*
X0114100Y0180400D01*
X0155000Y0221300D01*
X0155300Y0221552D02*
X0160000Y0221552D01*
X0160000Y0220954D02*
X0160000Y0220954D01*
X0160000Y0220355D02*
X0159913Y0220355D01*
X0160000Y0219757D02*
X0159756Y0219757D01*
X0159520Y0219158D02*
X0160000Y0219158D01*
X0160000Y0218560D02*
X0159189Y0218560D01*
X0158732Y0217961D02*
X0160000Y0217961D01*
X0160000Y0217363D02*
X0158087Y0217363D01*
X0157111Y0216764D02*
X0160000Y0216764D01*
X0160000Y0216166D02*
X0156842Y0216166D01*
X0158087Y0215567D02*
X0160000Y0215567D01*
X0160000Y0214969D02*
X0158685Y0214969D01*
X0159284Y0214370D02*
X0160000Y0214370D01*
X0160000Y0213772D02*
X0159605Y0213772D01*
X0159853Y0213173D02*
X0160000Y0213173D01*
X0159928Y0222151D02*
X0160000Y0222151D01*
X0160000Y0222749D02*
X0159786Y0222749D01*
X0160000Y0223348D02*
X0159568Y0223348D01*
X0159258Y0223946D02*
X0160000Y0223946D01*
X0160000Y0224545D02*
X0158823Y0224545D01*
X0158217Y0225143D02*
X0160000Y0225143D01*
X0160000Y0225742D02*
X0157296Y0225742D01*
X0155300Y0225742D02*
X0154700Y0225742D01*
X0154700Y0225143D02*
X0155300Y0225143D01*
X0155300Y0224545D02*
X0154700Y0224545D01*
X0154700Y0223946D02*
X0155300Y0223946D01*
X0155300Y0223348D02*
X0154700Y0223348D01*
X0154700Y0222749D02*
X0155300Y0222749D01*
X0155300Y0222151D02*
X0154700Y0222151D01*
X0154700Y0221552D02*
X0015000Y0221552D01*
X0015000Y0220954D02*
X0150000Y0220954D01*
X0150087Y0220355D02*
X0015000Y0220355D01*
X0015000Y0219757D02*
X0150244Y0219757D01*
X0150480Y0219158D02*
X0015000Y0219158D01*
X0015000Y0218560D02*
X0150811Y0218560D01*
X0151268Y0217961D02*
X0015000Y0217961D01*
X0015000Y0217363D02*
X0151913Y0217363D01*
X0152889Y0216764D02*
X0015000Y0216764D01*
X0015000Y0216166D02*
X0056623Y0216166D01*
X0055178Y0215567D02*
X0038503Y0215567D01*
X0039901Y0214969D02*
X0053733Y0214969D01*
X0052865Y0214370D02*
X0040892Y0214370D01*
X0041664Y0213772D02*
X0052266Y0213772D01*
X0051668Y0213173D02*
X0042301Y0213173D01*
X0042846Y0212574D02*
X0051069Y0212574D01*
X0050471Y0211976D02*
X0043323Y0211976D01*
X0043699Y0211377D02*
X0050216Y0211377D01*
X0049968Y0210779D02*
X0044035Y0210779D01*
X0044323Y0210180D02*
X0049720Y0210180D01*
X0049473Y0209582D02*
X0044549Y0209582D01*
X0044755Y0208983D02*
X0049225Y0208983D01*
X0048977Y0208385D02*
X0044891Y0208385D01*
X0045009Y0207786D02*
X0048937Y0207786D01*
X0048937Y0207188D02*
X0045077Y0207188D01*
X0035615Y0207188D02*
X0035015Y0207188D01*
X0035015Y0207786D02*
X0035615Y0207786D01*
X0035615Y0208385D02*
X0035015Y0208385D01*
X0035015Y0208983D02*
X0035615Y0208983D01*
X0035615Y0209582D02*
X0035015Y0209582D01*
X0035015Y0210180D02*
X0035615Y0210180D01*
X0035615Y0210779D02*
X0035015Y0210779D01*
X0035015Y0211377D02*
X0035615Y0211377D01*
X0035615Y0211976D02*
X0035015Y0211976D01*
X0035015Y0212574D02*
X0035615Y0212574D01*
X0035615Y0213173D02*
X0035015Y0213173D01*
X0035015Y0213772D02*
X0035615Y0213772D01*
X0035615Y0214370D02*
X0035015Y0214370D01*
X0035015Y0214969D02*
X0035615Y0214969D01*
X0035615Y0215567D02*
X0035015Y0215567D01*
X0032127Y0215567D02*
X0015000Y0215567D01*
X0015000Y0214969D02*
X0030729Y0214969D01*
X0029738Y0214370D02*
X0015000Y0214370D01*
X0015000Y0213772D02*
X0028966Y0213772D01*
X0028329Y0213173D02*
X0015000Y0213173D01*
X0015000Y0212574D02*
X0027784Y0212574D01*
X0027307Y0211976D02*
X0015000Y0211976D01*
X0015000Y0211377D02*
X0026931Y0211377D01*
X0026595Y0210779D02*
X0015000Y0210779D01*
X0015000Y0210180D02*
X0026307Y0210180D01*
X0026081Y0209582D02*
X0015000Y0209582D01*
X0015000Y0208983D02*
X0025875Y0208983D01*
X0025739Y0208385D02*
X0015000Y0208385D01*
X0015000Y0207786D02*
X0025620Y0207786D01*
X0025553Y0207188D02*
X0015000Y0207188D01*
X0015000Y0222151D02*
X0150072Y0222151D01*
X0150214Y0222749D02*
X0015000Y0222749D01*
X0015000Y0223348D02*
X0150432Y0223348D01*
X0150742Y0223946D02*
X0015000Y0223946D01*
X0015000Y0224545D02*
X0151177Y0224545D01*
X0151783Y0225143D02*
X0015000Y0225143D01*
X0015000Y0225742D02*
X0152704Y0225742D01*
X0153158Y0216166D02*
X0061251Y0216166D01*
X0062696Y0215567D02*
X0151913Y0215567D01*
X0151315Y0214969D02*
X0064141Y0214969D01*
X0065009Y0214370D02*
X0150716Y0214370D01*
X0150395Y0213772D02*
X0065608Y0213772D01*
X0066206Y0213173D02*
X0150147Y0213173D01*
X0149899Y0212574D02*
X0066805Y0212574D01*
X0067403Y0211976D02*
X0149800Y0211976D01*
X0149800Y0211377D02*
X0067658Y0211377D01*
X0067906Y0210779D02*
X0078531Y0210779D01*
X0077234Y0210180D02*
X0068154Y0210180D01*
X0068402Y0209582D02*
X0076635Y0209582D01*
X0076037Y0208983D02*
X0068649Y0208983D01*
X0068897Y0208385D02*
X0075776Y0208385D01*
X0075528Y0207786D02*
X0068937Y0207786D01*
X0068937Y0207188D02*
X0075300Y0207188D01*
X0075300Y0206589D02*
X0068937Y0206589D01*
X0068937Y0205991D02*
X0075300Y0205991D01*
X0075300Y0205392D02*
X0068937Y0205392D01*
X0068937Y0204794D02*
X0075537Y0204794D01*
X0075785Y0204195D02*
X0068889Y0204195D01*
X0068641Y0203597D02*
X0076056Y0203597D01*
X0076655Y0202998D02*
X0068393Y0202998D01*
X0068145Y0202400D02*
X0077253Y0202400D01*
X0081421Y0201801D02*
X0108579Y0201801D01*
X0109065Y0201600D02*
X0110935Y0201600D01*
X0112662Y0202316D01*
X0113984Y0203638D01*
X0114700Y0205365D01*
X0114700Y0207235D01*
X0113984Y0208962D01*
X0112662Y0210284D01*
X0110935Y0211000D01*
X0109065Y0211000D01*
X0107338Y0210284D01*
X0106016Y0208962D01*
X0105300Y0207235D01*
X0105300Y0205365D01*
X0106016Y0203638D01*
X0107338Y0202316D01*
X0109065Y0201600D01*
X0108110Y0200604D02*
X0081890Y0200604D01*
X0082941Y0200006D02*
X0107059Y0200006D01*
X0106460Y0199407D02*
X0083540Y0199407D01*
X0084048Y0198809D02*
X0105952Y0198809D01*
X0105704Y0198210D02*
X0084296Y0198210D01*
X0084544Y0197612D02*
X0105456Y0197612D01*
X0105300Y0197013D02*
X0084700Y0197013D01*
X0084700Y0196415D02*
X0105300Y0196415D01*
X0105300Y0195816D02*
X0084700Y0195816D01*
X0084639Y0195218D02*
X0105361Y0195218D01*
X0105609Y0194619D02*
X0084391Y0194619D01*
X0084143Y0194021D02*
X0105857Y0194021D01*
X0106231Y0193422D02*
X0083769Y0193422D01*
X0083170Y0192824D02*
X0106830Y0192824D01*
X0107556Y0192225D02*
X0082444Y0192225D01*
X0080999Y0191627D02*
X0109001Y0191627D01*
X0107688Y0190430D02*
X0082312Y0190430D01*
X0083116Y0189831D02*
X0106884Y0189831D01*
X0106286Y0189233D02*
X0083714Y0189233D01*
X0084120Y0188634D02*
X0105880Y0188634D01*
X0105632Y0188036D02*
X0084368Y0188036D01*
X0084616Y0187437D02*
X0105384Y0187437D01*
X0105300Y0186839D02*
X0084700Y0186839D01*
X0084700Y0186240D02*
X0105300Y0186240D01*
X0105300Y0185641D02*
X0084700Y0185641D01*
X0084567Y0185043D02*
X0105433Y0185043D01*
X0105681Y0184444D02*
X0084319Y0184444D01*
X0084071Y0183846D02*
X0105929Y0183846D01*
X0106406Y0183247D02*
X0083594Y0183247D01*
X0082996Y0182649D02*
X0107004Y0182649D01*
X0107978Y0182050D02*
X0082022Y0182050D01*
X0081289Y0180853D02*
X0108711Y0180853D01*
X0107308Y0180255D02*
X0082692Y0180255D01*
X0083290Y0179656D02*
X0106710Y0179656D01*
X0106111Y0179058D02*
X0083889Y0179058D01*
X0084193Y0178459D02*
X0105807Y0178459D01*
X0105559Y0177861D02*
X0084441Y0177861D01*
X0084689Y0177262D02*
X0105311Y0177262D01*
X0105300Y0176664D02*
X0084700Y0176664D01*
X0084700Y0176065D02*
X0105300Y0176065D01*
X0105300Y0175467D02*
X0084700Y0175467D01*
X0084494Y0174868D02*
X0105506Y0174868D01*
X0105754Y0174270D02*
X0084246Y0174270D01*
X0083998Y0173671D02*
X0106002Y0173671D01*
X0106580Y0173073D02*
X0083420Y0173073D01*
X0082821Y0172474D02*
X0107179Y0172474D01*
X0108399Y0171876D02*
X0081601Y0171876D01*
X0080935Y0171000D02*
X0079065Y0171000D01*
X0077338Y0170284D01*
X0076016Y0168962D01*
X0075300Y0167235D01*
X0075300Y0165365D01*
X0076016Y0163638D01*
X0077338Y0162316D01*
X0079065Y0161600D01*
X0080935Y0161600D01*
X0082662Y0162316D01*
X0083984Y0163638D01*
X0084700Y0165365D01*
X0084700Y0167235D01*
X0083984Y0168962D01*
X0082662Y0170284D01*
X0080935Y0171000D01*
X0081711Y0170679D02*
X0108289Y0170679D01*
X0109065Y0171000D02*
X0107338Y0170284D01*
X0106016Y0168962D01*
X0105300Y0167235D01*
X0105300Y0165365D01*
X0106016Y0163638D01*
X0107338Y0162316D01*
X0109065Y0161600D01*
X0110935Y0161600D01*
X0112662Y0162316D01*
X0113984Y0163638D01*
X0114700Y0165365D01*
X0114700Y0167235D01*
X0113984Y0168962D01*
X0112662Y0170284D01*
X0110935Y0171000D01*
X0109065Y0171000D01*
X0110102Y0172200D02*
X0105900Y0167998D01*
X0105900Y0154602D01*
X0110000Y0150502D01*
X0110000Y0146300D01*
X0110300Y0146140D02*
X0153870Y0146140D01*
X0152425Y0146738D02*
X0114487Y0146738D01*
X0114500Y0146654D02*
X0114389Y0147354D01*
X0114170Y0148027D01*
X0113849Y0148659D01*
X0113432Y0149232D01*
X0112932Y0149732D01*
X0112359Y0150149D01*
X0111727Y0150470D01*
X0111054Y0150689D01*
X0110354Y0150800D01*
X0110300Y0150800D01*
X0110300Y0146600D01*
X0114500Y0146600D01*
X0114500Y0146654D01*
X0114500Y0146000D02*
X0110300Y0146000D01*
X0110300Y0146600D01*
X0109700Y0146600D01*
X0109700Y0150800D01*
X0109646Y0150800D01*
X0108946Y0150689D01*
X0108273Y0150470D01*
X0107641Y0150149D01*
X0107068Y0149732D01*
X0106568Y0149232D01*
X0106151Y0148659D01*
X0105830Y0148027D01*
X0105611Y0147354D01*
X0105500Y0146654D01*
X0105500Y0146600D01*
X0109700Y0146600D01*
X0109700Y0146000D01*
X0110300Y0146000D01*
X0110300Y0141800D01*
X0110354Y0141800D01*
X0111054Y0141911D01*
X0111727Y0142130D01*
X0112359Y0142451D01*
X0112932Y0142868D01*
X0113432Y0143368D01*
X0113849Y0143941D01*
X0114170Y0144573D01*
X0114389Y0145246D01*
X0114500Y0145946D01*
X0114500Y0146000D01*
X0114436Y0145541D02*
X0160000Y0145541D01*
X0160000Y0144943D02*
X0114291Y0144943D01*
X0114054Y0144344D02*
X0160000Y0144344D01*
X0160000Y0143746D02*
X0113706Y0143746D01*
X0113211Y0143147D02*
X0160000Y0143147D01*
X0160000Y0142549D02*
X0112493Y0142549D01*
X0111175Y0141950D02*
X0160000Y0141950D01*
X0160000Y0141352D02*
X0097494Y0141352D01*
X0096895Y0141950D02*
X0108825Y0141950D01*
X0108946Y0141911D02*
X0109646Y0141800D01*
X0109700Y0141800D01*
X0109700Y0146000D01*
X0105500Y0146000D01*
X0105500Y0145946D01*
X0105611Y0145246D01*
X0105830Y0144573D01*
X0106151Y0143941D01*
X0106568Y0143368D01*
X0107068Y0142868D01*
X0107641Y0142451D01*
X0108273Y0142130D01*
X0108946Y0141911D01*
X0109700Y0141950D02*
X0110300Y0141950D01*
X0110300Y0142549D02*
X0109700Y0142549D01*
X0109700Y0143147D02*
X0110300Y0143147D01*
X0110300Y0143746D02*
X0109700Y0143746D01*
X0109700Y0144344D02*
X0110300Y0144344D01*
X0110300Y0144943D02*
X0109700Y0144943D01*
X0109700Y0145541D02*
X0110300Y0145541D01*
X0109700Y0146140D02*
X0092706Y0146140D01*
X0092107Y0146738D02*
X0105513Y0146738D01*
X0105608Y0147337D02*
X0091509Y0147337D01*
X0090910Y0147935D02*
X0105800Y0147935D01*
X0106088Y0148534D02*
X0084162Y0148534D01*
X0083984Y0148962D02*
X0084342Y0148100D01*
X0090746Y0148100D01*
X0108203Y0130643D01*
X0109065Y0131000D01*
X0110935Y0131000D01*
X0112662Y0130284D01*
X0113984Y0128962D01*
X0114700Y0127235D01*
X0114700Y0125365D01*
X0113984Y0123638D01*
X0112662Y0122316D01*
X0110935Y0121600D01*
X0109065Y0121600D01*
X0107338Y0122316D01*
X0106016Y0123638D01*
X0105300Y0125365D01*
X0105300Y0127235D01*
X0105657Y0128097D01*
X0089254Y0144500D01*
X0084342Y0144500D01*
X0083984Y0143638D01*
X0082662Y0142316D01*
X0080935Y0141600D01*
X0079065Y0141600D01*
X0077338Y0142316D01*
X0076016Y0143638D01*
X0075300Y0145365D01*
X0075300Y0147235D01*
X0076016Y0148962D01*
X0077338Y0150284D01*
X0079065Y0151000D01*
X0080935Y0151000D01*
X0082662Y0150284D01*
X0083984Y0148962D01*
X0083814Y0149132D02*
X0106495Y0149132D01*
X0107067Y0149731D02*
X0083216Y0149731D01*
X0082554Y0150329D02*
X0107996Y0150329D01*
X0109065Y0151600D02*
X0107338Y0152316D01*
X0106016Y0153638D01*
X0105300Y0155365D01*
X0105300Y0157235D01*
X0106016Y0158962D01*
X0107338Y0160284D01*
X0109065Y0161000D01*
X0110935Y0161000D01*
X0112662Y0160284D01*
X0113984Y0158962D01*
X0114700Y0157235D01*
X0114700Y0155365D01*
X0113984Y0153638D01*
X0112662Y0152316D01*
X0110935Y0151600D01*
X0109065Y0151600D01*
X0107798Y0152125D02*
X0082202Y0152125D01*
X0082662Y0152316D02*
X0080935Y0151600D01*
X0079065Y0151600D01*
X0077338Y0152316D01*
X0076016Y0153638D01*
X0075300Y0155365D01*
X0075300Y0157235D01*
X0076016Y0158962D01*
X0077338Y0160284D01*
X0079065Y0161000D01*
X0080935Y0161000D01*
X0082662Y0160284D01*
X0083984Y0158962D01*
X0084700Y0157235D01*
X0084700Y0155365D01*
X0083984Y0153638D01*
X0082662Y0152316D01*
X0083070Y0152723D02*
X0106930Y0152723D01*
X0106331Y0153322D02*
X0083669Y0153322D01*
X0084102Y0153920D02*
X0105898Y0153920D01*
X0105651Y0154519D02*
X0084349Y0154519D01*
X0084597Y0155117D02*
X0105403Y0155117D01*
X0105300Y0155716D02*
X0084700Y0155716D01*
X0084700Y0156314D02*
X0105300Y0156314D01*
X0105300Y0156913D02*
X0084700Y0156913D01*
X0084585Y0157511D02*
X0105415Y0157511D01*
X0105662Y0158110D02*
X0084338Y0158110D01*
X0084090Y0158708D02*
X0105910Y0158708D01*
X0106360Y0159307D02*
X0083640Y0159307D01*
X0083041Y0159905D02*
X0106959Y0159905D01*
X0107868Y0160504D02*
X0082132Y0160504D01*
X0081179Y0161701D02*
X0108821Y0161701D01*
X0107376Y0162300D02*
X0082624Y0162300D01*
X0083245Y0162898D02*
X0106755Y0162898D01*
X0106157Y0163497D02*
X0083843Y0163497D01*
X0084174Y0164095D02*
X0105826Y0164095D01*
X0105578Y0164694D02*
X0084422Y0164694D01*
X0084670Y0165292D02*
X0105330Y0165292D01*
X0105300Y0165891D02*
X0084700Y0165891D01*
X0084700Y0166489D02*
X0105300Y0166489D01*
X0105300Y0167088D02*
X0084700Y0167088D01*
X0084513Y0167686D02*
X0105487Y0167686D01*
X0105735Y0168285D02*
X0084265Y0168285D01*
X0084017Y0168883D02*
X0105983Y0168883D01*
X0106535Y0169482D02*
X0083465Y0169482D01*
X0082867Y0170080D02*
X0107133Y0170080D01*
X0110102Y0172200D02*
X0111698Y0172200D01*
X0114100Y0174602D01*
X0114246Y0174270D02*
X0150616Y0174270D01*
X0150354Y0173671D02*
X0113998Y0173671D01*
X0113420Y0173073D02*
X0150106Y0173073D01*
X0149858Y0172474D02*
X0112821Y0172474D01*
X0111601Y0171876D02*
X0149800Y0171876D01*
X0149800Y0171277D02*
X0052989Y0171277D01*
X0052989Y0170857D02*
X0052989Y0171895D01*
X0052534Y0172993D01*
X0051693Y0173834D01*
X0050595Y0174289D01*
X0049405Y0174289D01*
X0048307Y0173834D01*
X0047466Y0172993D01*
X0047011Y0171895D01*
X0047011Y0170705D01*
X0047466Y0169607D01*
X0048307Y0168766D01*
X0049405Y0168311D01*
X0050443Y0168311D01*
X0063200Y0155554D01*
X0063200Y0153727D01*
X0062466Y0152993D01*
X0062011Y0151895D01*
X0062011Y0150705D01*
X0062466Y0149607D01*
X0063307Y0148766D01*
X0064405Y0148311D01*
X0065595Y0148311D01*
X0066693Y0148766D01*
X0067534Y0149607D01*
X0067989Y0150705D01*
X0067989Y0151895D01*
X0067534Y0152993D01*
X0066800Y0153727D01*
X0066800Y0157046D01*
X0052989Y0170857D01*
X0053167Y0170679D02*
X0078289Y0170679D01*
X0078399Y0171876D02*
X0052989Y0171876D01*
X0052749Y0172474D02*
X0077179Y0172474D01*
X0076580Y0173073D02*
X0052454Y0173073D01*
X0051856Y0173671D02*
X0076002Y0173671D01*
X0075754Y0174270D02*
X0050641Y0174270D01*
X0049359Y0174270D02*
X0015000Y0174270D01*
X0015000Y0174868D02*
X0075506Y0174868D01*
X0075300Y0175467D02*
X0015000Y0175467D01*
X0015000Y0176065D02*
X0075300Y0176065D01*
X0075300Y0176664D02*
X0015000Y0176664D01*
X0015000Y0177262D02*
X0075311Y0177262D01*
X0077978Y0182050D02*
X0055079Y0182050D01*
X0055466Y0182649D02*
X0077004Y0182649D01*
X0076406Y0183247D02*
X0055813Y0183247D01*
X0056101Y0183846D02*
X0075929Y0183846D01*
X0075681Y0184444D02*
X0056336Y0184444D01*
X0056545Y0185043D02*
X0075433Y0185043D01*
X0075300Y0185641D02*
X0056686Y0185641D01*
X0056813Y0186240D02*
X0075300Y0186240D01*
X0075300Y0186839D02*
X0056880Y0186839D01*
X0056926Y0187437D02*
X0075384Y0187437D01*
X0082747Y0202400D02*
X0107253Y0202400D01*
X0106655Y0202998D02*
X0083345Y0202998D01*
X0083944Y0203597D02*
X0106056Y0203597D01*
X0105785Y0204195D02*
X0084215Y0204195D01*
X0084463Y0204794D02*
X0105537Y0204794D01*
X0105300Y0205392D02*
X0084700Y0205392D01*
X0084700Y0205991D02*
X0105300Y0205991D01*
X0105300Y0206589D02*
X0084700Y0206589D01*
X0084700Y0207188D02*
X0105300Y0207188D01*
X0105528Y0207786D02*
X0084472Y0207786D01*
X0084224Y0208385D02*
X0105776Y0208385D01*
X0106037Y0208983D02*
X0083963Y0208983D01*
X0083365Y0209582D02*
X0106635Y0209582D01*
X0107234Y0210180D02*
X0082766Y0210180D01*
X0081469Y0210779D02*
X0108531Y0210779D01*
X0111469Y0210779D02*
X0149800Y0210779D01*
X0149835Y0210180D02*
X0112766Y0210180D01*
X0113365Y0209582D02*
X0150083Y0209582D01*
X0150331Y0208983D02*
X0113963Y0208983D01*
X0114224Y0208385D02*
X0150579Y0208385D01*
X0151160Y0207786D02*
X0114472Y0207786D01*
X0114700Y0207188D02*
X0151758Y0207188D01*
X0152784Y0206589D02*
X0114700Y0206589D01*
X0114700Y0205991D02*
X0152737Y0205991D01*
X0151738Y0205392D02*
X0114700Y0205392D01*
X0114463Y0204794D02*
X0151140Y0204794D01*
X0150571Y0204195D02*
X0114215Y0204195D01*
X0113944Y0203597D02*
X0150323Y0203597D01*
X0150075Y0202998D02*
X0113345Y0202998D01*
X0112747Y0202400D02*
X0149827Y0202400D01*
X0149800Y0170679D02*
X0111711Y0170679D01*
X0112867Y0170080D02*
X0149877Y0170080D01*
X0150125Y0169482D02*
X0113465Y0169482D01*
X0114017Y0168883D02*
X0150373Y0168883D01*
X0150661Y0168285D02*
X0114265Y0168285D01*
X0114513Y0167686D02*
X0151260Y0167686D01*
X0151858Y0167088D02*
X0114700Y0167088D01*
X0114700Y0166489D02*
X0153026Y0166489D01*
X0152494Y0165891D02*
X0114700Y0165891D01*
X0114670Y0165292D02*
X0151638Y0165292D01*
X0151040Y0164694D02*
X0114422Y0164694D01*
X0114174Y0164095D02*
X0150529Y0164095D01*
X0150281Y0163497D02*
X0113843Y0163497D01*
X0113245Y0162898D02*
X0150034Y0162898D01*
X0149800Y0162300D02*
X0112624Y0162300D01*
X0111179Y0161701D02*
X0149800Y0161701D01*
X0149800Y0161103D02*
X0062743Y0161103D01*
X0062145Y0161701D02*
X0078821Y0161701D01*
X0077868Y0160504D02*
X0063342Y0160504D01*
X0063940Y0159905D02*
X0076959Y0159905D01*
X0076360Y0159307D02*
X0064539Y0159307D01*
X0065137Y0158708D02*
X0075910Y0158708D01*
X0075662Y0158110D02*
X0065736Y0158110D01*
X0066334Y0157511D02*
X0075415Y0157511D01*
X0075300Y0156913D02*
X0066800Y0156913D01*
X0066800Y0156314D02*
X0075300Y0156314D01*
X0075300Y0155716D02*
X0066800Y0155716D01*
X0066800Y0155117D02*
X0075403Y0155117D01*
X0075651Y0154519D02*
X0066800Y0154519D01*
X0066800Y0153920D02*
X0075898Y0153920D01*
X0076331Y0153322D02*
X0067205Y0153322D01*
X0067646Y0152723D02*
X0076930Y0152723D01*
X0077798Y0152125D02*
X0067894Y0152125D01*
X0067989Y0151526D02*
X0149800Y0151526D01*
X0149800Y0150928D02*
X0081109Y0150928D01*
X0078891Y0150928D02*
X0067989Y0150928D01*
X0067833Y0150329D02*
X0077446Y0150329D01*
X0076784Y0149731D02*
X0067585Y0149731D01*
X0067059Y0149132D02*
X0076185Y0149132D01*
X0075838Y0148534D02*
X0066132Y0148534D01*
X0063868Y0148534D02*
X0050312Y0148534D01*
X0050600Y0147935D02*
X0075590Y0147935D01*
X0075342Y0147337D02*
X0050600Y0147337D01*
X0050600Y0146738D02*
X0075300Y0146738D01*
X0075300Y0146140D02*
X0050600Y0146140D01*
X0050600Y0145541D02*
X0075300Y0145541D01*
X0075475Y0144943D02*
X0050600Y0144943D01*
X0050600Y0144344D02*
X0075723Y0144344D01*
X0075971Y0143746D02*
X0050600Y0143746D01*
X0050600Y0143147D02*
X0076506Y0143147D01*
X0077105Y0142549D02*
X0050600Y0142549D01*
X0050600Y0141950D02*
X0078220Y0141950D01*
X0078946Y0140689D02*
X0078273Y0140470D01*
X0077641Y0140149D01*
X0077068Y0139732D01*
X0076568Y0139232D01*
X0076151Y0138659D01*
X0075830Y0138027D01*
X0075611Y0137354D01*
X0075500Y0136654D01*
X0075500Y0136600D01*
X0079700Y0136600D01*
X0079700Y0140800D01*
X0079646Y0140800D01*
X0078946Y0140689D01*
X0079350Y0140753D02*
X0050600Y0140753D01*
X0050600Y0140155D02*
X0077653Y0140155D01*
X0076892Y0139556D02*
X0050600Y0139556D01*
X0050600Y0138958D02*
X0076369Y0138958D01*
X0075999Y0138359D02*
X0050600Y0138359D01*
X0050600Y0137761D02*
X0075743Y0137761D01*
X0075580Y0137162D02*
X0050600Y0137162D01*
X0050600Y0136564D02*
X0079700Y0136564D01*
X0079700Y0136600D02*
X0079700Y0136000D01*
X0080300Y0136000D01*
X0080300Y0136600D01*
X0084500Y0136600D01*
X0084500Y0136654D01*
X0084389Y0137354D01*
X0084170Y0138027D01*
X0083849Y0138659D01*
X0083432Y0139232D01*
X0082932Y0139732D01*
X0082359Y0140149D01*
X0081727Y0140470D01*
X0081054Y0140689D01*
X0080354Y0140800D01*
X0080300Y0140800D01*
X0080300Y0136600D01*
X0079700Y0136600D01*
X0079700Y0137162D02*
X0080300Y0137162D01*
X0080300Y0136564D02*
X0097191Y0136564D01*
X0096592Y0137162D02*
X0084420Y0137162D01*
X0084257Y0137761D02*
X0095994Y0137761D01*
X0095395Y0138359D02*
X0084001Y0138359D01*
X0083631Y0138958D02*
X0094797Y0138958D01*
X0094198Y0139556D02*
X0083108Y0139556D01*
X0082347Y0140155D02*
X0093600Y0140155D01*
X0093001Y0140753D02*
X0080650Y0140753D01*
X0080300Y0140753D02*
X0079700Y0140753D01*
X0079700Y0140155D02*
X0080300Y0140155D01*
X0080300Y0139556D02*
X0079700Y0139556D01*
X0079700Y0138958D02*
X0080300Y0138958D01*
X0080300Y0138359D02*
X0079700Y0138359D01*
X0079700Y0137761D02*
X0080300Y0137761D01*
X0080300Y0136000D02*
X0084500Y0136000D01*
X0084500Y0135946D01*
X0084389Y0135246D01*
X0084170Y0134573D01*
X0083849Y0133941D01*
X0083432Y0133368D01*
X0082932Y0132868D01*
X0082359Y0132451D01*
X0081727Y0132130D01*
X0081054Y0131911D01*
X0080354Y0131800D01*
X0080300Y0131800D01*
X0080300Y0136000D01*
X0080300Y0135965D02*
X0079700Y0135965D01*
X0079700Y0136000D02*
X0079700Y0131800D01*
X0079646Y0131800D01*
X0078946Y0131911D01*
X0078273Y0132130D01*
X0077641Y0132451D01*
X0077068Y0132868D01*
X0076568Y0133368D01*
X0076151Y0133941D01*
X0075830Y0134573D01*
X0075611Y0135246D01*
X0075500Y0135946D01*
X0075500Y0136000D01*
X0079700Y0136000D01*
X0079700Y0135367D02*
X0080300Y0135367D01*
X0080300Y0134768D02*
X0079700Y0134768D01*
X0079700Y0134170D02*
X0080300Y0134170D01*
X0080300Y0133571D02*
X0079700Y0133571D01*
X0079700Y0132972D02*
X0080300Y0132972D01*
X0080300Y0132374D02*
X0079700Y0132374D01*
X0079065Y0131000D02*
X0077338Y0130284D01*
X0076016Y0128962D01*
X0075300Y0127235D01*
X0075300Y0125365D01*
X0076016Y0123638D01*
X0077338Y0122316D01*
X0079065Y0121600D01*
X0080935Y0121600D01*
X0082662Y0122316D01*
X0083984Y0123638D01*
X0084700Y0125365D01*
X0084700Y0127235D01*
X0083984Y0128962D01*
X0082662Y0130284D01*
X0080935Y0131000D01*
X0079065Y0131000D01*
X0078047Y0130578D02*
X0056570Y0130578D01*
X0057169Y0129980D02*
X0077033Y0129980D01*
X0076435Y0129381D02*
X0057767Y0129381D01*
X0058366Y0128783D02*
X0075941Y0128783D01*
X0075693Y0128184D02*
X0058964Y0128184D01*
X0059563Y0127586D02*
X0075445Y0127586D01*
X0075300Y0126987D02*
X0060161Y0126987D01*
X0060760Y0126389D02*
X0075300Y0126389D01*
X0075300Y0125790D02*
X0061358Y0125790D01*
X0061957Y0125192D02*
X0075372Y0125192D01*
X0075620Y0124593D02*
X0062555Y0124593D01*
X0063154Y0123995D02*
X0075868Y0123995D01*
X0076257Y0123396D02*
X0063752Y0123396D01*
X0064351Y0122798D02*
X0076855Y0122798D01*
X0077618Y0122199D02*
X0064949Y0122199D01*
X0065548Y0121601D02*
X0079063Y0121601D01*
X0079065Y0121000D02*
X0077338Y0120284D01*
X0076016Y0118962D01*
X0075300Y0117235D01*
X0075300Y0115365D01*
X0076016Y0113638D01*
X0077338Y0112316D01*
X0079065Y0111600D01*
X0080935Y0111600D01*
X0082662Y0112316D01*
X0083984Y0113638D01*
X0084700Y0115365D01*
X0084700Y0117235D01*
X0083984Y0118962D01*
X0082662Y0120284D01*
X0080935Y0121000D01*
X0079065Y0121000D01*
X0077626Y0120404D02*
X0066745Y0120404D01*
X0067343Y0119805D02*
X0076858Y0119805D01*
X0076260Y0119207D02*
X0067942Y0119207D01*
X0068540Y0118608D02*
X0075869Y0118608D01*
X0075621Y0118010D02*
X0069139Y0118010D01*
X0069737Y0117411D02*
X0075373Y0117411D01*
X0075300Y0116813D02*
X0070336Y0116813D01*
X0070934Y0116214D02*
X0075300Y0116214D01*
X0075300Y0115616D02*
X0071533Y0115616D01*
X0071800Y0115017D02*
X0075444Y0115017D01*
X0075692Y0114419D02*
X0071800Y0114419D01*
X0071800Y0113820D02*
X0075940Y0113820D01*
X0076432Y0113222D02*
X0071800Y0113222D01*
X0071800Y0112623D02*
X0077030Y0112623D01*
X0078040Y0112025D02*
X0071800Y0112025D01*
X0071800Y0111426D02*
X0104100Y0111426D01*
X0104100Y0110828D02*
X0081351Y0110828D01*
X0080935Y0111000D02*
X0079065Y0111000D01*
X0077338Y0110284D01*
X0076016Y0108962D01*
X0075300Y0107235D01*
X0075300Y0105365D01*
X0076016Y0103638D01*
X0077338Y0102316D01*
X0079065Y0101600D01*
X0080935Y0101600D01*
X0082662Y0102316D01*
X0083984Y0103638D01*
X0084700Y0105365D01*
X0084700Y0107235D01*
X0083984Y0108962D01*
X0082662Y0110284D01*
X0080935Y0111000D01*
X0081960Y0112025D02*
X0104100Y0112025D01*
X0104100Y0112623D02*
X0082970Y0112623D01*
X0083568Y0113222D02*
X0104376Y0113222D01*
X0104975Y0113820D02*
X0084060Y0113820D01*
X0084308Y0114419D02*
X0105573Y0114419D01*
X0105444Y0115017D02*
X0084556Y0115017D01*
X0084700Y0115616D02*
X0105300Y0115616D01*
X0105300Y0116214D02*
X0084700Y0116214D01*
X0084700Y0116813D02*
X0105300Y0116813D01*
X0105373Y0117411D02*
X0084627Y0117411D01*
X0084379Y0118010D02*
X0105621Y0118010D01*
X0105869Y0118608D02*
X0084131Y0118608D01*
X0083740Y0119207D02*
X0106260Y0119207D01*
X0106858Y0119805D02*
X0083142Y0119805D01*
X0082374Y0120404D02*
X0107626Y0120404D01*
X0107618Y0122199D02*
X0082382Y0122199D01*
X0083145Y0122798D02*
X0106855Y0122798D01*
X0106257Y0123396D02*
X0083743Y0123396D01*
X0084132Y0123995D02*
X0105868Y0123995D01*
X0105620Y0124593D02*
X0084380Y0124593D01*
X0084628Y0125192D02*
X0105372Y0125192D01*
X0105300Y0125790D02*
X0084700Y0125790D01*
X0084700Y0126389D02*
X0105300Y0126389D01*
X0105300Y0126987D02*
X0084700Y0126987D01*
X0084555Y0127586D02*
X0105445Y0127586D01*
X0105570Y0128184D02*
X0084307Y0128184D01*
X0084059Y0128783D02*
X0104971Y0128783D01*
X0104373Y0129381D02*
X0083565Y0129381D01*
X0082967Y0129980D02*
X0103774Y0129980D01*
X0103176Y0130578D02*
X0081953Y0130578D01*
X0082207Y0132374D02*
X0101380Y0132374D01*
X0100782Y0132972D02*
X0083036Y0132972D01*
X0083580Y0133571D02*
X0100183Y0133571D01*
X0099585Y0134170D02*
X0083965Y0134170D01*
X0084234Y0134768D02*
X0098986Y0134768D01*
X0098388Y0135367D02*
X0084408Y0135367D01*
X0084500Y0135965D02*
X0097789Y0135965D01*
X0100486Y0138359D02*
X0105766Y0138359D01*
X0106014Y0138958D02*
X0099888Y0138958D01*
X0099289Y0139556D02*
X0106609Y0139556D01*
X0106016Y0138962D02*
X0107338Y0140284D01*
X0109065Y0141000D01*
X0110935Y0141000D01*
X0112662Y0140284D01*
X0113984Y0138962D01*
X0114700Y0137235D01*
X0114700Y0135365D01*
X0113984Y0133638D01*
X0112662Y0132316D01*
X0110935Y0131600D01*
X0109065Y0131600D01*
X0107338Y0132316D01*
X0106016Y0133638D01*
X0105300Y0135365D01*
X0105300Y0137235D01*
X0106016Y0138962D01*
X0105518Y0137761D02*
X0101085Y0137761D01*
X0101684Y0137162D02*
X0105300Y0137162D01*
X0105300Y0136564D02*
X0102282Y0136564D01*
X0102881Y0135965D02*
X0105300Y0135965D01*
X0105300Y0135367D02*
X0103479Y0135367D01*
X0104078Y0134768D02*
X0105547Y0134768D01*
X0105795Y0134170D02*
X0104676Y0134170D01*
X0105275Y0133571D02*
X0106082Y0133571D01*
X0105873Y0132972D02*
X0106681Y0132972D01*
X0106472Y0132374D02*
X0107279Y0132374D01*
X0107070Y0131775D02*
X0108641Y0131775D01*
X0107669Y0131177D02*
X0129800Y0131177D01*
X0129800Y0131775D02*
X0111359Y0131775D01*
X0111953Y0130578D02*
X0129800Y0130578D01*
X0129918Y0129980D02*
X0112967Y0129980D01*
X0113565Y0129381D02*
X0130166Y0129381D01*
X0130414Y0128783D02*
X0114059Y0128783D01*
X0114307Y0128184D02*
X0130762Y0128184D01*
X0131360Y0127586D02*
X0114555Y0127586D01*
X0114700Y0126987D02*
X0131959Y0126987D01*
X0133200Y0126389D02*
X0114700Y0126389D01*
X0114700Y0125790D02*
X0133200Y0125790D01*
X0133200Y0125192D02*
X0114628Y0125192D01*
X0114380Y0124593D02*
X0133200Y0124593D01*
X0133200Y0123995D02*
X0114132Y0123995D01*
X0113743Y0123396D02*
X0133200Y0123396D01*
X0133200Y0122798D02*
X0113145Y0122798D01*
X0112382Y0122199D02*
X0133200Y0122199D01*
X0133200Y0121601D02*
X0110937Y0121601D01*
X0112374Y0120404D02*
X0133200Y0120404D01*
X0133200Y0121002D02*
X0066146Y0121002D01*
X0063449Y0118608D02*
X0029513Y0118608D01*
X0029761Y0119207D02*
X0062851Y0119207D01*
X0062252Y0119805D02*
X0030009Y0119805D01*
X0030200Y0120404D02*
X0061654Y0120404D01*
X0061055Y0121002D02*
X0030200Y0121002D01*
X0030200Y0121601D02*
X0060457Y0121601D01*
X0059858Y0122199D02*
X0030200Y0122199D01*
X0030008Y0122798D02*
X0059260Y0122798D01*
X0058661Y0123396D02*
X0029760Y0123396D01*
X0029512Y0123995D02*
X0058063Y0123995D01*
X0057464Y0124593D02*
X0029061Y0124593D01*
X0028462Y0125192D02*
X0056865Y0125192D01*
X0056267Y0125790D02*
X0027748Y0125790D01*
X0026732Y0126389D02*
X0055668Y0126389D01*
X0055070Y0126987D02*
X0028041Y0126987D01*
X0028640Y0127586D02*
X0054471Y0127586D01*
X0053873Y0128184D02*
X0029238Y0128184D01*
X0029586Y0128783D02*
X0053274Y0128783D01*
X0052676Y0129381D02*
X0029834Y0129381D01*
X0030082Y0129980D02*
X0052077Y0129980D01*
X0051479Y0130578D02*
X0030200Y0130578D01*
X0030200Y0131177D02*
X0050880Y0131177D01*
X0050282Y0131775D02*
X0030200Y0131775D01*
X0030184Y0132374D02*
X0049683Y0132374D01*
X0049085Y0132972D02*
X0029936Y0132972D01*
X0029688Y0133571D02*
X0048486Y0133571D01*
X0047888Y0134170D02*
X0029440Y0134170D01*
X0028886Y0134768D02*
X0047289Y0134768D01*
X0047000Y0135367D02*
X0028287Y0135367D01*
X0027326Y0135965D02*
X0047000Y0135965D01*
X0047000Y0136564D02*
X0015000Y0136564D01*
X0015000Y0137162D02*
X0047000Y0137162D01*
X0047000Y0137761D02*
X0015000Y0137761D01*
X0015000Y0138359D02*
X0047000Y0138359D01*
X0047000Y0138958D02*
X0015000Y0138958D01*
X0015000Y0139556D02*
X0047000Y0139556D01*
X0047000Y0140155D02*
X0015000Y0140155D01*
X0015000Y0140753D02*
X0047000Y0140753D01*
X0047000Y0141352D02*
X0015000Y0141352D01*
X0015000Y0141950D02*
X0047000Y0141950D01*
X0047000Y0142549D02*
X0015000Y0142549D01*
X0015000Y0143147D02*
X0047000Y0143147D01*
X0047000Y0143746D02*
X0015000Y0143746D01*
X0015000Y0144344D02*
X0047000Y0144344D01*
X0047000Y0144943D02*
X0015000Y0144943D01*
X0015000Y0145541D02*
X0047000Y0145541D01*
X0047000Y0146140D02*
X0015000Y0146140D01*
X0015000Y0146738D02*
X0047000Y0146738D01*
X0046418Y0147337D02*
X0015000Y0147337D01*
X0015000Y0147935D02*
X0045819Y0147935D01*
X0043868Y0148534D02*
X0015000Y0148534D01*
X0015000Y0149132D02*
X0042941Y0149132D01*
X0042415Y0149731D02*
X0015000Y0149731D01*
X0015000Y0150329D02*
X0042167Y0150329D01*
X0042011Y0150928D02*
X0015000Y0150928D01*
X0015000Y0151526D02*
X0042011Y0151526D01*
X0042106Y0152125D02*
X0015000Y0152125D01*
X0015000Y0152723D02*
X0042354Y0152723D01*
X0042795Y0153322D02*
X0015000Y0153322D01*
X0015000Y0153920D02*
X0043516Y0153920D01*
X0045000Y0151300D02*
X0048800Y0147500D01*
X0048800Y0135803D01*
X0070000Y0114603D01*
X0070000Y0061300D01*
X0071982Y0063545D02*
X0073018Y0063545D01*
X0074055Y0064144D02*
X0071800Y0064144D01*
X0071800Y0064742D02*
X0109012Y0064742D01*
X0108414Y0065341D02*
X0071800Y0065341D01*
X0071800Y0065939D02*
X0107815Y0065939D01*
X0107217Y0066538D02*
X0071800Y0066538D01*
X0071800Y0067136D02*
X0106618Y0067136D01*
X0106020Y0067735D02*
X0071800Y0067735D01*
X0071800Y0068333D02*
X0105421Y0068333D01*
X0104823Y0068932D02*
X0071800Y0068932D01*
X0071800Y0069530D02*
X0104224Y0069530D01*
X0103626Y0070129D02*
X0071800Y0070129D01*
X0071800Y0070727D02*
X0103027Y0070727D01*
X0102429Y0071326D02*
X0071800Y0071326D01*
X0071800Y0071924D02*
X0078282Y0071924D01*
X0077130Y0072523D02*
X0071800Y0072523D01*
X0071800Y0073121D02*
X0076532Y0073121D01*
X0075981Y0073720D02*
X0071800Y0073720D01*
X0071800Y0074318D02*
X0075734Y0074318D01*
X0075486Y0074917D02*
X0071800Y0074917D01*
X0071800Y0075515D02*
X0075300Y0075515D01*
X0075300Y0076114D02*
X0071800Y0076114D01*
X0071800Y0076712D02*
X0075300Y0076712D01*
X0075332Y0077311D02*
X0071800Y0077311D01*
X0071800Y0077909D02*
X0075579Y0077909D01*
X0075827Y0078508D02*
X0071800Y0078508D01*
X0071800Y0079106D02*
X0076160Y0079106D01*
X0076758Y0079705D02*
X0071800Y0079705D01*
X0071800Y0080303D02*
X0077384Y0080303D01*
X0078829Y0080902D02*
X0071800Y0080902D01*
X0071800Y0081501D02*
X0104100Y0081501D01*
X0104100Y0082099D02*
X0082140Y0082099D01*
X0082662Y0082316D02*
X0080935Y0081600D01*
X0079065Y0081600D01*
X0077338Y0082316D01*
X0076016Y0083638D01*
X0075300Y0085365D01*
X0075300Y0087235D01*
X0076016Y0088962D01*
X0077338Y0090284D01*
X0079065Y0091000D01*
X0080935Y0091000D01*
X0082662Y0090284D01*
X0083984Y0088962D01*
X0084700Y0087235D01*
X0084700Y0085365D01*
X0083984Y0083638D01*
X0082662Y0082316D01*
X0083044Y0082698D02*
X0104100Y0082698D01*
X0104100Y0083296D02*
X0083643Y0083296D01*
X0084091Y0083895D02*
X0104100Y0083895D01*
X0104100Y0084493D02*
X0084339Y0084493D01*
X0084587Y0085092D02*
X0104100Y0085092D01*
X0104100Y0085690D02*
X0084700Y0085690D01*
X0084700Y0086289D02*
X0104100Y0086289D01*
X0104100Y0086887D02*
X0084700Y0086887D01*
X0084596Y0087486D02*
X0104100Y0087486D01*
X0104100Y0088084D02*
X0084348Y0088084D01*
X0084100Y0088683D02*
X0104100Y0088683D01*
X0104100Y0089281D02*
X0083666Y0089281D01*
X0083067Y0089880D02*
X0104100Y0089880D01*
X0104100Y0090478D02*
X0082195Y0090478D01*
X0081116Y0091675D02*
X0104100Y0091675D01*
X0104100Y0091077D02*
X0071800Y0091077D01*
X0071800Y0091675D02*
X0078884Y0091675D01*
X0079065Y0091600D02*
X0080935Y0091600D01*
X0082662Y0092316D01*
X0083984Y0093638D01*
X0084700Y0095365D01*
X0084700Y0097235D01*
X0083984Y0098962D01*
X0082662Y0100284D01*
X0080935Y0101000D01*
X0079065Y0101000D01*
X0077338Y0100284D01*
X0076016Y0098962D01*
X0075300Y0097235D01*
X0075300Y0095365D01*
X0076016Y0093638D01*
X0077338Y0092316D01*
X0079065Y0091600D01*
X0077805Y0090478D02*
X0071800Y0090478D01*
X0071800Y0089880D02*
X0076933Y0089880D01*
X0076334Y0089281D02*
X0071800Y0089281D01*
X0071800Y0088683D02*
X0075900Y0088683D01*
X0075652Y0088084D02*
X0071800Y0088084D01*
X0071800Y0087486D02*
X0075404Y0087486D01*
X0075300Y0086887D02*
X0071800Y0086887D01*
X0071800Y0086289D02*
X0075300Y0086289D01*
X0075300Y0085690D02*
X0071800Y0085690D01*
X0071800Y0085092D02*
X0075413Y0085092D01*
X0075661Y0084493D02*
X0071800Y0084493D01*
X0071800Y0083895D02*
X0075909Y0083895D01*
X0076357Y0083296D02*
X0071800Y0083296D01*
X0071800Y0082698D02*
X0076956Y0082698D01*
X0077860Y0082099D02*
X0071800Y0082099D01*
X0068200Y0082099D02*
X0041747Y0082099D01*
X0042345Y0081501D02*
X0068200Y0081501D01*
X0068200Y0080902D02*
X0042944Y0080902D01*
X0043542Y0080303D02*
X0068200Y0080303D01*
X0068200Y0079705D02*
X0044141Y0079705D01*
X0044739Y0079106D02*
X0068200Y0079106D01*
X0068200Y0078508D02*
X0045338Y0078508D01*
X0045936Y0077909D02*
X0068200Y0077909D01*
X0068200Y0077311D02*
X0046535Y0077311D01*
X0047133Y0076712D02*
X0068200Y0076712D01*
X0068200Y0076114D02*
X0047732Y0076114D01*
X0048330Y0075515D02*
X0068200Y0075515D01*
X0068200Y0074917D02*
X0048929Y0074917D01*
X0049527Y0074318D02*
X0068200Y0074318D01*
X0068200Y0073720D02*
X0050126Y0073720D01*
X0050724Y0073121D02*
X0068200Y0073121D01*
X0068200Y0072523D02*
X0051323Y0072523D01*
X0051921Y0071924D02*
X0068200Y0071924D01*
X0068200Y0071326D02*
X0052520Y0071326D01*
X0053118Y0070727D02*
X0068200Y0070727D01*
X0068200Y0070129D02*
X0053717Y0070129D01*
X0054315Y0069530D02*
X0068200Y0069530D01*
X0068200Y0068932D02*
X0054914Y0068932D01*
X0055512Y0068333D02*
X0068200Y0068333D01*
X0068200Y0067735D02*
X0056111Y0067735D01*
X0056709Y0067136D02*
X0068200Y0067136D01*
X0068200Y0066538D02*
X0057308Y0066538D01*
X0057906Y0065939D02*
X0068200Y0065939D01*
X0068200Y0065341D02*
X0058505Y0065341D01*
X0059103Y0064742D02*
X0068200Y0064742D01*
X0068200Y0064144D02*
X0059702Y0064144D01*
X0060300Y0063545D02*
X0068018Y0063545D01*
X0067447Y0062947D02*
X0060899Y0062947D01*
X0061497Y0062348D02*
X0067199Y0062348D01*
X0067011Y0061750D02*
X0062096Y0061750D01*
X0062694Y0061151D02*
X0067011Y0061151D01*
X0067074Y0060553D02*
X0063293Y0060553D01*
X0063891Y0059954D02*
X0067322Y0059954D01*
X0067717Y0059356D02*
X0064490Y0059356D01*
X0065088Y0058757D02*
X0068230Y0058757D01*
X0067632Y0058159D02*
X0065687Y0058159D01*
X0066286Y0057560D02*
X0067287Y0057560D01*
X0067039Y0056962D02*
X0066884Y0056962D01*
X0070000Y0056300D02*
X0075000Y0061300D01*
X0076982Y0063545D02*
X0110209Y0063545D01*
X0109611Y0064144D02*
X0075945Y0064144D01*
X0077553Y0062947D02*
X0110808Y0062947D01*
X0111406Y0062348D02*
X0077801Y0062348D01*
X0077989Y0061750D02*
X0112005Y0061750D01*
X0112603Y0061151D02*
X0077989Y0061151D01*
X0077926Y0060553D02*
X0113202Y0060553D01*
X0113800Y0059954D02*
X0077678Y0059954D01*
X0077283Y0059356D02*
X0114399Y0059356D01*
X0114997Y0058757D02*
X0076671Y0058757D01*
X0074404Y0058159D02*
X0115596Y0058159D01*
X0116194Y0057560D02*
X0073806Y0057560D01*
X0073207Y0056962D02*
X0116793Y0056962D01*
X0117391Y0056363D02*
X0072989Y0056363D01*
X0072989Y0055765D02*
X0117990Y0055765D01*
X0118588Y0055166D02*
X0072766Y0055166D01*
X0072495Y0054568D02*
X0119187Y0054568D01*
X0119785Y0053969D02*
X0071896Y0053969D01*
X0070738Y0053370D02*
X0120384Y0053370D01*
X0120982Y0052772D02*
X0071074Y0052772D01*
X0071672Y0052173D02*
X0121581Y0052173D01*
X0122179Y0051575D02*
X0072271Y0051575D01*
X0072869Y0050976D02*
X0122778Y0050976D01*
X0123376Y0050378D02*
X0073468Y0050378D01*
X0074066Y0049779D02*
X0123975Y0049779D01*
X0124573Y0049181D02*
X0074665Y0049181D01*
X0075263Y0048582D02*
X0125172Y0048582D01*
X0125771Y0047984D02*
X0075862Y0047984D01*
X0076460Y0047385D02*
X0087034Y0047385D01*
X0086436Y0046787D02*
X0077059Y0046787D01*
X0077657Y0046188D02*
X0078213Y0046188D01*
X0081787Y0046188D02*
X0085837Y0046188D01*
X0085239Y0045590D02*
X0083064Y0045590D01*
X0083663Y0044991D02*
X0084640Y0044991D01*
X0085400Y0043205D02*
X0088095Y0045900D01*
X0091905Y0045900D01*
X0095400Y0042405D01*
X0095400Y0039395D01*
X0098095Y0036700D01*
X0136905Y0036700D01*
X0139600Y0039395D01*
X0139600Y0043205D01*
X0136905Y0045900D01*
X0134602Y0045900D01*
X0105900Y0074602D01*
X0105900Y0112200D01*
X0110000Y0116300D01*
X0114308Y0114419D02*
X0133200Y0114419D01*
X0133200Y0115017D02*
X0114556Y0115017D01*
X0114700Y0115616D02*
X0133200Y0115616D01*
X0133200Y0116214D02*
X0114700Y0116214D01*
X0114700Y0116813D02*
X0133200Y0116813D01*
X0133200Y0117411D02*
X0114627Y0117411D01*
X0114379Y0118010D02*
X0133200Y0118010D01*
X0133200Y0118608D02*
X0114131Y0118608D01*
X0113740Y0119207D02*
X0133200Y0119207D01*
X0133200Y0119805D02*
X0113142Y0119805D01*
X0109063Y0121601D02*
X0080937Y0121601D01*
X0078649Y0110828D02*
X0071800Y0110828D01*
X0071800Y0110229D02*
X0077282Y0110229D01*
X0076684Y0109631D02*
X0071800Y0109631D01*
X0071800Y0109032D02*
X0076085Y0109032D01*
X0075796Y0108434D02*
X0071800Y0108434D01*
X0071800Y0107835D02*
X0075549Y0107835D01*
X0075301Y0107237D02*
X0071800Y0107237D01*
X0071800Y0106638D02*
X0075300Y0106638D01*
X0075300Y0106039D02*
X0071800Y0106039D01*
X0071800Y0105441D02*
X0075300Y0105441D01*
X0075516Y0104842D02*
X0071800Y0104842D01*
X0071800Y0104244D02*
X0075764Y0104244D01*
X0076012Y0103645D02*
X0071800Y0103645D01*
X0071800Y0103047D02*
X0076606Y0103047D01*
X0077205Y0102448D02*
X0071800Y0102448D01*
X0071800Y0101850D02*
X0078462Y0101850D01*
X0078227Y0100653D02*
X0071800Y0100653D01*
X0071800Y0101251D02*
X0104100Y0101251D01*
X0104100Y0100653D02*
X0081773Y0100653D01*
X0081538Y0101850D02*
X0104100Y0101850D01*
X0104100Y0102448D02*
X0082795Y0102448D01*
X0083394Y0103047D02*
X0104100Y0103047D01*
X0104100Y0103645D02*
X0083988Y0103645D01*
X0084236Y0104244D02*
X0104100Y0104244D01*
X0104100Y0104842D02*
X0084484Y0104842D01*
X0084700Y0105441D02*
X0104100Y0105441D01*
X0104100Y0106039D02*
X0084700Y0106039D01*
X0084700Y0106638D02*
X0104100Y0106638D01*
X0104100Y0107237D02*
X0084699Y0107237D01*
X0084451Y0107835D02*
X0104100Y0107835D01*
X0104100Y0108434D02*
X0084204Y0108434D01*
X0083915Y0109032D02*
X0104100Y0109032D01*
X0104100Y0109631D02*
X0083316Y0109631D01*
X0082718Y0110229D02*
X0104100Y0110229D01*
X0107700Y0110828D02*
X0108649Y0110828D01*
X0107700Y0111426D02*
X0132581Y0111426D01*
X0133179Y0112025D02*
X0111960Y0112025D01*
X0112970Y0112623D02*
X0133200Y0112623D01*
X0133200Y0113222D02*
X0113568Y0113222D01*
X0114060Y0113820D02*
X0133200Y0113820D01*
X0135000Y0111300D02*
X0110000Y0086300D01*
X0112140Y0082099D02*
X0131847Y0082099D01*
X0132054Y0081892D02*
X0133966Y0081100D01*
X0136034Y0081100D01*
X0137946Y0081892D01*
X0139408Y0083354D01*
X0140000Y0084783D01*
X0140592Y0083354D01*
X0142054Y0081892D01*
X0143966Y0081100D01*
X0146034Y0081100D01*
X0147946Y0081892D01*
X0149408Y0083354D01*
X0150200Y0085266D01*
X0150200Y0087334D01*
X0149408Y0089246D01*
X0147946Y0090708D01*
X0146034Y0091500D01*
X0143966Y0091500D01*
X0142054Y0090708D01*
X0140592Y0089246D01*
X0140000Y0087817D01*
X0139408Y0089246D01*
X0137946Y0090708D01*
X0136034Y0091500D01*
X0133966Y0091500D01*
X0132054Y0090708D01*
X0130592Y0089246D01*
X0129800Y0087334D01*
X0129800Y0085266D01*
X0130592Y0083354D01*
X0132054Y0081892D01*
X0132999Y0081501D02*
X0107700Y0081501D01*
X0107700Y0082099D02*
X0107860Y0082099D01*
X0107700Y0080902D02*
X0108829Y0080902D01*
X0111171Y0080902D02*
X0160000Y0080902D01*
X0160000Y0081501D02*
X0147001Y0081501D01*
X0148153Y0082099D02*
X0160000Y0082099D01*
X0160000Y0082698D02*
X0148751Y0082698D01*
X0149350Y0083296D02*
X0160000Y0083296D01*
X0160000Y0083895D02*
X0149632Y0083895D01*
X0149880Y0084493D02*
X0160000Y0084493D01*
X0160000Y0085092D02*
X0150128Y0085092D01*
X0150200Y0085690D02*
X0160000Y0085690D01*
X0160000Y0086289D02*
X0150200Y0086289D01*
X0150200Y0086887D02*
X0160000Y0086887D01*
X0160000Y0087486D02*
X0150137Y0087486D01*
X0149889Y0088084D02*
X0160000Y0088084D01*
X0160000Y0088683D02*
X0149642Y0088683D01*
X0149373Y0089281D02*
X0160000Y0089281D01*
X0160000Y0089880D02*
X0148774Y0089880D01*
X0148176Y0090478D02*
X0160000Y0090478D01*
X0160000Y0091077D02*
X0147056Y0091077D01*
X0142944Y0091077D02*
X0137056Y0091077D01*
X0138176Y0090478D02*
X0141824Y0090478D01*
X0141226Y0089880D02*
X0138774Y0089880D01*
X0139373Y0089281D02*
X0140627Y0089281D01*
X0140358Y0088683D02*
X0139641Y0088683D01*
X0139889Y0088084D02*
X0140111Y0088084D01*
X0140120Y0084493D02*
X0139880Y0084493D01*
X0139632Y0083895D02*
X0140368Y0083895D01*
X0140650Y0083296D02*
X0139350Y0083296D01*
X0138751Y0082698D02*
X0141249Y0082698D01*
X0141847Y0082099D02*
X0138153Y0082099D01*
X0137001Y0081501D02*
X0142999Y0081501D01*
X0132944Y0091077D02*
X0117322Y0091077D01*
X0117921Y0091675D02*
X0160000Y0091675D01*
X0160000Y0092274D02*
X0118519Y0092274D01*
X0119118Y0092872D02*
X0160000Y0092872D01*
X0160000Y0093471D02*
X0119716Y0093471D01*
X0120315Y0094069D02*
X0160000Y0094069D01*
X0160000Y0094668D02*
X0120913Y0094668D01*
X0121512Y0095266D02*
X0160000Y0095266D01*
X0160000Y0095865D02*
X0122110Y0095865D01*
X0122709Y0096463D02*
X0160000Y0096463D01*
X0160000Y0097062D02*
X0123307Y0097062D01*
X0123906Y0097660D02*
X0160000Y0097660D01*
X0160000Y0098259D02*
X0124504Y0098259D01*
X0125103Y0098857D02*
X0160000Y0098857D01*
X0160000Y0099456D02*
X0125701Y0099456D01*
X0126300Y0100054D02*
X0160000Y0100054D01*
X0160000Y0100653D02*
X0126898Y0100653D01*
X0127497Y0101251D02*
X0160000Y0101251D01*
X0160000Y0101850D02*
X0128095Y0101850D01*
X0128694Y0102448D02*
X0160000Y0102448D01*
X0160000Y0103047D02*
X0129292Y0103047D01*
X0129891Y0103645D02*
X0160000Y0103645D01*
X0160000Y0104244D02*
X0130490Y0104244D01*
X0131088Y0104842D02*
X0160000Y0104842D01*
X0160000Y0105441D02*
X0131687Y0105441D01*
X0132285Y0106039D02*
X0160000Y0106039D01*
X0160000Y0106638D02*
X0132884Y0106638D01*
X0133482Y0107237D02*
X0160000Y0107237D01*
X0160000Y0107835D02*
X0134081Y0107835D01*
X0134679Y0108434D02*
X0160000Y0108434D01*
X0160000Y0109032D02*
X0135278Y0109032D01*
X0135876Y0109631D02*
X0142124Y0109631D01*
X0141525Y0110229D02*
X0136475Y0110229D01*
X0136800Y0110828D02*
X0141200Y0110828D01*
X0141200Y0111426D02*
X0136800Y0111426D01*
X0136800Y0112025D02*
X0141200Y0112025D01*
X0141778Y0112623D02*
X0136800Y0112623D01*
X0136800Y0113222D02*
X0142376Y0113222D01*
X0142975Y0113820D02*
X0136800Y0113820D01*
X0136800Y0114419D02*
X0143200Y0114419D01*
X0143200Y0115017D02*
X0136800Y0115017D01*
X0136800Y0115616D02*
X0143200Y0115616D01*
X0143200Y0116214D02*
X0136800Y0116214D01*
X0136800Y0116813D02*
X0143200Y0116813D01*
X0143200Y0117411D02*
X0136800Y0117411D01*
X0136800Y0118010D02*
X0143200Y0118010D01*
X0143200Y0118608D02*
X0136800Y0118608D01*
X0136800Y0119207D02*
X0143200Y0119207D01*
X0143200Y0119805D02*
X0136800Y0119805D01*
X0136800Y0120404D02*
X0143200Y0120404D01*
X0143200Y0121002D02*
X0136800Y0121002D01*
X0136800Y0121601D02*
X0143200Y0121601D01*
X0143200Y0122199D02*
X0136800Y0122199D01*
X0136800Y0122798D02*
X0143200Y0122798D01*
X0143200Y0123396D02*
X0136800Y0123396D01*
X0136800Y0123995D02*
X0143200Y0123995D01*
X0143200Y0124593D02*
X0136800Y0124593D01*
X0136800Y0125192D02*
X0143200Y0125192D01*
X0143200Y0125790D02*
X0136800Y0125790D01*
X0136800Y0126389D02*
X0143200Y0126389D01*
X0141959Y0126987D02*
X0138041Y0126987D01*
X0138640Y0127586D02*
X0141360Y0127586D01*
X0140762Y0128184D02*
X0139238Y0128184D01*
X0139586Y0128783D02*
X0140414Y0128783D01*
X0140166Y0129381D02*
X0139834Y0129381D01*
X0139936Y0132972D02*
X0140064Y0132972D01*
X0140312Y0133571D02*
X0139688Y0133571D01*
X0139440Y0134170D02*
X0140560Y0134170D01*
X0141114Y0134768D02*
X0138886Y0134768D01*
X0138287Y0135367D02*
X0141713Y0135367D01*
X0142674Y0135965D02*
X0137326Y0135965D01*
X0135000Y0131300D02*
X0135000Y0111300D01*
X0131982Y0110828D02*
X0111351Y0110828D01*
X0112718Y0110229D02*
X0131383Y0110229D01*
X0130785Y0109631D02*
X0113316Y0109631D01*
X0113915Y0109032D02*
X0130186Y0109032D01*
X0129588Y0108434D02*
X0114204Y0108434D01*
X0114451Y0107835D02*
X0128989Y0107835D01*
X0128391Y0107237D02*
X0114699Y0107237D01*
X0114700Y0106638D02*
X0127792Y0106638D01*
X0127194Y0106039D02*
X0114700Y0106039D01*
X0114700Y0105441D02*
X0126595Y0105441D01*
X0125997Y0104842D02*
X0114484Y0104842D01*
X0114236Y0104244D02*
X0125398Y0104244D01*
X0124800Y0103645D02*
X0113988Y0103645D01*
X0113394Y0103047D02*
X0124201Y0103047D01*
X0123603Y0102448D02*
X0112795Y0102448D01*
X0111538Y0101850D02*
X0123004Y0101850D01*
X0122406Y0101251D02*
X0107700Y0101251D01*
X0107700Y0100653D02*
X0108227Y0100653D01*
X0108462Y0101850D02*
X0107700Y0101850D01*
X0104100Y0100054D02*
X0082892Y0100054D01*
X0083491Y0099456D02*
X0104100Y0099456D01*
X0104100Y0098857D02*
X0084028Y0098857D01*
X0084276Y0098259D02*
X0104100Y0098259D01*
X0104100Y0097660D02*
X0084524Y0097660D01*
X0084700Y0097062D02*
X0104100Y0097062D01*
X0104100Y0096463D02*
X0084700Y0096463D01*
X0084700Y0095865D02*
X0104100Y0095865D01*
X0104100Y0095266D02*
X0084659Y0095266D01*
X0084411Y0094668D02*
X0104100Y0094668D01*
X0104100Y0094069D02*
X0084163Y0094069D01*
X0083818Y0093471D02*
X0104100Y0093471D01*
X0104100Y0092872D02*
X0083219Y0092872D01*
X0082561Y0092274D02*
X0104100Y0092274D01*
X0107700Y0091675D02*
X0108884Y0091675D01*
X0107700Y0091077D02*
X0112231Y0091077D01*
X0112830Y0091675D02*
X0111116Y0091675D01*
X0112561Y0092274D02*
X0113428Y0092274D01*
X0113219Y0092872D02*
X0114027Y0092872D01*
X0113818Y0093471D02*
X0114625Y0093471D01*
X0114163Y0094069D02*
X0115224Y0094069D01*
X0115822Y0094668D02*
X0114411Y0094668D01*
X0114659Y0095266D02*
X0116421Y0095266D01*
X0117019Y0095865D02*
X0114700Y0095865D01*
X0114700Y0096463D02*
X0117618Y0096463D01*
X0118216Y0097062D02*
X0114700Y0097062D01*
X0114524Y0097660D02*
X0118815Y0097660D01*
X0119413Y0098259D02*
X0114276Y0098259D01*
X0114028Y0098857D02*
X0120012Y0098857D01*
X0120610Y0099456D02*
X0113491Y0099456D01*
X0112892Y0100054D02*
X0121209Y0100054D01*
X0121807Y0100653D02*
X0111773Y0100653D01*
X0107805Y0090478D02*
X0107700Y0090478D01*
X0114348Y0088084D02*
X0130111Y0088084D01*
X0130358Y0088683D02*
X0114928Y0088683D01*
X0115527Y0089281D02*
X0130627Y0089281D01*
X0131226Y0089880D02*
X0116125Y0089880D01*
X0116724Y0090478D02*
X0131824Y0090478D01*
X0129863Y0087486D02*
X0114596Y0087486D01*
X0114700Y0086887D02*
X0129800Y0086887D01*
X0129800Y0086289D02*
X0114700Y0086289D01*
X0114700Y0085690D02*
X0129800Y0085690D01*
X0129872Y0085092D02*
X0114587Y0085092D01*
X0114339Y0084493D02*
X0130120Y0084493D01*
X0130368Y0083895D02*
X0114091Y0083895D01*
X0113643Y0083296D02*
X0130650Y0083296D01*
X0131249Y0082698D02*
X0113044Y0082698D01*
X0112616Y0080303D02*
X0160000Y0080303D01*
X0160000Y0079705D02*
X0113242Y0079705D01*
X0113840Y0079106D02*
X0160000Y0079106D01*
X0160000Y0078508D02*
X0114173Y0078508D01*
X0114421Y0077909D02*
X0160000Y0077909D01*
X0160000Y0077311D02*
X0114668Y0077311D01*
X0114700Y0076712D02*
X0160000Y0076712D01*
X0160000Y0076114D02*
X0114700Y0076114D01*
X0114700Y0075515D02*
X0160000Y0075515D01*
X0160000Y0074917D02*
X0114514Y0074917D01*
X0114266Y0074318D02*
X0160000Y0074318D01*
X0160000Y0073720D02*
X0114019Y0073720D01*
X0113468Y0073121D02*
X0160000Y0073121D01*
X0160000Y0072523D02*
X0112870Y0072523D01*
X0111718Y0071924D02*
X0160000Y0071924D01*
X0160000Y0071326D02*
X0111721Y0071326D01*
X0112320Y0070727D02*
X0160000Y0070727D01*
X0160000Y0070129D02*
X0112918Y0070129D01*
X0113517Y0069530D02*
X0160000Y0069530D01*
X0160000Y0068932D02*
X0114116Y0068932D01*
X0114714Y0068333D02*
X0160000Y0068333D01*
X0160000Y0067735D02*
X0115313Y0067735D01*
X0115911Y0067136D02*
X0160000Y0067136D01*
X0160000Y0066538D02*
X0116510Y0066538D01*
X0117108Y0065939D02*
X0160000Y0065939D01*
X0160000Y0065341D02*
X0117707Y0065341D01*
X0118305Y0064742D02*
X0160000Y0064742D01*
X0160000Y0064144D02*
X0118904Y0064144D01*
X0119502Y0063545D02*
X0160000Y0063545D01*
X0160000Y0062947D02*
X0120101Y0062947D01*
X0120699Y0062348D02*
X0160000Y0062348D01*
X0160000Y0061750D02*
X0121298Y0061750D01*
X0121896Y0061151D02*
X0160000Y0061151D01*
X0160000Y0060553D02*
X0122495Y0060553D01*
X0123093Y0059954D02*
X0160000Y0059954D01*
X0160000Y0059356D02*
X0123692Y0059356D01*
X0124290Y0058757D02*
X0160000Y0058757D01*
X0160000Y0058159D02*
X0124889Y0058159D01*
X0125487Y0057560D02*
X0160000Y0057560D01*
X0160000Y0056962D02*
X0126086Y0056962D01*
X0126684Y0056363D02*
X0160000Y0056363D01*
X0160000Y0055765D02*
X0127283Y0055765D01*
X0127881Y0055166D02*
X0160000Y0055166D01*
X0160000Y0054568D02*
X0128480Y0054568D01*
X0129078Y0053969D02*
X0160000Y0053969D01*
X0160000Y0053370D02*
X0129677Y0053370D01*
X0130275Y0052772D02*
X0160000Y0052772D01*
X0160000Y0052173D02*
X0130874Y0052173D01*
X0131472Y0051575D02*
X0160000Y0051575D01*
X0160000Y0050976D02*
X0132071Y0050976D01*
X0132669Y0050378D02*
X0160000Y0050378D01*
X0160000Y0049779D02*
X0133268Y0049779D01*
X0133866Y0049181D02*
X0160000Y0049181D01*
X0160000Y0048582D02*
X0134465Y0048582D01*
X0135063Y0047984D02*
X0160000Y0047984D01*
X0160000Y0047385D02*
X0137966Y0047385D01*
X0138564Y0046787D02*
X0160000Y0046787D01*
X0160000Y0046188D02*
X0146787Y0046188D01*
X0148064Y0045590D02*
X0160000Y0045590D01*
X0160000Y0044991D02*
X0148663Y0044991D01*
X0149261Y0044393D02*
X0160000Y0044393D01*
X0160000Y0043794D02*
X0149595Y0043794D01*
X0149843Y0043196D02*
X0160000Y0043196D01*
X0160000Y0042597D02*
X0150091Y0042597D01*
X0150200Y0041999D02*
X0160000Y0041999D01*
X0160000Y0041400D02*
X0150200Y0041400D01*
X0150200Y0040802D02*
X0160000Y0040802D01*
X0160000Y0040203D02*
X0150174Y0040203D01*
X0149926Y0039605D02*
X0160000Y0039605D01*
X0160000Y0039006D02*
X0149678Y0039006D01*
X0149430Y0038408D02*
X0160000Y0038408D01*
X0160000Y0037809D02*
X0148863Y0037809D01*
X0148265Y0037211D02*
X0160000Y0037211D01*
X0160000Y0036612D02*
X0147271Y0036612D01*
X0142729Y0036612D02*
X0139363Y0036612D01*
X0138765Y0036014D02*
X0160000Y0036014D01*
X0160000Y0035415D02*
X0138166Y0035415D01*
X0139962Y0037211D02*
X0141735Y0037211D01*
X0141137Y0037809D02*
X0140560Y0037809D01*
X0140346Y0037595D02*
X0140346Y0037595D01*
X0135000Y0041300D02*
X0100000Y0076300D01*
X0080000Y0076300D01*
X0081718Y0071924D02*
X0101830Y0071924D01*
X0101232Y0072523D02*
X0082870Y0072523D01*
X0083468Y0073121D02*
X0100633Y0073121D01*
X0100035Y0073720D02*
X0084019Y0073720D01*
X0084266Y0074318D02*
X0099436Y0074318D01*
X0101535Y0077311D02*
X0104100Y0077311D01*
X0104100Y0077909D02*
X0100936Y0077909D01*
X0102133Y0076712D02*
X0104100Y0076712D01*
X0104100Y0076114D02*
X0102732Y0076114D01*
X0103330Y0075515D02*
X0104100Y0075515D01*
X0104100Y0074917D02*
X0103929Y0074917D01*
X0104100Y0078508D02*
X0084173Y0078508D01*
X0083840Y0079106D02*
X0104100Y0079106D01*
X0104100Y0079705D02*
X0083242Y0079705D01*
X0082616Y0080303D02*
X0104100Y0080303D01*
X0104100Y0080902D02*
X0081171Y0080902D01*
X0077439Y0092274D02*
X0071800Y0092274D01*
X0071800Y0092872D02*
X0076781Y0092872D01*
X0076182Y0093471D02*
X0071800Y0093471D01*
X0071800Y0094069D02*
X0075837Y0094069D01*
X0075589Y0094668D02*
X0071800Y0094668D01*
X0071800Y0095266D02*
X0075341Y0095266D01*
X0075300Y0095865D02*
X0071800Y0095865D01*
X0071800Y0096463D02*
X0075300Y0096463D01*
X0075300Y0097062D02*
X0071800Y0097062D01*
X0071800Y0097660D02*
X0075476Y0097660D01*
X0075724Y0098259D02*
X0071800Y0098259D01*
X0071800Y0098857D02*
X0075972Y0098857D01*
X0076509Y0099456D02*
X0071800Y0099456D01*
X0071800Y0100054D02*
X0077108Y0100054D01*
X0068200Y0100054D02*
X0030112Y0100054D01*
X0030200Y0100653D02*
X0068200Y0100653D01*
X0068200Y0101251D02*
X0030200Y0101251D01*
X0030200Y0101850D02*
X0068200Y0101850D01*
X0068200Y0102448D02*
X0030153Y0102448D01*
X0029905Y0103047D02*
X0068200Y0103047D01*
X0068200Y0103645D02*
X0029657Y0103645D01*
X0029409Y0104244D02*
X0068200Y0104244D01*
X0068200Y0104842D02*
X0028811Y0104842D01*
X0028213Y0105441D02*
X0068200Y0105441D01*
X0068200Y0106039D02*
X0027146Y0106039D01*
X0027333Y0106638D02*
X0068200Y0106638D01*
X0068200Y0107237D02*
X0028290Y0107237D01*
X0028889Y0107835D02*
X0068200Y0107835D01*
X0068200Y0108434D02*
X0029441Y0108434D01*
X0029689Y0109032D02*
X0068200Y0109032D01*
X0068200Y0109631D02*
X0029937Y0109631D01*
X0030185Y0110229D02*
X0068200Y0110229D01*
X0068200Y0110828D02*
X0030200Y0110828D01*
X0030200Y0111426D02*
X0068200Y0111426D01*
X0068200Y0112025D02*
X0030200Y0112025D01*
X0030080Y0112623D02*
X0068200Y0112623D01*
X0068200Y0113222D02*
X0029832Y0113222D01*
X0029585Y0113820D02*
X0068200Y0113820D01*
X0067639Y0114419D02*
X0029235Y0114419D01*
X0028637Y0115017D02*
X0067040Y0115017D01*
X0066442Y0115616D02*
X0028038Y0115616D01*
X0027755Y0116813D02*
X0065245Y0116813D01*
X0065843Y0116214D02*
X0026724Y0116214D01*
X0028465Y0117411D02*
X0064646Y0117411D01*
X0064048Y0118010D02*
X0029064Y0118010D01*
X0023276Y0116214D02*
X0015000Y0116214D01*
X0015000Y0115616D02*
X0021962Y0115616D01*
X0021363Y0115017D02*
X0015000Y0115017D01*
X0015000Y0114419D02*
X0020765Y0114419D01*
X0020415Y0113820D02*
X0015000Y0113820D01*
X0015000Y0113222D02*
X0020168Y0113222D01*
X0019920Y0112623D02*
X0015000Y0112623D01*
X0015000Y0112025D02*
X0019800Y0112025D01*
X0019800Y0111426D02*
X0015000Y0111426D01*
X0015000Y0110828D02*
X0019800Y0110828D01*
X0019815Y0110229D02*
X0015000Y0110229D01*
X0015000Y0109631D02*
X0020063Y0109631D01*
X0020311Y0109032D02*
X0015000Y0109032D01*
X0015000Y0108434D02*
X0020559Y0108434D01*
X0021111Y0107835D02*
X0015000Y0107835D01*
X0015000Y0107237D02*
X0021710Y0107237D01*
X0022667Y0106638D02*
X0015000Y0106638D01*
X0015000Y0106039D02*
X0022854Y0106039D01*
X0021787Y0105441D02*
X0015000Y0105441D01*
X0015000Y0104842D02*
X0021189Y0104842D01*
X0020591Y0104244D02*
X0015000Y0104244D01*
X0015000Y0103645D02*
X0020343Y0103645D01*
X0020095Y0103047D02*
X0015000Y0103047D01*
X0015000Y0102448D02*
X0019847Y0102448D01*
X0019800Y0101850D02*
X0015000Y0101850D01*
X0015000Y0101251D02*
X0019800Y0101251D01*
X0019800Y0100653D02*
X0015000Y0100653D01*
X0015000Y0100054D02*
X0019888Y0100054D01*
X0020135Y0099456D02*
X0015000Y0099456D01*
X0015000Y0098857D02*
X0020383Y0098857D01*
X0020687Y0098259D02*
X0015000Y0098259D01*
X0015000Y0097660D02*
X0021286Y0097660D01*
X0021884Y0097062D02*
X0015000Y0097062D01*
X0015000Y0096463D02*
X0023089Y0096463D01*
X0022432Y0095865D02*
X0015000Y0095865D01*
X0015000Y0095266D02*
X0021612Y0095266D01*
X0021014Y0094668D02*
X0015000Y0094668D01*
X0015000Y0094069D02*
X0020519Y0094069D01*
X0020271Y0093471D02*
X0015000Y0093471D01*
X0015000Y0092872D02*
X0020023Y0092872D01*
X0019800Y0092274D02*
X0015000Y0092274D01*
X0015000Y0091675D02*
X0019800Y0091675D01*
X0019800Y0091077D02*
X0015000Y0091077D01*
X0015000Y0090478D02*
X0019800Y0090478D01*
X0019960Y0089880D02*
X0015000Y0089880D01*
X0015000Y0089281D02*
X0020208Y0089281D01*
X0020456Y0088683D02*
X0015000Y0088683D01*
X0015000Y0088084D02*
X0020862Y0088084D01*
X0021460Y0087486D02*
X0015000Y0087486D01*
X0015000Y0086887D02*
X0022065Y0086887D01*
X0022603Y0085690D02*
X0015000Y0085690D01*
X0015000Y0085092D02*
X0021721Y0085092D01*
X0021140Y0084493D02*
X0015000Y0084493D01*
X0015000Y0083895D02*
X0020710Y0083895D01*
X0020405Y0083296D02*
X0015000Y0083296D01*
X0015000Y0082698D02*
X0020197Y0082698D01*
X0020064Y0082099D02*
X0015000Y0082099D01*
X0015000Y0081501D02*
X0024700Y0081501D01*
X0024700Y0081000D02*
X0020000Y0081000D01*
X0020000Y0080906D01*
X0020123Y0080129D01*
X0020366Y0079381D01*
X0020724Y0078679D01*
X0021186Y0078043D01*
X0021743Y0077486D01*
X0022379Y0077024D01*
X0023081Y0076666D01*
X0023829Y0076423D01*
X0024606Y0076300D01*
X0024700Y0076300D01*
X0024700Y0081000D01*
X0024700Y0080902D02*
X0025300Y0080902D01*
X0025300Y0081000D02*
X0025300Y0076300D01*
X0025394Y0076300D01*
X0026171Y0076423D01*
X0026919Y0076666D01*
X0027621Y0077024D01*
X0028257Y0077486D01*
X0028814Y0078043D01*
X0029276Y0078679D01*
X0029634Y0079381D01*
X0029877Y0080129D01*
X0030000Y0080906D01*
X0030000Y0081000D01*
X0025300Y0081000D01*
X0025300Y0081501D02*
X0037254Y0081501D01*
X0036655Y0082099D02*
X0029936Y0082099D01*
X0029803Y0082698D02*
X0036057Y0082698D01*
X0035458Y0083296D02*
X0029595Y0083296D01*
X0029290Y0083895D02*
X0034860Y0083895D01*
X0034261Y0084493D02*
X0028860Y0084493D01*
X0028279Y0085092D02*
X0033663Y0085092D01*
X0033064Y0085690D02*
X0027397Y0085690D01*
X0026490Y0086289D02*
X0032466Y0086289D01*
X0031867Y0086887D02*
X0027935Y0086887D01*
X0028540Y0087486D02*
X0031269Y0087486D01*
X0030670Y0088084D02*
X0029138Y0088084D01*
X0029544Y0088683D02*
X0030072Y0088683D01*
X0029600Y0091700D02*
X0029600Y0093205D01*
X0025000Y0097805D01*
X0025000Y0101300D01*
X0028714Y0097660D02*
X0068200Y0097660D01*
X0068200Y0097062D02*
X0028289Y0097062D01*
X0028888Y0096463D02*
X0068200Y0096463D01*
X0068200Y0095865D02*
X0029486Y0095865D01*
X0030085Y0095266D02*
X0068200Y0095266D01*
X0068200Y0094668D02*
X0030683Y0094668D01*
X0031282Y0094069D02*
X0068200Y0094069D01*
X0068200Y0093471D02*
X0031400Y0093471D01*
X0031400Y0092872D02*
X0068200Y0092872D01*
X0068200Y0092274D02*
X0031572Y0092274D01*
X0032170Y0091675D02*
X0068200Y0091675D01*
X0068200Y0091077D02*
X0032769Y0091077D01*
X0033367Y0090478D02*
X0068200Y0090478D01*
X0068200Y0089880D02*
X0033966Y0089880D01*
X0034564Y0089281D02*
X0068200Y0089281D01*
X0068200Y0088683D02*
X0035163Y0088683D01*
X0035761Y0088084D02*
X0068200Y0088084D01*
X0068200Y0087486D02*
X0036360Y0087486D01*
X0036958Y0086887D02*
X0068200Y0086887D01*
X0068200Y0086289D02*
X0037557Y0086289D01*
X0038155Y0085690D02*
X0068200Y0085690D01*
X0068200Y0085092D02*
X0038754Y0085092D01*
X0039352Y0084493D02*
X0068200Y0084493D01*
X0068200Y0083895D02*
X0039951Y0083895D01*
X0040550Y0083296D02*
X0068200Y0083296D01*
X0068200Y0082698D02*
X0041148Y0082698D01*
X0039049Y0079705D02*
X0029739Y0079705D01*
X0029904Y0080303D02*
X0038451Y0080303D01*
X0037852Y0080902D02*
X0029999Y0080902D01*
X0029494Y0079106D02*
X0039648Y0079106D01*
X0040246Y0078508D02*
X0029152Y0078508D01*
X0028681Y0077909D02*
X0040845Y0077909D01*
X0041443Y0077311D02*
X0028016Y0077311D01*
X0027010Y0076712D02*
X0042042Y0076712D01*
X0042641Y0076114D02*
X0015000Y0076114D01*
X0015000Y0076712D02*
X0022990Y0076712D01*
X0021984Y0077311D02*
X0015000Y0077311D01*
X0015000Y0077909D02*
X0021319Y0077909D01*
X0020848Y0078508D02*
X0015000Y0078508D01*
X0015000Y0079106D02*
X0020506Y0079106D01*
X0020261Y0079705D02*
X0015000Y0079705D01*
X0015000Y0080303D02*
X0020095Y0080303D01*
X0020001Y0080902D02*
X0015000Y0080902D01*
X0015000Y0075515D02*
X0043239Y0075515D01*
X0043838Y0074917D02*
X0015000Y0074917D01*
X0015000Y0074318D02*
X0044436Y0074318D01*
X0045035Y0073720D02*
X0015000Y0073720D01*
X0015000Y0073121D02*
X0045633Y0073121D01*
X0046232Y0072523D02*
X0015000Y0072523D01*
X0015000Y0071924D02*
X0046830Y0071924D01*
X0047429Y0071326D02*
X0015000Y0071326D01*
X0015000Y0070727D02*
X0048027Y0070727D01*
X0048626Y0070129D02*
X0015000Y0070129D01*
X0015000Y0069530D02*
X0049224Y0069530D01*
X0049823Y0068932D02*
X0015000Y0068932D01*
X0015000Y0068333D02*
X0050421Y0068333D01*
X0051020Y0067735D02*
X0015000Y0067735D01*
X0015000Y0067136D02*
X0051618Y0067136D01*
X0052217Y0066538D02*
X0015000Y0066538D01*
X0015000Y0065939D02*
X0052815Y0065939D01*
X0053414Y0065341D02*
X0015000Y0065341D01*
X0015000Y0064742D02*
X0054012Y0064742D01*
X0054611Y0064144D02*
X0015000Y0064144D01*
X0015000Y0063545D02*
X0055209Y0063545D01*
X0055808Y0062947D02*
X0015000Y0062947D01*
X0015000Y0062348D02*
X0056406Y0062348D01*
X0057005Y0061750D02*
X0015000Y0061750D01*
X0015000Y0061151D02*
X0057603Y0061151D01*
X0058202Y0060553D02*
X0015000Y0060553D01*
X0015000Y0059954D02*
X0058800Y0059954D01*
X0059399Y0059356D02*
X0015000Y0059356D01*
X0015000Y0058757D02*
X0059997Y0058757D01*
X0060596Y0058159D02*
X0015000Y0058159D01*
X0015000Y0057560D02*
X0061194Y0057560D01*
X0061793Y0056962D02*
X0015000Y0056962D01*
X0015000Y0056363D02*
X0062391Y0056363D01*
X0062990Y0055765D02*
X0015000Y0055765D01*
X0015000Y0055166D02*
X0063588Y0055166D01*
X0064187Y0054568D02*
X0015000Y0054568D01*
X0015000Y0053969D02*
X0064785Y0053969D01*
X0065384Y0053370D02*
X0015000Y0053370D01*
X0015000Y0052772D02*
X0065982Y0052772D01*
X0066581Y0052173D02*
X0015000Y0052173D01*
X0015000Y0051575D02*
X0067179Y0051575D01*
X0067778Y0050976D02*
X0015000Y0050976D01*
X0015000Y0050378D02*
X0068376Y0050378D01*
X0068975Y0049779D02*
X0015000Y0049779D01*
X0015000Y0049181D02*
X0064145Y0049181D01*
X0063055Y0048582D02*
X0015000Y0048582D01*
X0015000Y0047984D02*
X0062462Y0047984D01*
X0062214Y0047385D02*
X0015000Y0047385D01*
X0015000Y0046787D02*
X0062011Y0046787D01*
X0062011Y0046188D02*
X0015000Y0046188D01*
X0015000Y0045590D02*
X0062059Y0045590D01*
X0062307Y0044991D02*
X0015000Y0044991D01*
X0015000Y0044393D02*
X0062680Y0044393D01*
X0063279Y0043794D02*
X0015000Y0043794D01*
X0015000Y0043196D02*
X0065559Y0043196D01*
X0066157Y0042597D02*
X0015000Y0042597D01*
X0015000Y0041999D02*
X0066756Y0041999D01*
X0067354Y0041400D02*
X0015000Y0041400D01*
X0015000Y0040802D02*
X0067953Y0040802D01*
X0068551Y0040203D02*
X0015000Y0040203D01*
X0015000Y0039605D02*
X0069150Y0039605D01*
X0069748Y0039006D02*
X0015000Y0039006D01*
X0015000Y0038408D02*
X0070347Y0038408D01*
X0070945Y0037809D02*
X0015000Y0037809D01*
X0015000Y0037211D02*
X0071544Y0037211D01*
X0072142Y0036612D02*
X0015000Y0036612D01*
X0015000Y0036014D02*
X0072741Y0036014D01*
X0073339Y0035415D02*
X0015000Y0035415D01*
X0015000Y0034817D02*
X0073938Y0034817D01*
X0074536Y0034218D02*
X0015000Y0034218D01*
X0015000Y0033620D02*
X0075135Y0033620D01*
X0075084Y0033021D02*
X0015000Y0033021D01*
X0015000Y0032423D02*
X0074837Y0032423D01*
X0074800Y0031824D02*
X0015000Y0031824D01*
X0015000Y0031226D02*
X0074800Y0031226D01*
X0074800Y0030627D02*
X0015000Y0030627D01*
X0015000Y0030029D02*
X0074898Y0030029D01*
X0075146Y0029430D02*
X0015000Y0029430D01*
X0015000Y0028832D02*
X0075394Y0028832D01*
X0075713Y0028233D02*
X0015000Y0028233D01*
X0015000Y0027634D02*
X0076312Y0027634D01*
X0076910Y0027036D02*
X0015000Y0027036D01*
X0015000Y0026437D02*
X0078151Y0026437D01*
X0081849Y0026437D02*
X0088151Y0026437D01*
X0086910Y0027036D02*
X0083090Y0027036D01*
X0083688Y0027634D02*
X0086312Y0027634D01*
X0085713Y0028233D02*
X0084287Y0028233D01*
X0084606Y0028832D02*
X0085394Y0028832D01*
X0085146Y0029430D02*
X0084854Y0029430D01*
X0080000Y0031300D02*
X0065000Y0046300D01*
X0067786Y0047385D02*
X0071369Y0047385D01*
X0071968Y0046787D02*
X0067989Y0046787D01*
X0067989Y0046188D02*
X0072566Y0046188D01*
X0073165Y0045590D02*
X0068256Y0045590D01*
X0068854Y0044991D02*
X0073763Y0044991D01*
X0074362Y0044393D02*
X0069453Y0044393D01*
X0070051Y0043794D02*
X0074960Y0043794D01*
X0075157Y0043196D02*
X0070650Y0043196D01*
X0071248Y0042597D02*
X0074909Y0042597D01*
X0074800Y0041999D02*
X0071847Y0041999D01*
X0072445Y0041400D02*
X0074800Y0041400D01*
X0074800Y0040802D02*
X0073044Y0040802D01*
X0073642Y0040203D02*
X0074826Y0040203D01*
X0075074Y0039605D02*
X0074241Y0039605D01*
X0074839Y0039006D02*
X0075322Y0039006D01*
X0075438Y0038408D02*
X0075570Y0038408D01*
X0076036Y0037809D02*
X0076137Y0037809D01*
X0076635Y0037211D02*
X0076735Y0037211D01*
X0077233Y0036612D02*
X0077729Y0036612D01*
X0080000Y0041300D02*
X0029600Y0091700D01*
X0029313Y0098259D02*
X0068200Y0098259D01*
X0068200Y0098857D02*
X0029617Y0098857D01*
X0029865Y0099456D02*
X0068200Y0099456D01*
X0055972Y0131177D02*
X0102577Y0131177D01*
X0101979Y0131775D02*
X0055373Y0131775D01*
X0054775Y0132374D02*
X0077793Y0132374D01*
X0076964Y0132972D02*
X0054176Y0132972D01*
X0053577Y0133571D02*
X0076420Y0133571D01*
X0076035Y0134170D02*
X0052979Y0134170D01*
X0052380Y0134768D02*
X0075766Y0134768D01*
X0075592Y0135367D02*
X0051782Y0135367D01*
X0051183Y0135965D02*
X0075500Y0135965D01*
X0081780Y0141950D02*
X0091804Y0141950D01*
X0091206Y0142549D02*
X0082895Y0142549D01*
X0083494Y0143147D02*
X0090607Y0143147D01*
X0090009Y0143746D02*
X0084029Y0143746D01*
X0084277Y0144344D02*
X0089410Y0144344D01*
X0090000Y0146300D02*
X0110000Y0126300D01*
X0112721Y0132374D02*
X0129816Y0132374D01*
X0130064Y0132972D02*
X0113319Y0132972D01*
X0113918Y0133571D02*
X0130312Y0133571D01*
X0130560Y0134170D02*
X0114205Y0134170D01*
X0114453Y0134768D02*
X0131114Y0134768D01*
X0131713Y0135367D02*
X0114700Y0135367D01*
X0114700Y0135965D02*
X0132674Y0135965D01*
X0145000Y0131300D02*
X0145000Y0113300D01*
X0143000Y0111300D01*
X0144475Y0110229D02*
X0160000Y0110229D01*
X0160000Y0109631D02*
X0143876Y0109631D01*
X0145073Y0110828D02*
X0160000Y0110828D01*
X0160000Y0111426D02*
X0145672Y0111426D01*
X0146270Y0112025D02*
X0160000Y0112025D01*
X0160000Y0112623D02*
X0146800Y0112623D01*
X0146800Y0113222D02*
X0160000Y0113222D01*
X0160000Y0113820D02*
X0146800Y0113820D01*
X0146800Y0114419D02*
X0160000Y0114419D01*
X0160000Y0115017D02*
X0146800Y0115017D01*
X0146800Y0115616D02*
X0160000Y0115616D01*
X0160000Y0116214D02*
X0146800Y0116214D01*
X0146800Y0116813D02*
X0160000Y0116813D01*
X0160000Y0117411D02*
X0146800Y0117411D01*
X0146800Y0118010D02*
X0160000Y0118010D01*
X0160000Y0118608D02*
X0146800Y0118608D01*
X0146800Y0119207D02*
X0160000Y0119207D01*
X0160000Y0119805D02*
X0146800Y0119805D01*
X0146800Y0120404D02*
X0160000Y0120404D01*
X0160000Y0121002D02*
X0146800Y0121002D01*
X0146800Y0121601D02*
X0160000Y0121601D01*
X0160000Y0122199D02*
X0146800Y0122199D01*
X0146800Y0122798D02*
X0160000Y0122798D01*
X0160000Y0123396D02*
X0146800Y0123396D01*
X0146800Y0123995D02*
X0160000Y0123995D01*
X0160000Y0124593D02*
X0146800Y0124593D01*
X0146800Y0125192D02*
X0160000Y0125192D01*
X0160000Y0125790D02*
X0146800Y0125790D01*
X0146800Y0126389D02*
X0160000Y0126389D01*
X0160000Y0126987D02*
X0148041Y0126987D01*
X0148640Y0127586D02*
X0160000Y0127586D01*
X0160000Y0128184D02*
X0149238Y0128184D01*
X0149586Y0128783D02*
X0160000Y0128783D01*
X0160000Y0129381D02*
X0149834Y0129381D01*
X0150082Y0129980D02*
X0160000Y0129980D01*
X0160000Y0130578D02*
X0150200Y0130578D01*
X0150200Y0131177D02*
X0160000Y0131177D01*
X0160000Y0131775D02*
X0150200Y0131775D01*
X0150184Y0132374D02*
X0160000Y0132374D01*
X0160000Y0132972D02*
X0149936Y0132972D01*
X0149688Y0133571D02*
X0160000Y0133571D01*
X0160000Y0134170D02*
X0149440Y0134170D01*
X0148886Y0134768D02*
X0160000Y0134768D01*
X0160000Y0135367D02*
X0148287Y0135367D01*
X0147326Y0135965D02*
X0160000Y0135965D01*
X0160000Y0136564D02*
X0114700Y0136564D01*
X0114700Y0137162D02*
X0160000Y0137162D01*
X0160000Y0137761D02*
X0114482Y0137761D01*
X0114234Y0138359D02*
X0160000Y0138359D01*
X0160000Y0138958D02*
X0113986Y0138958D01*
X0113391Y0139556D02*
X0160000Y0139556D01*
X0160000Y0140155D02*
X0112792Y0140155D01*
X0111531Y0140753D02*
X0160000Y0140753D01*
X0160000Y0146140D02*
X0156130Y0146140D01*
X0157575Y0146738D02*
X0160000Y0146738D01*
X0160000Y0147337D02*
X0158391Y0147337D01*
X0158989Y0147935D02*
X0160000Y0147935D01*
X0160000Y0148534D02*
X0159483Y0148534D01*
X0159731Y0149132D02*
X0160000Y0149132D01*
X0159978Y0149731D02*
X0160000Y0149731D01*
X0153448Y0156314D02*
X0114700Y0156314D01*
X0114700Y0155716D02*
X0152073Y0155716D01*
X0151463Y0155117D02*
X0114597Y0155117D01*
X0114349Y0154519D02*
X0150865Y0154519D01*
X0150457Y0153920D02*
X0114102Y0153920D01*
X0113669Y0153322D02*
X0150209Y0153322D01*
X0149961Y0152723D02*
X0113070Y0152723D01*
X0112202Y0152125D02*
X0149800Y0152125D01*
X0149800Y0150329D02*
X0112004Y0150329D01*
X0112933Y0149731D02*
X0150022Y0149731D01*
X0150269Y0149132D02*
X0113505Y0149132D01*
X0113912Y0148534D02*
X0150517Y0148534D01*
X0151011Y0147935D02*
X0114200Y0147935D01*
X0114392Y0147337D02*
X0151609Y0147337D01*
X0152033Y0156913D02*
X0114700Y0156913D01*
X0114585Y0157511D02*
X0151435Y0157511D01*
X0150836Y0158110D02*
X0114338Y0158110D01*
X0114090Y0158708D02*
X0150445Y0158708D01*
X0150197Y0159307D02*
X0113640Y0159307D01*
X0113041Y0159905D02*
X0149949Y0159905D01*
X0149800Y0160504D02*
X0112132Y0160504D01*
X0110300Y0150329D02*
X0109700Y0150329D01*
X0109700Y0149731D02*
X0110300Y0149731D01*
X0110300Y0149132D02*
X0109700Y0149132D01*
X0109700Y0148534D02*
X0110300Y0148534D01*
X0110300Y0147935D02*
X0109700Y0147935D01*
X0109700Y0147337D02*
X0110300Y0147337D01*
X0110300Y0146738D02*
X0109700Y0146738D01*
X0105564Y0145541D02*
X0093304Y0145541D01*
X0093903Y0144943D02*
X0105709Y0144943D01*
X0105946Y0144344D02*
X0094501Y0144344D01*
X0095100Y0143746D02*
X0106294Y0143746D01*
X0106789Y0143147D02*
X0095698Y0143147D01*
X0096297Y0142549D02*
X0107507Y0142549D01*
X0108469Y0140753D02*
X0098092Y0140753D01*
X0098691Y0140155D02*
X0107208Y0140155D01*
X0092403Y0141352D02*
X0050600Y0141352D01*
X0049713Y0149132D02*
X0062941Y0149132D01*
X0062415Y0149731D02*
X0049115Y0149731D01*
X0048516Y0150329D02*
X0062167Y0150329D01*
X0062011Y0150928D02*
X0047989Y0150928D01*
X0047989Y0151526D02*
X0062011Y0151526D01*
X0062106Y0152125D02*
X0047894Y0152125D01*
X0047646Y0152723D02*
X0062354Y0152723D01*
X0062795Y0153322D02*
X0047205Y0153322D01*
X0046484Y0153920D02*
X0063200Y0153920D01*
X0063200Y0154519D02*
X0015000Y0154519D01*
X0015000Y0155117D02*
X0063200Y0155117D01*
X0063038Y0155716D02*
X0015000Y0155716D01*
X0015000Y0156314D02*
X0062440Y0156314D01*
X0061841Y0156913D02*
X0015000Y0156913D01*
X0015000Y0157511D02*
X0061243Y0157511D01*
X0060644Y0158110D02*
X0015000Y0158110D01*
X0015000Y0158708D02*
X0060046Y0158708D01*
X0059447Y0159307D02*
X0015000Y0159307D01*
X0015000Y0159905D02*
X0058849Y0159905D01*
X0058250Y0160504D02*
X0015000Y0160504D01*
X0015000Y0161103D02*
X0057652Y0161103D01*
X0057053Y0161701D02*
X0015000Y0161701D01*
X0015000Y0162300D02*
X0056455Y0162300D01*
X0055856Y0162898D02*
X0015000Y0162898D01*
X0015000Y0163497D02*
X0055258Y0163497D01*
X0054659Y0164095D02*
X0015000Y0164095D01*
X0015000Y0164694D02*
X0054061Y0164694D01*
X0053462Y0165292D02*
X0015000Y0165292D01*
X0015000Y0165891D02*
X0052864Y0165891D01*
X0052265Y0166489D02*
X0015000Y0166489D01*
X0015000Y0167088D02*
X0051667Y0167088D01*
X0051068Y0167686D02*
X0015000Y0167686D01*
X0015000Y0168285D02*
X0050470Y0168285D01*
X0052750Y0168550D02*
X0050000Y0171300D01*
X0065000Y0156300D01*
X0065000Y0151300D01*
X0061546Y0162300D02*
X0077376Y0162300D01*
X0076755Y0162898D02*
X0060948Y0162898D01*
X0060349Y0163497D02*
X0076157Y0163497D01*
X0075826Y0164095D02*
X0059750Y0164095D01*
X0059152Y0164694D02*
X0075578Y0164694D01*
X0075330Y0165292D02*
X0058553Y0165292D01*
X0057955Y0165891D02*
X0075300Y0165891D01*
X0075300Y0166489D02*
X0057356Y0166489D01*
X0056758Y0167088D02*
X0075300Y0167088D01*
X0075487Y0167686D02*
X0056159Y0167686D01*
X0055561Y0168285D02*
X0075735Y0168285D01*
X0075983Y0168883D02*
X0054962Y0168883D01*
X0054364Y0169482D02*
X0076535Y0169482D01*
X0077133Y0170080D02*
X0053765Y0170080D01*
X0048190Y0168883D02*
X0015000Y0168883D01*
X0015000Y0169482D02*
X0047591Y0169482D01*
X0047270Y0170080D02*
X0015000Y0170080D01*
X0015000Y0170679D02*
X0047022Y0170679D01*
X0047011Y0171277D02*
X0015000Y0171277D01*
X0015000Y0171876D02*
X0047011Y0171876D01*
X0047251Y0172474D02*
X0015000Y0172474D01*
X0015000Y0173073D02*
X0047546Y0173073D01*
X0048144Y0173671D02*
X0015000Y0173671D01*
X0015000Y0179058D02*
X0042684Y0179058D01*
X0041660Y0179656D02*
X0015000Y0179656D01*
X0015000Y0180255D02*
X0040864Y0180255D01*
X0040209Y0180853D02*
X0015000Y0180853D01*
X0015000Y0181452D02*
X0039651Y0181452D01*
X0039173Y0182050D02*
X0015000Y0182050D01*
X0015000Y0182649D02*
X0038786Y0182649D01*
X0038439Y0183247D02*
X0015000Y0183247D01*
X0015000Y0183846D02*
X0038151Y0183846D01*
X0037916Y0184444D02*
X0015000Y0184444D01*
X0015000Y0185043D02*
X0037707Y0185043D01*
X0037566Y0185641D02*
X0015000Y0185641D01*
X0015000Y0186240D02*
X0037439Y0186240D01*
X0037372Y0186839D02*
X0015000Y0186839D01*
X0015000Y0187437D02*
X0037326Y0187437D01*
X0022674Y0135965D02*
X0015000Y0135965D01*
X0015000Y0135367D02*
X0021713Y0135367D01*
X0021114Y0134768D02*
X0015000Y0134768D01*
X0015000Y0134170D02*
X0020560Y0134170D01*
X0020312Y0133571D02*
X0015000Y0133571D01*
X0015000Y0132972D02*
X0020064Y0132972D01*
X0019816Y0132374D02*
X0015000Y0132374D01*
X0015000Y0131775D02*
X0019800Y0131775D01*
X0019800Y0131177D02*
X0015000Y0131177D01*
X0015000Y0130578D02*
X0019800Y0130578D01*
X0019918Y0129980D02*
X0015000Y0129980D01*
X0015000Y0129381D02*
X0020166Y0129381D01*
X0020414Y0128783D02*
X0015000Y0128783D01*
X0015000Y0128184D02*
X0020762Y0128184D01*
X0021360Y0127586D02*
X0015000Y0127586D01*
X0015000Y0126987D02*
X0021959Y0126987D01*
X0022252Y0125790D02*
X0015000Y0125790D01*
X0015000Y0125192D02*
X0021538Y0125192D01*
X0020939Y0124593D02*
X0015000Y0124593D01*
X0015000Y0123995D02*
X0020488Y0123995D01*
X0020240Y0123396D02*
X0015000Y0123396D01*
X0015000Y0122798D02*
X0019992Y0122798D01*
X0019800Y0122199D02*
X0015000Y0122199D01*
X0015000Y0121601D02*
X0019800Y0121601D01*
X0019800Y0121002D02*
X0015000Y0121002D01*
X0015000Y0120404D02*
X0019800Y0120404D01*
X0019991Y0119805D02*
X0015000Y0119805D01*
X0015000Y0119207D02*
X0020239Y0119207D01*
X0020487Y0118608D02*
X0015000Y0118608D01*
X0015000Y0118010D02*
X0020936Y0118010D01*
X0021535Y0117411D02*
X0015000Y0117411D01*
X0015000Y0116813D02*
X0022245Y0116813D01*
X0023268Y0126389D02*
X0015000Y0126389D01*
X0015000Y0086289D02*
X0023510Y0086289D01*
X0024700Y0080303D02*
X0025300Y0080303D01*
X0025300Y0079705D02*
X0024700Y0079705D01*
X0024700Y0079106D02*
X0025300Y0079106D01*
X0025300Y0078508D02*
X0024700Y0078508D01*
X0024700Y0077909D02*
X0025300Y0077909D01*
X0025300Y0077311D02*
X0024700Y0077311D01*
X0024700Y0076712D02*
X0025300Y0076712D01*
X0065855Y0049181D02*
X0069574Y0049181D01*
X0070172Y0048582D02*
X0066945Y0048582D01*
X0067538Y0047984D02*
X0070771Y0047984D01*
X0085400Y0043205D02*
X0085400Y0039395D01*
X0090000Y0034795D01*
X0090000Y0031300D01*
X0091849Y0026437D02*
X0098151Y0026437D01*
X0096910Y0027036D02*
X0093090Y0027036D01*
X0093688Y0027634D02*
X0096312Y0027634D01*
X0095713Y0028233D02*
X0094287Y0028233D01*
X0094606Y0028832D02*
X0095394Y0028832D01*
X0095146Y0029430D02*
X0094854Y0029430D01*
X0099700Y0041999D02*
X0100300Y0041999D01*
X0100300Y0042597D02*
X0099700Y0042597D01*
X0099700Y0043196D02*
X0100300Y0043196D01*
X0100300Y0043794D02*
X0099700Y0043794D01*
X0099700Y0044393D02*
X0100300Y0044393D01*
X0100300Y0044991D02*
X0099700Y0044991D01*
X0099700Y0045590D02*
X0100300Y0045590D01*
X0100300Y0046188D02*
X0099700Y0046188D01*
X0098902Y0046188D02*
X0094163Y0046188D01*
X0094761Y0045590D02*
X0097406Y0045590D01*
X0096620Y0044991D02*
X0095360Y0044991D01*
X0095958Y0044393D02*
X0096067Y0044393D01*
X0093564Y0046787D02*
X0126968Y0046787D01*
X0127566Y0046188D02*
X0101098Y0046188D01*
X0102594Y0045590D02*
X0128165Y0045590D01*
X0128763Y0044991D02*
X0103380Y0044991D01*
X0103933Y0044393D02*
X0129362Y0044393D01*
X0129960Y0043794D02*
X0104341Y0043794D01*
X0104641Y0043196D02*
X0130157Y0043196D01*
X0129909Y0042597D02*
X0104836Y0042597D01*
X0092966Y0047385D02*
X0126369Y0047385D01*
X0138705Y0046646D02*
X0138705Y0046646D01*
X0139163Y0046188D02*
X0143213Y0046188D01*
X0141936Y0045590D02*
X0139761Y0045590D01*
X0140360Y0044991D02*
X0141337Y0044991D01*
X0090000Y0146300D02*
X0080000Y0146300D01*
D14*
X0065000Y0151300D03*
X0050000Y0171300D03*
X0045000Y0151300D03*
X0070000Y0061300D03*
X0070000Y0056300D03*
X0075000Y0061300D03*
X0065000Y0046300D03*
M02*
