G75*
%MOIN*%
%OFA0B0*%
%FSLAX25Y25*%
%IPPOS*%
%LPD*%
%AMOC8*
5,1,8,0,0,1.08239X$1,22.5*
%
%ADD10C,0.08200*%
%ADD11C,0.17800*%
%ADD12C,0.07200*%
%ADD13C,0.03778*%
D10*
X0025000Y0081300D03*
X0025000Y0091300D03*
X0025000Y0101300D03*
X0025000Y0111300D03*
X0025000Y0121300D03*
X0025000Y0131300D03*
X0080000Y0041300D03*
X0080000Y0031300D03*
X0090000Y0031300D03*
X0090000Y0041300D03*
X0100000Y0041300D03*
X0100000Y0031300D03*
X0135000Y0041300D03*
X0145000Y0041300D03*
X0145000Y0086300D03*
X0135000Y0086300D03*
X0135000Y0131300D03*
X0145000Y0131300D03*
X0155000Y0151300D03*
X0155000Y0161300D03*
X0155000Y0171300D03*
X0155000Y0181300D03*
X0155000Y0191300D03*
X0155000Y0201300D03*
X0155000Y0211300D03*
X0155000Y0221300D03*
D11*
X0058937Y0206300D03*
X0047126Y0187796D03*
X0035315Y0206300D03*
D12*
X0080000Y0206300D03*
X0080000Y0196300D03*
X0080000Y0186300D03*
X0080000Y0176300D03*
X0080000Y0166300D03*
X0080000Y0156300D03*
X0080000Y0146300D03*
X0080000Y0136300D03*
X0080000Y0126300D03*
X0080000Y0116300D03*
X0080000Y0106300D03*
X0080000Y0096300D03*
X0080000Y0086300D03*
X0080000Y0076300D03*
X0110000Y0076300D03*
X0110000Y0086300D03*
X0110000Y0096300D03*
X0110000Y0106300D03*
X0110000Y0116300D03*
X0110000Y0126300D03*
X0110000Y0136300D03*
X0110000Y0146300D03*
X0110000Y0156300D03*
X0110000Y0166300D03*
X0110000Y0176300D03*
X0110000Y0186300D03*
X0110000Y0196300D03*
X0110000Y0206300D03*
D13*
X0065000Y0151300D03*
X0050000Y0171300D03*
X0045000Y0151300D03*
X0070000Y0061300D03*
X0070000Y0056300D03*
X0075000Y0061300D03*
X0065000Y0046300D03*
M02*
